<svg width="1011" height="454" viewBox="0 0 1011 454" fill="none" xmlns="http://www.w3.org/2000/svg">
<path d="M468.778 173.208C474.83 173.788 497.996 171.855 503.005 193.118C524.71 173.788 520.536 148.079 505.092 138.028C479.005 121.017 451.038 136.481 448.534 154.072C446.864 165.283 453.96 172.049 468.778 173.208ZM1004.94 145.373C990.535 144.986 969.039 167.023 951.716 167.023C940.238 167.023 939.403 158.904 946.29 145.18C971.752 94.535 940.864 96.0814 934.185 100.914C934.185 100.914 956.308 64.7666 917.28 64.7666C869.07 64.9599 826.286 102.46 803.955 158.131C795.815 177.074 777.867 217.668 758.875 222.693C740.718 227.333 740.718 205.296 729.239 201.237C806.25 153.105 807.085 114.252 794.98 101.107C784.128 89.5092 747.605 85.8364 702.525 129.136C713.586 90.6689 744.892 67.0863 752.405 28.6194C756.37 5.8099 738.213 -17.5795 703.986 20.1142C680.82 45.6299 668.715 92.4087 646.175 151.945C632.818 188.286 606.104 253.428 582.312 253.622C571.877 253.622 568.955 245.116 572.295 221.34C578.347 174.948 618.835 121.597 632.818 83.1302C643.254 57.6145 632.818 42.3438 620.922 39.8308C604.852 37.1246 582.104 51.0423 565.407 89.5092C552.05 115.991 541.198 152.525 533.059 194.085C525.545 228.686 496.118 296.534 467.526 293.055C456.882 291.702 467.735 266.959 480.883 242.023C491.944 220.954 500.918 195.438 477.335 195.438C441.021 195.438 414.515 264.64 410.133 316.251C408.046 341.38 407.211 370.375 428.081 370.375C453.96 370.375 487.353 345.246 518.658 301.56C520.954 325.916 554.346 358.197 619.044 271.405C620.088 284.55 623.218 304.266 634.071 304.846C634.071 304.846 644.088 307.359 654.315 285.903C664.541 264.446 675.811 237.191 678.107 231.972C683.533 219.794 693.76 217.668 694.803 238.157C695.847 259.421 701.899 275.078 720.474 274.885C756.997 274.691 788.719 243.763 797.694 231.972C802.911 250.335 847.782 256.714 896.619 202.01C898.706 216.508 912.48 237.578 973.839 193.312C1012.66 166.056 1016 145.76 1004.94 145.373ZM695.429 180.94C693.968 181.134 691.464 179.781 692.507 177.461C697.516 165.67 705.238 155.618 715.256 147.693C724.022 140.734 733.622 136.481 740.718 136.481C747.396 136.481 751.362 140.154 750.944 146.34C750.736 151.172 747.396 157.164 741.344 162.384C719.847 180.94 697.308 180.94 695.429 180.94ZM904.549 121.404C883.47 151.559 890.984 155.038 875.748 176.688C863.435 194.085 846.321 198.531 839.852 189.639C833.382 180.554 839.852 160.644 854.252 144.986C868.653 129.522 914.15 107.679 904.549 121.404ZM371.523 320.697C377.366 219.407 436.847 135.321 438.725 99.7541C439.56 85.4498 431.42 74.2384 412.846 75.0116C381.749 76.3647 326.025 117.538 298.059 169.536C282.615 125.85 245.257 151.752 227.726 170.889C231.066 88.736 203.934 81.7771 188.073 82.357C138.61 84.4833 87.0607 145.953 59.0946 190.605C33.2154 231.972 -32.5259 354.911 19.8585 362.257C32.798 363.996 45.9463 350.465 54.9205 318.764C89.1478 199.304 129.845 172.049 146.541 173.208C190.369 176.301 133.81 327.462 114.401 380.813C103.548 409.229 94.3653 455.234 129.427 453.688C168.455 452.141 184.942 360.903 194.334 311.225C204.978 256.908 219.796 239.317 234.822 240.477C252.353 242.41 245.049 275.078 233.361 306.199C222.926 338.094 187.029 415.801 229.187 419.28C271.763 420.633 269.884 349.305 281.572 304.266C299.311 236.418 319.138 190.799 340.635 194.471C366.931 199.691 305.573 288.609 301.398 358.97C298.268 413.675 324.982 453.301 363.592 437.837C404.289 420.054 368.392 375.401 371.523 320.697Z" fill="#50416F"/>
</svg>
