<svg width="412" height="224" viewBox="0 0 412 224" fill="none" xmlns="http://www.w3.org/2000/svg">
<path d="M-15.6163 0.75581C-15.4131 1.16809 -15.1648 1.55746 -15.0971 1.62617C-15.0294 1.69488 -14.7134 2.19877 -14.4425 2.77138C-14.149 3.34398 -13.4041 4.71823 -12.7947 5.86344C-12.1852 6.98575 -11.5306 8.29129 -11.35 8.72647C-11.1469 9.16165 -10.6954 10.1923 -10.3117 11.0169C-9.13792 13.5134 -8.79933 14.2922 -8.30274 15.5977C-7.76099 16.972 -7.64813 17.2239 -6.97095 18.8959C-6.70008 19.5143 -6.49693 20.1328 -6.49693 20.2702C-6.49693 20.4076 -6.36149 20.797 -6.18091 21.1405C-6.00033 21.4841 -5.79717 22.0796 -5.70688 22.4919C-5.61659 22.9271 -5.45858 23.4081 -5.36829 23.6142C-5.09742 24.1181 -4.30738 26.8208 -4.1268 27.7369C-4.05908 28.1721 -3.90107 28.7447 -3.78821 28.9967C-3.3819 29.9587 -2.50157 33.7378 -1.95983 36.8986C-0.966633 42.6018 -0.85377 43.495 0.0265627 52.7025C0.297434 55.5884 0.320007 68.117 0.0491354 69.8806C-0.379744 72.6521 -0.673189 74.1179 -0.85377 74.347C-0.94406 74.4615 -1.0795 74.8738 -1.16979 75.2631C-1.26008 75.6296 -1.46323 76.248 -1.64381 76.6374C-1.80182 77.0039 -2.18555 77.9429 -2.45643 78.6988C-2.7273 79.4546 -3.02074 80.2792 -3.1336 80.5311C-3.2239 80.783 -3.51734 82.0657 -3.76564 83.3941C-4.26224 85.9594 -4.35253 87.7459 -4.01394 89.2347C-3.56248 91.3419 -3.31419 92.258 -3.02074 92.8994C-2.56929 93.8842 -1.71153 95.6708 -1.21493 96.6556C-0.628043 97.778 3.34474 101.74 4.38308 102.244C4.83453 102.473 5.28598 102.725 5.3537 102.84C5.39885 102.954 6.25661 103.321 7.20466 103.664C8.17528 104.008 9.21362 104.397 9.50706 104.558C10.2294 104.901 17.7009 104.901 18.1298 104.558C18.3104 104.42 18.9198 104.191 19.5067 104.031C20.8611 103.71 23.6375 102.382 24.8564 101.488C25.353 101.099 25.8496 100.801 25.9625 100.801C26.1882 100.801 28.2649 98.6712 28.2649 98.4193C28.2649 98.3277 28.6486 97.778 29.1452 97.1824C30.2739 95.7624 32.0571 92.1435 32.5086 90.2654C33.0729 87.975 33.0052 83.2796 32.3957 81.1037C31.8765 79.2943 31.4025 77.9429 31.1542 77.5536C31.0865 77.4161 30.9511 76.9122 30.8608 76.4083C30.7705 75.9044 30.6125 75.3777 30.4996 75.2631C29.687 74.1866 29.687 65.483 30.4996 62.6658C30.793 61.658 31.1994 60.0777 31.4251 58.8866C31.5605 58.314 31.7411 57.6498 31.8314 57.3979C31.9443 57.1459 32.3054 56.0694 32.644 54.9929C33.2535 53.1148 33.8404 51.6947 34.4272 50.7556C34.5627 50.5037 34.969 49.8624 35.3301 49.3127C35.6687 48.763 35.9396 48.2362 35.9396 48.1446C35.9396 48.053 36.5491 47.2742 37.294 46.4497C38.8063 44.7777 40.8153 43.5866 43.1628 42.9911C44.6752 42.6018 51.3793 42.4643 51.605 42.8308C51.6727 42.9224 52.2822 43.0827 52.9819 43.1744C53.6817 43.2431 54.404 43.4034 54.6297 43.5179C54.8329 43.6324 55.7358 43.9989 56.5936 44.3654C57.4739 44.7089 58.2639 45.0754 58.3994 45.1899C58.5122 45.2815 58.738 45.3732 58.896 45.3732C59.0765 45.3732 59.4829 45.5564 59.8214 45.8083C60.16 46.0374 60.9275 46.5184 61.537 46.8848C62.1464 47.2513 62.9365 47.7323 63.2751 47.9384C65.5549 49.3356 71.3786 54.8326 74.0196 58.1079C75.8932 60.3983 76.3446 61.0167 76.3446 61.2229C76.3446 61.3374 76.5929 61.7726 76.9089 62.1848C77.6764 63.2155 78.6696 65.0937 80.1142 68.2774C81.1751 70.6136 81.4686 71.3236 81.6266 72.1024C81.7169 72.5146 81.8975 72.904 82.0103 72.9727C82.1232 73.0643 82.2135 73.2934 82.2135 73.4995C82.2361 73.7056 82.4166 74.3012 82.6649 74.805C82.9132 75.3089 83.0938 75.9503 83.1164 76.248C83.1164 76.5229 83.2067 76.9351 83.3421 77.1642C83.613 77.6452 84.1999 79.8669 84.4933 81.5618C84.6288 82.2489 84.8093 83.0277 84.9222 83.2796C85.1705 83.898 86.0734 87.975 86.7957 91.7542C86.9537 92.51 87.1343 93.22 87.202 93.3574C87.2923 93.472 87.4278 94.1591 87.5181 94.8462C87.5858 95.5333 87.7438 96.4037 87.8566 96.7931C87.9695 97.1595 88.2178 98.3964 88.3984 99.5416C88.579 100.664 88.8273 102.061 88.9627 102.634C89.0756 103.206 89.1884 104.077 89.211 104.58C89.211 105.107 89.3013 105.611 89.4142 105.726C89.527 105.863 89.7302 107.031 89.8882 108.36C90.0236 109.665 90.2268 110.902 90.3396 111.108C90.4299 111.291 90.5879 112.322 90.6556 113.399C90.7459 114.475 90.9039 115.552 91.0168 115.804C91.1297 116.055 91.3103 117.086 91.4457 118.094C91.5811 119.102 91.8294 121.049 92.01 122.446C92.2132 123.82 92.3712 125.355 92.4163 125.836C92.4389 126.317 92.5292 126.752 92.6195 126.82C92.7098 126.866 92.8452 128.034 92.9355 129.432C93.0258 130.829 93.1838 131.997 93.2741 132.066C93.3644 132.134 93.5224 133.44 93.6127 134.974C93.703 136.532 93.861 138.25 93.9738 138.822C94.0641 139.395 94.335 142.899 94.5381 146.61C94.967 154.237 94.7639 158.955 93.9512 161.291C93.5901 162.391 92.4615 164.864 91.9197 165.849C91.5811 166.422 89.7527 170.224 89.1207 171.598C88.3984 173.247 87.4052 176.294 87.4052 176.935C87.4052 177.21 87.2698 177.576 87.1117 177.736C86.7732 178.08 86.7506 184.676 87.1117 185.135C87.2472 185.295 87.4278 185.799 87.5181 186.234C87.9469 188.341 89.4819 191.09 91.3328 193.059C92.7098 194.525 95.1025 196.174 96.2085 196.426C96.6374 196.518 97.1114 196.678 97.2469 196.793C97.7209 197.182 100.858 197.503 102.8 197.365C107.427 197.022 111.445 194.731 114.741 190.563C115.847 189.189 116.772 187.173 117.675 184.173C118.104 182.753 118.081 178.126 117.607 175.927C117.246 174.141 116.388 171.392 116.072 171.003C115.982 170.865 115.824 170.522 115.734 170.201C115.644 169.88 114.944 168.277 114.154 166.651C112.145 162.414 111.874 161.772 111.445 160.238C111.219 159.482 110.971 158.68 110.858 158.474C110.745 158.245 110.587 157.489 110.52 156.756C110.429 156.023 110.249 155.29 110.113 155.107C109.752 154.649 109.775 140.242 110.136 137.677C110.294 136.601 110.52 134.035 110.655 131.951C110.79 129.867 111.106 126.202 111.355 123.82C112.574 111.864 112.799 109.871 113.138 107.787C113.251 107.031 113.477 105.176 113.612 103.664C113.747 102.153 113.928 100.778 114.041 100.572C114.131 100.389 114.289 99.2438 114.379 98.0528C114.47 96.8618 114.605 95.7624 114.718 95.6479C114.808 95.5104 114.944 94.5943 115.034 93.6094C115.124 92.6016 115.26 91.6625 115.35 91.548C115.508 91.2503 115.508 91.2732 115.847 88.5476C115.982 87.4253 116.185 86.2342 116.321 85.9136C116.434 85.5929 116.637 84.6768 116.75 83.8522C117.043 81.7908 117.585 78.7904 117.765 78.2407C117.833 77.9887 118.036 76.9122 118.217 75.8357C118.646 73.1559 119.12 70.751 119.278 70.3387C119.345 70.1555 119.526 69.3768 119.661 68.6209C120.045 66.4221 120.7 63.6049 120.835 63.353C120.926 63.2155 121.061 62.5971 121.151 61.9787C121.242 61.3374 121.377 60.719 121.49 60.6045C121.58 60.467 121.716 59.9631 121.806 59.4592C122.009 58.2911 122.799 55.451 123.093 54.9471C123.205 54.7181 123.296 54.3974 123.296 54.2142C123.296 53.7561 124.627 49.7021 125.327 48.0071C126.591 45.0067 127.9 42.2582 128.6 41.1359C128.916 40.632 129.255 40.0136 129.368 39.7616C129.481 39.5097 130.18 38.5477 130.948 37.6545C131.715 36.7383 132.325 35.9137 132.325 35.7992C132.325 35.5244 134.763 33.234 136.275 32.0658C137.855 30.8519 139.977 29.7296 142.031 29.0425C143.318 28.6073 143.972 28.5386 147.448 28.5386C150.834 28.5615 151.692 28.6302 153.408 29.0883C154.536 29.386 155.597 29.7067 155.778 29.7983C155.981 29.8899 157.109 30.4625 158.283 31.0352C160.834 32.3178 161.85 32.8904 162.482 33.4859C162.73 33.7149 163.001 33.9211 163.091 33.9211C163.181 33.9211 163.452 34.0814 163.678 34.2875C164.558 34.9976 170.382 40.9527 170.811 41.5711C171.059 41.9375 171.533 42.533 171.849 42.9453C172.369 43.5866 174.016 46.0603 174.31 46.6329C174.378 46.7474 174.716 47.32 175.1 47.8926C175.664 48.763 179.908 57.0772 179.953 57.3979C179.976 57.6269 180.246 58.3369 180.653 59.276C180.901 59.8028 181.082 60.3296 181.082 60.467C181.082 60.5815 181.24 60.9709 181.42 61.3374C181.601 61.6809 181.962 62.5971 182.233 63.353C182.504 64.1088 182.797 64.8875 182.887 65.0708C182.978 65.2769 183.136 65.7808 183.226 66.216C183.316 66.6512 183.474 67.1092 183.565 67.2467C183.655 67.3612 183.858 67.9338 183.993 68.5064C184.287 69.8119 185.032 72.4001 185.212 72.8582C185.393 73.2934 185.777 74.8509 186.206 76.8664C186.386 77.7368 186.612 78.6759 186.725 78.9278C186.838 79.1797 186.996 79.8898 187.063 80.5311C187.154 81.1495 187.289 81.7679 187.357 81.9053C187.447 82.0199 187.628 82.7986 187.786 83.6232C187.921 84.4477 188.147 85.6158 188.26 86.2571C189.072 90.5402 189.253 92.5787 189.163 95.9914C189.05 99.4729 188.666 101.786 187.944 103.481C187.763 103.87 187.628 104.283 187.628 104.397C187.628 104.489 187.312 105.245 186.928 106.069C185.822 108.383 185.619 108.886 185.461 109.619C185.37 109.986 185.235 110.398 185.145 110.536C185.054 110.65 184.829 111.383 184.671 112.139C184.513 112.895 184.309 113.628 184.197 113.765C183.948 114.109 183.542 117.521 183.542 119.354C183.519 121.919 184.242 125.767 185.145 127.943C186.273 130.714 188.395 134.402 189.027 134.654C189.117 134.7 189.208 134.86 189.208 134.997C189.208 135.295 191.691 137.906 191.984 137.906C192.097 137.906 192.706 138.341 193.361 138.891C194.761 140.059 197.198 141.296 199.591 142.052C201.081 142.533 201.713 142.601 205.009 142.601C208.733 142.601 209.704 142.441 212.57 141.365C213.112 141.158 216.611 139.395 217.424 138.937C219.207 137.906 223.18 133.875 224.737 131.516C225.663 130.119 227.017 127.301 227.355 126.019C227.491 125.515 227.671 125.034 227.784 124.988C227.897 124.919 228.055 124.255 228.145 123.545C228.236 122.812 228.394 122.102 228.529 121.942C228.823 121.575 228.868 114.75 228.574 114.292C228.462 114.109 228.258 113.353 228.123 112.597C227.852 111.154 227.513 110.032 226.994 108.978C226.814 108.612 226.678 108.222 226.678 108.085C226.678 107.97 226.543 107.535 226.362 107.146C225.798 105.863 224.918 103.023 224.624 101.534C224.173 99.1064 224.714 92.7161 225.527 91.1815C225.64 90.9754 225.798 90.4715 225.866 90.0363C225.956 89.6012 226.114 89.0286 226.227 88.7766C226.317 88.5247 226.678 87.4024 227.017 86.28C227.355 85.1577 227.784 83.9667 227.942 83.6461C228.123 83.3254 228.258 82.9131 228.258 82.7528C228.258 82.5925 228.349 82.2947 228.462 82.0657C228.845 81.264 229.342 80.0501 229.613 79.2714C229.996 78.172 232.073 73.866 232.75 72.7437C233.066 72.2398 233.653 71.4152 234.06 70.8884C234.466 70.3616 234.804 69.8577 234.804 69.7432C234.804 69.4684 238.687 65.5289 238.958 65.5289C239.048 65.5289 239.545 65.1853 240.064 64.7501C240.583 64.3378 242.141 63.4446 243.495 62.7803C246.745 61.2229 246.587 61.2687 248.732 60.7419C251.44 60.0547 257.874 60.0547 261.102 60.7419C262.343 61.0167 263.472 61.3145 263.585 61.4061C263.72 61.5206 264.194 61.658 264.668 61.7497C265.119 61.8413 265.571 62.0016 265.639 62.1161C265.706 62.2306 265.909 62.3223 266.09 62.3223C266.745 62.3223 272.388 65.2769 273.72 66.3076C274.149 66.6283 274.577 66.9031 274.645 66.9031C274.735 66.9031 275.3 67.2925 275.887 67.7506C276.496 68.2315 277.309 68.8729 277.738 69.1935C280.333 71.2091 286.293 77.1871 288.866 80.4395C289.114 80.7372 289.882 81.7221 290.604 82.5925C291.778 84.0812 293.493 86.532 293.493 86.7381C293.493 86.7839 293.809 87.2649 294.17 87.7917C294.554 88.2956 294.848 88.8224 294.848 88.9369C294.848 89.0515 295.096 89.4866 295.389 89.876C296.495 91.3419 300.965 100.252 301.958 102.977C302.274 103.848 302.635 104.764 302.748 104.97C302.883 105.199 303.245 106.184 303.561 107.146C303.899 108.131 304.238 109.024 304.328 109.161C304.418 109.276 304.576 109.757 304.667 110.192C304.757 110.627 304.915 111.131 305.005 111.337C305.254 111.818 306.066 114.498 306.247 115.46C306.337 115.895 306.495 116.353 306.585 116.491C306.676 116.605 306.834 117.109 306.901 117.613C306.992 118.094 307.15 118.667 307.263 118.873C307.353 119.079 307.714 120.522 308.053 122.102C308.391 123.683 308.752 125.194 308.865 125.469C308.955 125.744 309.113 126.523 309.181 127.187C309.272 127.851 309.407 128.607 309.52 128.859C309.746 129.454 310.626 134.86 310.874 137.379C310.987 138.502 311.19 140.38 311.348 141.571C311.619 144.067 311.484 152.198 311.145 152.633C311.032 152.771 310.852 153.412 310.784 154.054C310.603 155.382 309.836 158.062 309.384 158.955C309.204 159.276 309.068 159.711 309.068 159.917C309.068 160.1 308.978 160.352 308.888 160.49C308.775 160.604 308.414 161.52 308.053 162.528C307.714 163.536 307.353 164.452 307.263 164.589C307.172 164.704 307.014 165.231 306.924 165.735C306.834 166.239 306.698 166.742 306.585 166.88C306.495 166.994 306.269 167.727 306.111 168.483C305.953 169.239 305.728 169.995 305.615 170.155C305.299 170.567 305.141 177.851 305.434 179.363C305.863 181.722 306.495 183.669 307.308 185.089C307.398 185.272 307.556 185.593 307.646 185.776C307.94 186.463 309.994 188.891 311.1 189.853C312.364 190.975 314.847 192.349 316.743 193.014C317.759 193.357 318.617 193.449 321.37 193.449C324.305 193.449 324.959 193.38 326.336 192.899C328.255 192.258 329.203 191.8 330.445 190.975C330.964 190.632 331.483 190.357 331.596 190.357C332.092 190.357 335.659 186.509 336.178 185.432C336.472 184.791 336.788 184.241 336.855 184.173C337.104 183.989 337.871 182.088 338.187 180.966C338.345 180.393 338.571 179.683 338.684 179.363C339.022 178.538 339.18 172.881 338.909 171.117C338.48 168.414 337.465 164.521 336.946 163.513C336.765 163.192 336.607 162.643 336.607 162.345C336.607 162.024 336.517 161.704 336.404 161.635C336.291 161.566 336.133 161.108 336.043 160.65C335.952 160.169 335.749 159.459 335.591 159.092C335.433 158.703 335.207 158.039 335.14 157.604C335.049 157.169 334.891 156.688 334.801 156.573C334.508 156.184 333.198 150.045 333.402 150.045C333.447 150.045 333.379 149.885 333.198 149.679C332.995 149.404 332.905 147.732 332.905 142.418C332.882 136.326 332.95 135.043 333.424 131.607C333.718 129.454 334.034 127.508 334.147 127.256C334.237 127.004 334.417 126.019 334.553 125.08C334.824 123.018 335.343 120.293 335.546 119.812C335.614 119.629 335.794 118.85 335.93 118.094C336.088 117.338 336.291 116.605 336.381 116.491C336.472 116.353 336.63 115.826 336.72 115.3C336.81 114.75 336.946 114.269 337.058 114.2C337.149 114.132 337.307 113.696 337.397 113.238C337.487 112.757 337.623 112.253 337.736 112.139C337.826 112.001 337.961 111.589 338.052 111.223C338.187 110.581 338.503 109.78 339.225 108.291C339.406 107.925 339.541 107.535 339.541 107.398C339.541 107.169 339.79 106.596 340.896 104.237C341.686 102.565 343.221 99.7477 343.785 98.9919C344.056 98.6025 344.282 98.236 344.282 98.1673C344.282 97.8696 345.997 95.373 347.103 94.0446C347.735 93.2887 348.412 92.3955 348.638 92.0519C349.225 91.1128 355.523 84.7684 355.884 84.7684C356.042 84.7684 356.358 84.5622 356.584 84.3103C356.967 83.8751 359.089 82.3176 362.001 80.3021C362.633 79.8898 364.597 78.7904 366.403 77.8971C370.692 75.7441 370.917 75.6525 371.707 75.4693C372.091 75.3777 372.497 75.2402 372.61 75.1486C372.746 75.057 373.197 74.8967 373.626 74.805C374.055 74.7134 374.552 74.5531 374.755 74.4386C375.251 74.1637 379.36 73.3621 381.075 73.2018C381.888 73.1101 382.745 72.9498 382.994 72.8353C383.716 72.4917 404.641 72.7437 409.088 73.1559C411.164 73.3392 413.083 73.5682 413.354 73.6598C415.182 74.2553 430.351 74.9425 430.825 74.4615C430.938 74.347 431.367 74.2324 431.751 74.2324C432.112 74.2095 433.195 74.0721 434.121 73.866C435.046 73.6827 436.378 73.4308 437.055 73.2934C437.732 73.1789 438.387 72.9727 438.522 72.8353C438.635 72.7208 438.906 72.6292 439.109 72.6292C439.538 72.6292 443.917 71.2091 445.068 70.6823C445.452 70.522 446.355 70.1784 447.1 69.9036C447.845 69.6287 448.748 69.2393 449.086 69.0561C449.447 68.8729 449.831 68.7354 449.967 68.7354C450.08 68.7354 450.554 68.5751 451.005 68.369C453.307 67.3154 453.736 67.1321 454.888 66.6741C456.355 66.0786 458.228 65.1853 462.111 63.2613C463.668 62.5055 465.045 61.8642 465.135 61.8642C465.248 61.8642 466.467 61.3145 467.844 60.6274C469.221 59.9402 470.598 59.2989 470.914 59.2073C471.501 59.047 473.058 58.3369 476.467 56.6878C477.573 56.1381 478.566 55.68 478.634 55.68C478.702 55.68 479.627 55.2678 480.688 54.7639C481.726 54.26 482.697 53.8477 482.855 53.8477C482.99 53.8477 483.284 53.7561 483.51 53.6416C483.713 53.5042 484.548 53.1377 485.361 52.7941C486.173 52.4735 487.031 52.107 487.279 51.9925C487.528 51.9009 488.295 51.5802 488.972 51.3283C490.259 50.8244 491.184 50.4121 492.426 49.8624C492.81 49.6792 493.396 49.473 493.712 49.3814C494.028 49.3127 494.48 49.1524 494.728 49.0378C495.292 48.7859 498.069 47.9842 499.13 47.7781C499.559 47.6865 500.055 47.5262 500.258 47.4116C500.891 47.091 502.606 46.7016 506.014 46.1519C512.29 45.167 521.59 45.4877 525.404 46.8619C528.881 48.0988 530.257 48.6714 532.65 49.9311C535.878 51.6031 536.781 52.1528 537.413 52.7254C537.661 52.9545 537.955 53.1606 538.068 53.1606C538.158 53.1606 538.677 53.5271 539.219 53.9622C539.738 54.3974 540.235 54.7639 540.28 54.7639C540.438 54.7639 541.589 55.7488 544.411 58.3598C547.503 61.2458 551.543 65.5059 552.469 66.9031C552.83 67.4757 553.372 68.1857 553.643 68.5064C553.914 68.8271 554.297 69.3539 554.455 69.6745C556.148 72.904 557.119 74.9654 557.367 75.7212C557.525 76.2251 557.728 76.729 557.819 76.8664C557.909 76.9809 558.067 77.5994 558.157 78.2407C558.248 78.8591 558.406 79.5004 558.496 79.6149C558.722 79.8898 559.083 82.936 559.421 87.4024C559.67 90.7922 559.557 118.048 559.263 119.125C559.196 119.445 559.038 122.056 558.925 124.965C558.834 127.851 558.631 131.058 558.518 132.066C558.383 133.073 558.225 134.974 558.157 136.303C558.067 137.631 557.864 140.105 557.683 141.8C557.322 145.006 557.074 148.098 556.667 154.26C556.374 158.749 556.713 163.284 557.841 170.316C558.202 172.583 558.202 180.806 557.841 182.111C557.683 182.684 557.458 183.6 557.322 184.173C557.187 184.745 557.006 185.295 556.916 185.432C556.825 185.547 556.69 186.051 556.6 186.509C556.509 186.967 556.306 187.654 556.126 187.998C555.945 188.341 555.787 188.799 555.787 189.005C555.787 189.189 555.697 189.441 555.584 189.578C555.494 189.692 555.11 190.609 554.794 191.616C554.455 192.624 554.094 193.54 553.981 193.678C553.891 193.792 553.688 194.457 553.53 195.121C553.394 195.762 553.169 196.358 553.078 196.426C552.966 196.495 552.808 197.045 552.717 197.64C552.65 198.236 552.492 198.831 552.401 198.946C552.13 199.289 551.724 203.32 551.724 205.519C551.747 207.947 552.085 210.673 552.492 211.543C552.672 211.91 552.988 212.688 553.236 213.261C553.688 214.406 555.291 216.994 555.584 217.109C555.697 217.155 555.787 217.315 555.787 217.475C555.787 217.819 557.412 219.445 557.751 219.445C557.909 219.445 558.112 219.582 558.202 219.743C558.406 220.109 560.302 221.438 561.43 222.033C563.868 223.27 569.376 223.682 572.671 222.881C574.59 222.4 577.254 221.232 577.728 220.659C577.863 220.499 578.089 220.361 578.247 220.361C578.631 220.361 582.649 216.353 582.649 215.986C582.649 215.826 582.784 215.528 582.965 215.345C583.574 214.658 584.635 212.23 585.154 210.283C585.628 208.543 585.696 207.855 585.696 204.076C585.696 201.351 585.606 199.679 585.448 199.495C585.312 199.312 585.064 198.465 584.906 197.594C584.748 196.724 584.477 195.739 584.319 195.419C584.138 195.098 584.003 194.663 584.003 194.457C584.003 194.25 583.845 193.769 583.664 193.426C583.484 193.059 583.326 192.601 583.326 192.395C583.326 192.189 583.258 191.96 583.168 191.868C583.055 191.777 582.987 191.616 582.965 191.548C582.942 191.296 582.445 190.036 582.197 189.624C582.062 189.395 581.971 189.097 581.971 188.96C581.971 188.822 581.836 188.387 581.655 187.998C581.136 186.761 580.166 183.531 580.166 182.959C580.166 182.684 580.03 182.294 579.895 182.134C579.511 181.768 579.488 170.774 579.85 169.949C580.211 169.193 580.843 165.116 581.114 161.955C581.384 158.978 581.091 151.213 580.527 145.694C580.346 143.861 580.188 141.8 580.188 141.09C580.166 140.38 580.098 139.738 580.008 139.647C579.895 139.555 579.714 137.402 579.556 134.86C579.398 132.317 579.172 128.882 579.06 127.256C578.608 121.186 578.292 112.299 578.202 102.061C578.111 92.991 578.134 91.1586 578.473 88.8911C578.676 87.4482 578.992 85.7762 579.172 85.1806C579.353 84.5851 579.488 83.9667 579.488 83.7835C579.488 83.6003 579.692 82.9589 579.962 82.3405C580.211 81.7221 580.572 80.8518 580.775 80.4166C581.407 78.882 581.859 78.0116 582.558 76.9809C582.942 76.4083 583.303 75.8128 583.348 75.6525C583.574 74.9654 588.45 69.4226 588.811 69.4226C588.924 69.4226 589.623 68.85 590.391 68.1628C591.136 67.4757 591.858 66.9031 591.971 66.9031C592.084 66.9031 592.49 66.6512 592.897 66.3076C593.98 65.4143 595.921 64.1775 597.434 63.4446C598.179 63.0781 598.946 62.6887 599.127 62.5742C599.713 62.2077 602.332 61.0396 603.754 60.5128C604.499 60.2151 605.311 59.9173 605.56 59.8028C606.508 59.4363 609.668 58.6347 610.751 58.5202C611.383 58.4515 612.083 58.2911 612.332 58.1766C612.873 57.9247 618.923 57.4666 622.038 57.4666C624.972 57.4437 631.135 57.9018 631.857 58.1766C632.173 58.314 633.031 58.4973 633.776 58.6347C635.446 58.9095 637.613 59.505 638.516 59.8944C638.9 60.0777 639.441 60.3067 639.757 60.4441C641.089 60.9709 644.272 62.6429 645.513 63.4675C646.258 63.9714 647.071 64.4524 647.319 64.5669C647.567 64.6814 648.493 65.4601 649.373 66.3076C650.276 67.1321 651.066 67.8193 651.134 67.8193C651.314 67.8193 652.872 69.4684 654.091 70.9113C655.648 72.7895 657.093 75.4006 658.041 78.0116C658.312 78.7675 658.628 79.5462 658.718 79.7524C658.831 79.9356 658.967 80.8289 659.057 81.6992C659.147 82.5696 659.35 83.417 659.486 83.6003C659.802 84.0125 659.779 104.787 659.441 105.222C659.328 105.359 659.17 108.016 659.079 111.108C659.012 114.2 658.786 118.987 658.605 121.759C658.222 127.622 658.177 137.333 658.515 141.113C658.809 144.594 659.35 151.626 659.644 155.886C659.779 157.764 659.982 159.688 660.095 160.123C660.592 161.887 660.05 171.988 659.395 172.835C659.305 172.95 659.147 173.476 659.057 173.98C658.967 174.484 658.831 174.988 658.741 175.125C658.651 175.24 658.447 175.767 658.289 176.271C657.951 177.233 657.093 179.271 656.551 180.348C656.371 180.714 655.964 181.699 655.648 182.523C655.332 183.371 654.994 184.264 654.881 184.516C653.639 187.288 653.165 194.938 654.091 196.861C654.271 197.228 654.429 197.709 654.429 197.915C654.429 198.602 656.01 201.626 657.003 202.839C659.869 206.39 662.398 207.901 666.844 208.726C668.221 208.978 672.397 208.817 672.804 208.497C672.939 208.382 673.436 208.199 673.932 208.13C675.422 207.855 677.905 206.367 679.643 204.695C680.546 203.824 681.291 203.023 681.291 202.908C681.291 202.794 681.517 202.45 681.81 202.152C682.239 201.648 682.713 200.824 683.887 198.373C684.045 198.053 684.248 197.274 684.338 196.655C684.429 196.014 684.587 195.396 684.722 195.235C685.015 194.869 684.812 190.723 684.383 188.524C683.774 185.478 683.3 183.852 682.51 182.272C682.329 181.905 682.194 181.47 682.194 181.264C682.194 180.943 681.742 179.752 681.268 178.859C681.155 178.63 681.065 178.309 681.065 178.126C681.065 177.966 680.907 177.507 680.727 177.164C680.546 176.797 680.388 176.339 680.388 176.133C680.388 175.927 680.23 175.446 680.049 175.103C679.869 174.736 679.711 174.186 679.711 173.866C679.711 173.522 679.621 173.179 679.485 173.041C679.282 172.835 678.943 170.476 678.65 167.338C678.537 166.055 678.672 163.009 679.259 154.626C679.982 144.342 680.207 139.578 680.185 134.814C680.162 128.309 679.801 119.285 679.485 117.292C678.582 111.841 678.131 82.7986 678.853 78.1262C679.056 76.7977 679.327 75.4235 679.463 75.0799C679.598 74.7134 679.711 74.1866 679.711 73.8889C679.711 73.5911 679.869 73.0643 680.049 72.6979C680.23 72.3543 680.591 71.5985 680.862 71.0259C682.216 68.0483 683.842 65.7121 686.099 63.5591C687.024 62.6429 688.085 61.7497 688.424 61.5664C689.936 60.719 691.449 60.0318 691.719 60.0318C691.9 60.0318 692.171 59.8944 692.329 59.7341C692.713 59.3447 701.065 59.3447 701.855 59.7341C702.148 59.8715 703.164 60.2609 704.089 60.5815C705.556 61.0854 706.911 61.7268 709.71 63.2155C710.026 63.3988 710.658 63.8339 711.109 64.1775C711.561 64.544 712.057 64.8417 712.17 64.8417C712.622 64.8417 718.445 70.8884 719.8 72.7437C721.244 74.7363 722.825 77.1413 722.825 77.3474C722.825 77.439 723.118 77.8742 723.457 78.3323C724.292 79.4317 728.242 87.5627 728.242 88.1811C728.242 88.2956 728.377 88.685 728.558 89.0515C729.28 90.5402 729.596 91.3419 729.732 91.9832C729.822 92.3497 729.957 92.7619 730.048 92.8994C730.138 93.0139 730.296 93.4949 730.386 93.93C730.477 94.3652 730.635 94.8691 730.725 95.0753C730.838 95.2585 731.176 96.4953 731.515 97.8238C731.854 99.1522 732.215 100.435 732.328 100.687C732.44 100.939 732.621 101.557 732.734 102.061C733.389 104.855 733.705 105.955 733.863 106.161C733.975 106.298 734.133 106.779 734.224 107.214C734.314 107.65 734.472 108.154 734.562 108.36C734.743 108.703 735.33 110.192 735.375 110.421C735.443 110.833 736.616 113.673 737.181 114.887C737.745 116.078 737.88 116.307 738.896 117.934C739.257 118.483 739.528 119.01 739.528 119.148C739.528 119.468 745.736 125.767 746.074 125.767C746.232 125.767 746.729 126.042 747.18 126.408C748.174 127.187 750.476 128.309 752.282 128.928C756.3 130.302 761.243 130.325 765.103 128.973C768.579 127.76 772.71 125.034 775.351 122.217C777.044 120.43 779.392 117.453 779.775 116.651C779.978 116.216 780.498 115.323 781.965 112.895C782.529 111.979 783.184 110.81 783.432 110.307C783.68 109.803 784.109 109.07 784.38 108.68C784.651 108.291 784.99 107.718 785.125 107.421C785.373 106.871 785.667 106.367 787.111 103.962C788.172 102.198 788.375 101.855 788.511 101.717C788.782 101.466 789.865 99.6561 789.865 99.4729C789.865 99.3812 790.159 98.9461 790.542 98.5109C790.904 98.0757 791.197 97.6176 791.22 97.5031C791.22 97.4115 791.739 96.6786 792.348 95.8769C792.98 95.0753 793.477 94.3652 793.477 94.2736C793.477 94.0675 794.967 92.1435 797.879 88.5934C800 85.9823 803.386 82.4092 805.802 80.2333C807.517 78.6759 810.361 76.2938 810.519 76.2938C810.587 76.2938 811.106 75.9274 811.625 75.4922C812.167 75.057 812.664 74.6905 812.754 74.6905C812.844 74.6905 813.273 74.4157 813.702 74.095C814.943 73.1101 819.593 70.6594 821.467 69.9952C823.092 69.3997 826.41 68.7583 827.2 68.8729C829.683 69.2622 830.699 69.5829 831.625 70.2013C833.182 71.2549 833.679 71.8733 834.694 74.0034C836.568 77.9429 836.568 77.9429 836.884 89.5324C837.019 95.0524 837.132 108.291 837.132 119.01C837.132 136.509 837.11 138.662 836.749 140.197C836.387 141.823 836.117 142.601 835.665 143.403C835.552 143.586 835.394 143.907 835.326 144.09C835.259 144.273 834.649 145.579 833.972 146.999C833.295 148.396 832.753 149.679 832.753 149.862C832.753 150.045 832.663 150.274 832.55 150.389C832.279 150.664 831.173 154.076 831.173 154.603C831.173 154.809 831.038 155.13 830.902 155.267C830.519 155.657 830.496 163.101 830.857 163.582C831.015 163.765 831.196 164.246 831.286 164.681C831.421 165.345 831.986 166.559 832.911 168.185C833.25 168.804 835.959 171.575 836.207 171.575C836.32 171.575 836.703 171.827 837.087 172.148C837.448 172.469 837.922 172.72 838.148 172.72C838.351 172.72 838.645 172.835 838.78 172.972C838.893 173.087 839.818 173.339 840.789 173.522C846.207 174.461 850.789 171.965 853.385 166.628C853.949 165.437 854.423 164.246 854.423 163.948C854.423 163.65 854.491 163.33 854.581 163.238C854.897 162.94 854.987 162.024 854.942 159.78C854.92 157.146 854.671 155.359 854.4 155.794C854.31 155.955 854.242 155.68 854.242 155.176C854.265 154.26 854.175 153.779 853.926 153.366C853.859 153.229 853.723 152.794 853.633 152.382C853.565 151.992 853.339 151.649 853.181 151.649C853.001 151.649 852.798 151.534 852.707 151.374C852.617 151.213 852.64 151.191 852.798 151.282C853.204 151.534 853.136 150.824 852.73 150.412C852.527 150.229 852.414 149.977 852.437 149.885C852.482 149.793 852.233 149.129 851.895 148.442C851.579 147.755 851.24 147.022 851.172 146.839C851.082 146.655 850.789 146.06 850.495 145.51C850.179 144.983 849.886 144.228 849.796 143.861C849.705 143.472 849.57 143.174 849.48 143.174C849.344 143.174 849.186 142.67 848.667 140.655C848.644 140.586 848.554 140.38 848.464 140.151C848.035 139.166 847.809 133.508 847.854 123.935C847.922 100.435 848.215 78.4239 848.464 78.1033C848.599 77.92 848.802 77.1184 848.87 76.2938C848.96 75.4693 849.141 74.6905 849.276 74.5302C849.412 74.3699 849.457 74.2324 849.389 74.2324C849.096 74.2324 850.157 71.0259 851.263 68.6209C851.624 67.8651 851.963 67.0863 852.03 66.9031C852.391 66.0098 853.678 64.063 855.258 62.0474C855.913 61.2 856.454 60.4212 856.454 60.3067C856.454 59.9173 871.127 45.1212 871.736 44.8922C871.962 44.8235 873.61 43.2889 879.298 37.9064C879.885 37.3567 880.427 36.8986 880.517 36.8986C880.585 36.8986 881.578 36.0283 882.706 34.9518C883.835 33.8753 884.851 33.0049 884.941 33.0049C885.054 33.0049 885.889 32.3636 886.815 31.5619C888.53 30.0961 891.307 27.9431 891.758 27.7369C891.916 27.6682 892.39 27.3476 892.819 26.9811C893.27 26.6375 893.699 26.3627 893.767 26.3627C893.88 26.3627 895.234 25.5152 895.844 25.0572C896.137 24.8281 897.311 24.2784 898.891 23.6142C899.568 23.3164 900.449 22.9729 900.81 22.7896C901.532 22.4919 903.225 22.0338 905.776 21.4612C907.581 21.0489 914.985 20.9344 916.136 21.3238C916.52 21.4383 917.649 21.7819 918.642 22.1025C920.651 22.7209 921.847 23.3164 923.473 24.4158C924.059 24.8281 927.897 28.7447 928.235 29.3173C928.416 29.6151 928.913 30.2793 929.296 30.8061C929.703 31.31 930.041 31.8368 930.041 31.9513C930.041 32.0658 930.177 32.3407 930.357 32.5239C930.628 32.8446 931.26 33.944 932.073 35.5473C932.231 35.845 932.456 36.2573 932.569 36.4405C932.66 36.6238 932.818 36.9444 932.885 37.1277C933.066 37.6545 933.901 39.67 934.24 40.4488C934.398 40.8152 934.759 41.7543 935.03 42.5101C935.301 43.266 935.662 44.205 935.82 44.6173C936 45.0067 936.136 45.4877 936.136 45.6709C936.136 45.8771 936.226 46.0832 936.339 46.1519C936.452 46.2206 936.678 46.839 936.813 47.4803C936.971 48.1446 937.174 48.7859 937.264 48.9233C937.377 49.0378 937.513 49.5646 937.603 50.0685C937.693 50.5724 937.851 51.0763 937.942 51.2137C938.1 51.4428 938.303 52.1757 938.98 55.1991C939.161 56.0007 939.386 56.8253 939.499 57.0314C939.612 57.2375 939.77 57.8559 939.86 58.4286C939.951 59.0012 940.109 59.5509 940.199 59.6883C940.289 59.8028 940.447 60.3754 940.537 60.948C940.605 61.5206 940.808 62.2765 940.989 62.6658C941.147 63.0323 941.35 63.9256 941.44 64.6127C941.531 65.2998 941.689 66.0098 941.802 66.216C941.982 66.5595 942.253 67.8651 942.704 70.6823C942.84 71.4381 943.043 72.4001 943.178 72.8124C943.291 73.2476 943.54 74.576 943.72 75.7899C943.901 77.0268 944.194 78.882 944.375 79.9585C944.555 81.035 944.804 82.6841 944.939 83.6232C945.075 84.5622 945.323 86.1197 945.503 87.0588C945.684 87.9979 945.887 89.5553 945.977 90.4944C946.136 92.3955 946.158 92.51 946.361 93.0139C946.429 93.1971 946.61 94.5485 946.745 95.9914C946.88 97.4344 947.129 100.16 947.287 102.061C947.467 103.939 947.716 106.367 947.851 107.444C947.986 108.52 948.144 110.788 948.235 112.482C948.325 114.177 948.46 115.666 948.551 115.804C948.641 115.918 948.799 117.476 948.867 119.239C948.957 121.003 949.115 122.698 949.228 123.018C949.318 123.339 949.521 125.034 949.679 126.798C949.973 130.187 949.995 130.256 950.199 130.806C950.266 130.989 950.379 131.814 950.447 132.615C950.515 133.44 950.673 134.425 950.808 134.791C950.921 135.18 951.169 136.211 951.35 137.104C951.756 139.166 952.14 140.678 952.366 141.113C952.478 141.319 952.636 141.8 952.704 142.189C953.156 144.296 956.632 150.022 958.618 151.946C960.695 153.939 961.62 154.718 963.313 155.84C964.374 156.55 965.322 157.146 965.413 157.146C965.525 157.169 965.999 157.352 966.496 157.604C966.993 157.856 967.557 158.039 967.76 158.062C967.941 158.062 968.212 158.176 968.347 158.314C969.25 159.23 976.902 159.642 979.927 158.909C980.852 158.703 981.823 158.428 982.071 158.337C982.568 158.108 986.066 156.344 987.353 155.68C988.369 155.13 993.922 149.541 993.922 149.06C993.922 148.877 994.057 148.671 994.215 148.602C994.463 148.511 996.563 144.457 997.33 142.601C997.646 141.823 998.369 139.441 998.549 138.593C998.639 138.158 998.797 137.654 998.91 137.448C999.136 137.013 999.949 133.073 1000.22 130.92C1000.35 130.027 1000.56 128.79 1000.67 128.172C1000.78 127.53 1000.9 126.431 1000.9 125.721C1000.92 125.011 1001.01 124.37 1001.12 124.301C1001.24 124.232 1001.39 123.156 1001.48 121.942C1001.57 120.705 1001.73 119.17 1001.84 118.552C1001.96 117.911 1002.14 116.33 1002.27 115.002C1002.39 113.673 1002.59 112.23 1002.7 111.795C1002.82 111.36 1003.02 109.963 1003.15 108.703C1003.56 105.039 1003.94 102.29 1004.87 96.6786C1005.19 94.7317 1005.64 92.3726 1005.86 91.5251C1005.98 91.0212 1006.29 89.6241 1006.56 88.433C1006.81 87.242 1007.13 86.051 1007.24 85.7991C1007.35 85.5471 1007.53 84.8829 1007.67 84.3103C1008.12 82.2718 1008.39 81.2182 1008.57 80.7601C1008.68 80.5082 1008.91 79.844 1009.07 79.2714C1009.23 78.6988 1009.43 78.1262 1009.52 78.0116C1009.61 77.8742 1009.75 77.3703 1009.86 76.8893C1009.95 76.3854 1010.15 75.7212 1010.31 75.4006C1010.49 75.0799 1010.63 74.6218 1010.63 74.4157C1010.63 74.2095 1010.72 73.9805 1010.83 73.8889C1010.94 73.8202 1011.12 73.4308 1011.21 73.0185C1011.28 72.6292 1011.55 71.8733 1011.78 71.3694C1012 70.8655 1012.39 69.9265 1012.66 69.308C1013.76 66.7199 1016.34 61.3145 1017.19 59.8028C1017.6 59.1157 1018.19 58.0163 1018.53 57.3979C1019.45 55.6342 1020.38 54.1226 1021.19 53.0232C1021.57 52.4964 1021.91 51.9696 1021.91 51.878C1021.91 51.7863 1022.27 51.2824 1022.7 50.7327C1023.13 50.2059 1023.49 49.6562 1023.49 49.5188C1023.49 49.1524 1030.51 41.9833 1031.17 41.7085C1031.48 41.5711 1032.14 41.2046 1032.63 40.9068C1033.31 40.5175 1033.9 40.3571 1034.94 40.3571C1036.27 40.3342 1036.43 40.38 1037.26 41.1588C1038.25 42.075 1038.98 43.495 1039.34 45.2586C1039.47 45.8771 1039.65 46.61 1039.77 46.8619C1040.42 48.3278 1040.6 54.8326 1040.42 69.9952C1040.4 72.6292 1040.44 77.7139 1040.53 81.2869C1040.62 85.2952 1040.6 87.8833 1040.47 88.0437C1040.35 88.204 1040.2 88.7308 1040.11 89.2347C1039.95 90.2425 1039.52 91.319 1037.98 94.6172C1036.49 97.8238 1036.38 98.0986 1036.22 98.8544C1036.13 99.2209 1035.97 99.6561 1035.88 99.7935C1035.77 99.9309 1035.59 100.801 1035.43 101.74C1035.3 102.679 1035.09 103.802 1034.96 104.237C1034.69 105.199 1034.82 107.787 1035.23 109.39C1035.55 110.627 1036.61 112.78 1037.28 113.536C1037.51 113.788 1037.71 114.109 1037.71 114.223C1037.71 114.498 1039.56 116.376 1039.83 116.376C1039.92 116.376 1040.4 116.674 1040.85 117.04C1042.05 118.002 1044.89 118.758 1046.63 118.575C1048.23 118.415 1049.56 117.979 1050.87 117.155C1051.98 116.445 1053.96 114.567 1053.96 114.2C1053.96 114.04 1054.21 113.696 1054.53 113.399C1054.85 113.101 1055.09 112.757 1055.09 112.643C1055.09 112.505 1055.34 111.887 1055.64 111.246C1056.79 108.795 1056.92 105.016 1056 101.878C1055.77 101.099 1055.52 100.183 1055.45 99.8164C1055.36 99.4729 1055.21 99.198 1055.09 99.198C1054.96 99.198 1054.87 99.0377 1054.87 98.8315C1054.87 98.6254 1054.66 98.0299 1054.44 97.5031C1053.36 95.1669 1053.06 94.4568 1053.06 94.2049C1053.06 94.0446 1052.97 93.93 1052.84 93.93C1052.72 93.93 1052.61 93.8155 1052.61 93.701C1052.61 93.5636 1052.41 93.0368 1052.18 92.5329C1051.93 92.029 1051.66 91.2961 1051.59 90.8838C1051.5 90.4715 1051.35 90.0363 1051.23 89.9218C1051.14 89.7844 1050.92 88.7308 1050.78 87.5856C1050.56 85.9594 1050.56 83.9438 1050.76 78.4239C1050.92 74.5531 1051.03 66.8115 1051.03 61.2458C1051.03 55.6571 1051.12 51.0763 1051.23 51.0076C1051.35 50.9389 1051.5 49.8853 1051.59 48.6943C1051.69 47.5033 1051.84 46.4726 1051.93 46.4039C1052.05 46.3351 1052.2 45.5793 1052.27 44.7318C1052.36 43.8844 1052.52 43.0827 1052.61 42.9682C1052.72 42.8308 1052.86 42.3498 1052.95 41.8688C1053.13 40.8839 1054.06 38.0896 1054.28 37.8835C1054.35 37.7919 1054.42 37.5857 1054.42 37.4025C1054.42 37.0131 1054.8 36.1428 1056.15 33.3485C1057.15 31.2871 1057.37 30.8519 1057.8 30.0732C1057.94 29.867 1058.16 29.4319 1058.3 29.1112C1058.46 28.7905 1058.64 28.4928 1058.73 28.4241C1058.8 28.3554 1059.18 27.8744 1059.54 27.3247C1060.96 25.332 1064.08 21.8735 1065.27 20.9573C1065.59 20.7283 1066.56 19.9724 1067.4 19.2853C1068.98 17.9798 1069.47 17.6591 1071.57 16.6284C1073.51 15.6664 1074.21 15.3687 1074.55 15.3687C1074.73 15.3687 1075 15.2313 1075.14 15.0709C1075.54 14.6816 1082.11 14.6816 1082.88 15.0709C1083.17 15.2313 1083.67 15.4603 1083.99 15.5977C1086.15 16.491 1088.52 19.5831 1090.28 23.8432C1090.42 24.1639 1090.62 24.5762 1090.74 24.7594C1090.85 24.9426 1091.16 25.7214 1091.44 26.4772C1091.73 27.2331 1092.02 28.0118 1092.11 28.195C1092.2 28.4012 1092.36 28.9051 1092.45 29.3402C1092.54 29.7754 1092.7 30.2793 1092.81 30.4854C1093.11 31.081 1093.87 33.2798 1094.37 35.0663C1094.64 36.0054 1094.96 36.9902 1095.05 37.2422C1095.34 37.9293 1096.18 40.8381 1096.18 41.113C1096.18 41.2504 1096.31 41.6398 1096.49 41.9833C1096.67 42.3269 1096.88 42.9224 1096.97 43.3347C1097.06 43.7699 1097.21 44.2509 1097.3 44.457C1097.51 44.8235 1098.93 49.3127 1099.79 52.2444C1100.06 53.1835 1100.37 54.1684 1100.46 54.4203C1100.58 54.6723 1100.76 55.3365 1100.89 55.9091C1101.23 57.4208 1101.64 58.9324 1101.84 59.4592C1102 59.8715 1102.25 60.719 1102.97 63.582C1103.11 64.0859 1103.31 64.7043 1103.4 64.9562C1103.69 65.6434 1104.51 68.5064 1104.66 69.4226C1104.75 69.8577 1104.89 70.3158 1105 70.4533C1105.09 70.5678 1105.23 71.0946 1105.32 71.5985C1105.41 72.1024 1105.57 72.6062 1105.66 72.7437C1105.77 72.8582 1105.9 73.4766 1105.99 74.1179C1106.09 74.7363 1106.24 75.4235 1106.36 75.6067C1106.45 75.8128 1106.74 77.6223 1107.01 79.6149C1107.48 83.2567 1107.48 83.5544 1107.35 113.055C1107.19 143.999 1107.15 145.35 1106.22 147.64C1105.75 148.854 1104.46 151.511 1104.28 151.649C1104.21 151.717 1103.85 152.29 1103.49 152.931C1102.38 154.901 1101.55 156.321 1101.12 156.962C1100.87 157.306 1100.69 157.741 1100.69 157.901C1100.69 158.085 1100.53 158.36 1100.35 158.52C1100.17 158.68 1100.01 158.955 1100.01 159.115C1100.01 159.39 1099.45 160.81 1098.86 162.001C1098.77 162.207 1098.57 163.284 1098.41 164.406C1098.27 165.506 1098.07 166.651 1097.96 166.949C1097.69 167.636 1097.71 169.125 1097.96 170.178C1098.07 170.636 1098.27 171.667 1098.43 172.469C1098.57 173.27 1098.77 174.095 1098.88 174.301C1099 174.507 1099.36 175.24 1099.67 175.95C1100.92 178.721 1105.16 182.638 1107.73 183.371C1108.03 183.44 1108.46 183.6 1108.7 183.714C1109.52 184.081 1111.53 184.402 1112.95 184.402C1114.57 184.402 1117.24 184.035 1117.8 183.737C1118 183.623 1118.79 183.233 1119.54 182.89C1121.93 181.722 1125.48 177.714 1126.08 175.469C1126.17 175.148 1126.4 174.553 1126.58 174.118C1127.17 172.789 1127.06 166.33 1126.42 166.124C1126.29 166.078 1126.24 165.712 1126.31 165.208C1126.4 164.567 1126.38 164.475 1126.22 164.819C1126.06 165.139 1125.99 165.185 1125.99 164.933C1125.97 164.727 1125.77 164.154 1125.52 163.673C1125.25 163.147 1125.16 162.734 1125.29 162.688C1125.41 162.643 1125.52 162.459 1125.52 162.276C1125.52 161.772 1123.49 157.604 1123.24 157.604C1123.13 157.604 1123.04 157.466 1123.04 157.306C1123.04 157.146 1122.9 156.825 1122.74 156.596C1122.47 156.229 1122.45 156.275 1122.5 157.054C1122.54 157.993 1122.79 159.161 1123.01 159.551C1123.08 159.665 1123.15 159.94 1123.2 160.123C1123.22 160.306 1123.35 160.49 1123.47 160.535C1123.6 160.581 1123.71 160.787 1123.71 160.994C1123.71 161.291 1123.6 161.245 1123.24 160.81C1122.63 160.032 1120.78 156.321 1120.78 155.863C1120.78 155.336 1121.32 155.611 1121.41 156.184C1121.5 156.802 1122.07 156.848 1122.25 156.229C1122.43 155.657 1122.18 155.245 1121.77 155.405C1121.57 155.497 1121.28 155.245 1121.01 154.786C1120.51 153.985 1120.42 153.595 1120.78 153.825C1121.01 153.962 1120.83 153.252 1120.58 153.023C1120.37 152.84 1119.43 150.939 1119.43 150.71C1119.43 150.595 1119.22 150.068 1119 149.519C1118.32 148.03 1118.03 146.495 1117.87 143.701C1117.8 142.304 1117.8 127.76 1117.87 111.406C1118 82.455 1118.12 77.8284 1118.75 76.7061C1118.86 76.5 1119.02 75.7899 1119.11 75.1028C1119.2 74.4386 1119.34 73.7744 1119.43 73.6598C1119.52 73.5224 1119.67 72.9727 1119.76 72.4001C1119.85 71.8275 1120.03 71.1633 1120.15 70.9342C1120.37 70.522 1120.51 69.9494 1121.23 66.7886C1121.37 66.1473 1121.55 65.483 1121.62 65.2998C1121.8 64.8188 1122.07 63.7652 1122.92 59.9173C1123.1 59.1615 1123.44 57.6727 1123.69 56.5962C1123.96 55.5197 1124.28 54.008 1124.39 53.2064C1124.53 52.4047 1124.71 51.5802 1124.82 51.3741C1124.91 51.1679 1125.07 50.4121 1125.16 49.725C1125.25 49.0378 1125.41 48.3736 1125.5 48.2362C1125.61 48.1217 1125.79 47.2284 1125.95 46.2893C1126.08 45.3503 1126.36 44.1592 1126.54 43.6553C1126.72 43.1515 1126.85 42.3498 1126.87 41.8917C1126.87 41.4336 1126.96 40.9985 1127.08 40.9297C1127.17 40.861 1127.33 40.2655 1127.42 39.6013C1127.51 38.9371 1127.66 38.2958 1127.78 38.1583C1127.89 38.0438 1128.09 37.0589 1128.23 35.9824C1128.36 34.9289 1128.54 33.944 1128.61 33.8295C1128.68 33.7149 1128.88 32.9591 1129.04 32.1804C1129.47 30.1877 1129.9 28.2179 1130.49 25.9046C1130.76 24.8281 1131.05 23.4997 1131.19 22.95C1131.3 22.4003 1131.48 21.8277 1131.59 21.6902C1131.71 21.5528 1131.86 21.026 1131.95 20.5221C1132.04 20.0182 1132.16 19.4456 1132.22 19.2624C1132.4 18.7814 1132.4 18.8501 1132.7 17.3155C1132.86 16.5597 1133.06 15.781 1133.17 15.5977C1133.29 15.3916 1133.44 14.7045 1133.53 14.0402C1133.62 13.376 1133.78 12.8034 1133.89 12.7118C1134.01 12.6431 1134.1 12.2995 1134.1 11.956C1134.1 11.6124 1134.26 10.7649 1134.46 10.0778C1134.66 9.39069 1134.98 8.22258 1135.14 7.46674C1135.68 4.90147 1135.95 3.80207 1136.13 3.57303C1136.22 3.4356 1136.38 2.81719 1136.45 2.19877C1136.54 1.55746 1136.67 0.824522 1136.74 0.526768L1136.85 0.0228756H1127.26H1117.64L1117.53 0.75581C1117.28 2.45072 1117.1 6.57347 1116.97 14.9106L1116.81 23.7287L1116.15 25.1717C1115.29 27.1414 1114.17 27.6911 1113.15 26.6604C1112.99 26.5001 1112.68 26.2482 1112.47 26.0878C1111.98 25.6985 1111.01 23.7974 1110.62 22.469C1110.46 21.8964 1110.26 21.1405 1110.15 20.7741C1110.04 20.4076 1109.95 19.8121 1109.95 19.4456C1109.95 19.0792 1109.85 18.5753 1109.72 18.3462C1109.54 17.9798 1109.47 16.491 1109.52 12.6202C1109.52 11.6582 1109.67 11.0856 1110.22 10.032C1110.33 9.80297 1110.35 9.52811 1110.28 9.41359C1110.19 9.27617 1110.26 9.18455 1110.4 9.18455C1110.53 9.18455 1110.58 9.07003 1110.49 8.93261C1110.42 8.79518 1110.44 8.61195 1110.58 8.52033C1110.71 8.42871 1110.85 7.87901 1110.89 7.2835C1110.94 6.61928 1111.07 6.20701 1111.25 6.20701C1111.39 6.20701 1111.53 6.09249 1111.53 5.95506C1111.53 5.84054 1111.43 5.79473 1111.3 5.86344C1110.96 6.06958 1111.03 5.77183 1111.39 5.40536C1111.55 5.22213 1111.71 4.69533 1111.71 4.21434C1111.71 3.73335 1111.82 3.09204 1111.93 2.77138C1112.04 2.45072 1112.16 1.71779 1112.18 1.09937L1112.25 0.0228756H1092.79C1073.85 0.0228756 1073.35 0.0228756 1073.49 0.458055C1073.58 0.778714 1073.38 1.05356 1072.54 1.60326C1070.26 3.13785 1059.18 8.26838 1058.16 8.26838C1057.85 8.26838 1057.58 8.15386 1057.58 7.99353C1057.58 7.85611 1058.41 6.89413 1059.45 5.88635C1060.47 4.85566 1061.62 3.61883 1062.02 3.09204C1062.72 2.17587 1063.31 0.59548 1063.08 0.206109C1063.02 0.114492 1059.43 0.0228756 1055.09 0.0228756H1047.19L1046.81 0.641289C1045.84 2.17587 1044.39 3.9624 1043.27 5.01599C1040.92 7.16898 1038.73 7.76449 1037.49 6.55057C1036.49 5.58859 1035.68 3.29817 1035.68 1.51165V0.0228756L1021.53 0.068684L1007.35 0.137397L1007.08 1.28261C1006.92 1.90102 1006.72 3.4585 1006.65 4.71823C1006.47 7.39803 1005.73 9.36779 1004.42 10.5359C1002.97 11.8185 1002.03 11.6811 1000.72 10.032C999.587 8.58904 999.271 7.00865 999.407 3.68755C999.475 2.10716 999.587 0.641289 999.678 0.412247C999.836 0.0457798 998.459 0.0228756 972.929 0.0228756H946.023L947.716 1.85521C949.228 3.50431 952.253 7.60416 953.426 9.57392C953.652 9.9862 954.465 11.3146 955.187 12.5515C957.873 17.0178 960.559 22.9271 962.749 29.1112C963.404 30.9435 964.126 32.9133 964.374 33.5088C964.939 34.9289 964.939 35.6389 964.352 34.4937C964.103 33.9898 963.9 33.4172 963.9 33.1881C963.9 32.9591 963.765 32.7988 963.629 32.8217C963.471 32.8675 963.313 32.6384 963.268 32.3178C963.223 31.9971 963.11 31.6994 963.02 31.6307C962.772 31.4245 960.966 28.5157 960.966 28.2866C960.966 28.1721 960.559 27.5995 960.063 27.0498C959.544 26.4772 958.979 25.7672 958.754 25.4465C958.55 25.1259 958.189 24.7365 957.964 24.5533C957.738 24.3929 957.602 24.1181 957.67 23.9578C957.738 23.7745 957.625 23.7058 957.332 23.7745C957.106 23.8432 956.677 23.7516 956.383 23.5455C955.977 23.2706 955.842 23.2706 955.593 23.5226C955.458 23.6829 955.323 24.0265 955.323 24.2555C955.323 24.5075 955.187 24.8281 955.007 24.9884C954.826 25.1259 954.736 25.4007 954.803 25.6069C954.894 25.813 954.781 26.042 954.578 26.1795C954.352 26.294 954.194 26.523 954.194 26.7063C954.194 26.8666 954.104 27.0498 953.968 27.0956C953.855 27.1185 953.72 27.5766 953.652 28.0576C953.584 28.5615 953.404 29.0425 953.246 29.1341C952.388 29.6838 952.727 35.5702 953.765 37.5857C953.991 38.0438 954.262 39.0287 954.397 39.8074C954.51 40.5633 954.713 41.3878 954.826 41.6169C954.961 41.8688 955.165 42.4643 955.277 42.9682C955.413 43.4721 955.729 44.6631 956 45.6022C956.248 46.5413 956.519 47.5262 956.564 47.7781C956.609 48.03 956.948 49.1753 957.332 50.3434C957.715 51.5115 958.031 52.6109 958.031 52.817C958.031 53.0232 958.234 53.7561 958.483 54.489C958.934 55.7488 959.882 59.9631 960.289 62.5513C960.492 63.7194 960.605 66.9718 960.537 69.0561C960.514 69.9265 960.492 69.9494 960.085 69.56C959.589 69.1019 958.212 64.9104 955.435 55.3365C955.142 54.3287 954.803 52.9315 954.645 52.2444C953.923 48.8088 952.998 46.0832 950.627 40.5633C950.018 39.1203 949.205 37.0589 948.822 35.9824C948.438 34.9059 947.761 33.0278 947.309 31.791C945.865 27.7599 944.894 26.1337 941.35 22.0109C940.312 20.8199 938.935 19.1021 938.28 18.2317C936.7 16.1016 935.639 15.048 933.879 13.8799C931.937 12.5973 929.838 11.5437 926.542 10.2152C923.021 8.79518 921.938 8.22258 921.17 7.42093C920.335 6.50476 920.403 5.56569 921.418 4.44338C922.276 3.4585 922.908 2.15297 923.111 0.870331L923.247 0.0228756H918.394H913.563V1.28261C913.563 2.74847 913.112 4.0082 912.48 4.35177C912.209 4.48919 911.667 4.60371 911.216 4.60371C910.177 4.60371 909.5 3.75626 909.5 2.42782C909.5 1.90102 909.432 1.12228 909.365 0.732906L909.229 0.0228756H902.119C895.46 0.0228756 895.031 0.0457798 895.144 0.412247C895.212 0.641289 895.325 1.2368 895.415 1.74069C895.55 2.67976 896.047 4.48919 896.453 5.58859C896.589 5.93216 896.995 6.43605 897.333 6.688C899.004 7.87901 897.537 9.61973 893.564 11.0856C893.09 11.2688 891.848 11.7498 890.81 12.1392C888.778 12.9179 888.282 13.0096 888.282 12.5515C888.282 12.2308 889.952 10.4901 891.194 9.52811C891.69 9.13874 892.187 8.61195 892.322 8.31419C892.458 8.03934 892.661 7.8103 892.796 7.8103C893.158 7.8103 893.067 6.02377 892.661 5.40536C892.458 5.10761 892.368 4.74114 892.435 4.62662C892.526 4.5121 892.48 4.35177 892.345 4.26015C892.21 4.16853 892.164 4.0082 892.232 3.89368C892.322 3.77916 892.255 3.68755 892.142 3.68755C892.006 3.68755 891.893 3.48141 891.893 3.25237C891.893 3.02332 891.6 2.49653 891.239 2.10716C890.878 1.71779 890.517 1.07647 890.426 0.710001L890.268 0.0228756H853.52H816.749L817.404 1.48874C818.848 4.76404 821.128 8.38291 822.979 10.261C824.875 12.2308 826.072 13.1241 828.239 14.2235C832.686 16.4681 834.649 17.682 837.335 19.9037C839.638 21.7819 841.331 22.95 843.024 23.7974C846.026 25.3091 847.267 25.6527 850.292 25.7901C852.82 25.9046 853.791 26.0878 854.017 26.4543C854.626 27.3934 853.791 28.9051 850.382 33.1194C849.254 34.4937 847.809 36.4176 847.155 37.3567C846.523 38.2958 845.552 39.6013 845.01 40.2884C844.468 40.9527 844.04 41.5711 844.04 41.6856C844.04 41.9833 845.439 43.5408 845.71 43.5408C845.868 43.5408 846.207 43.7699 846.477 44.0447C847.99 45.6938 850.337 46.2893 852.753 45.6251C854.852 45.0525 857.583 42.5101 859.118 39.7158C859.479 39.0516 861.127 37.8148 861.624 37.8148C861.827 37.8148 862.143 37.9064 862.323 38.0438C862.752 38.3187 862.165 39.1432 859.728 41.7543C858.734 42.8079 857.606 44.0905 857.222 44.5944C856.816 45.0754 855.868 46.3122 855.078 47.32C851.601 51.7405 847.267 55.3365 844.243 56.3214C840.902 57.4208 838.712 57.5124 832.437 56.894C826.884 56.3672 824.921 56.7107 818.645 59.4592C817.404 59.986 815.327 60.8106 814.018 61.2458C809.187 62.8949 807.201 63.811 802.393 66.6741C798.939 68.7354 797.946 69.2622 797.134 69.4455L796.321 69.6287L797.472 68.5293C798.623 67.4299 800.362 66.1931 803.183 64.4753C805.079 63.3071 807.923 60.5128 807.923 59.7799C807.923 59.4821 807.991 59.0012 808.059 58.7492C808.149 58.4056 808.014 58.085 807.54 57.6498C807.201 57.3292 806.84 57.0543 806.75 57.0543C806.434 57.0543 805.485 56.0007 805.011 55.1303C804.379 54.008 804.018 52.0154 804.199 50.8473C804.402 49.7021 805.327 48.7859 807.517 47.6178C808.42 47.1368 809.233 46.7474 809.323 46.7474C809.436 46.7474 810.158 46.4268 810.925 46.0603C811.716 45.6709 812.438 45.3732 812.528 45.3732C812.618 45.3732 812.98 45.1441 813.318 44.8922C813.679 44.6173 814.086 44.4799 814.199 44.5486C814.334 44.6402 814.515 44.5715 814.627 44.4112C814.718 44.2509 815.124 43.9302 815.485 43.7241C815.869 43.5179 816.207 43.1515 816.253 42.9224C816.298 42.7163 816.501 42.3956 816.704 42.2353C816.975 42.0292 816.998 41.8917 816.794 41.7543C816.501 41.5711 816.659 40.5633 816.975 40.5633C817.088 40.5633 817.178 40.4488 817.178 40.3342C817.178 40.1968 816.93 40.1052 816.614 40.1052C816.298 40.1052 816.049 40.2197 816.049 40.3342C816.049 40.4946 815.891 40.4946 815.575 40.3113C815.101 40.0594 813.25 40.1968 808.713 40.7923C807.856 40.9068 806.524 41.0443 805.779 41.113C803.07 41.342 795.734 44.1134 790.768 46.7932C784.177 50.3434 781.288 52.4047 778.782 55.2907C776.277 58.1766 775.148 59.757 771.04 66.3305L769.324 69.1019V70.9113C769.324 71.9191 769.279 73.2018 769.234 73.7744C768.986 76.019 769.076 85.8907 769.324 86.3717C769.46 86.6465 769.55 87.0817 769.505 87.3794C769.46 87.7001 769.685 88.1353 770.069 88.5247C770.566 89.0286 770.972 89.1889 772.259 89.3263C774.719 89.5783 775.374 90.5173 774.742 92.7848C773.906 95.7166 769.64 100.229 766.728 101.282C765.148 101.832 764.2 101.832 761.965 101.236C758.083 100.206 754.155 96.816 750.724 91.548C749.776 90.105 749.009 88.8911 749.009 88.8224C749.009 88.6392 747.338 85.9136 746.029 83.9438C744.923 82.2489 742.666 79.1797 740.205 75.9503C739.619 75.1715 738.219 73.1559 737.068 71.4381C734.653 67.7964 731.718 64.3836 728.581 61.5664C722.238 55.8633 717.994 53.1377 711.087 50.2976C709.665 49.7021 708.107 49.0149 707.633 48.7401C706.663 48.1904 706.595 47.5949 707.52 47.4803C707.836 47.4345 708.288 47.2055 708.491 46.9765C708.852 46.5871 708.83 46.4726 707.994 45.2128C707.498 44.4799 707.046 43.7012 706.956 43.4721C706.888 43.266 706.663 43.0827 706.482 43.0827C706.324 43.0827 706.121 42.9224 706.031 42.7392C705.963 42.5559 705.805 42.3956 705.692 42.3956C705.444 42.3956 704.112 41.5253 703.186 40.7694C702.87 40.5175 702.509 40.2426 702.374 40.151C702.013 39.8991 701.155 37.9522 701.019 37.0818C700.861 36.0741 701.539 34.8372 702.532 34.3563C702.961 34.1272 704.405 33.7378 705.782 33.4401C707.678 33.0278 708.378 32.7759 708.762 32.3636C709.439 31.6307 709.1 31.1268 707.723 30.7603C706.211 30.348 703.096 29.6838 701.155 29.3402C700.229 29.1799 698.491 28.8593 697.295 28.6073C693.661 27.8744 691.787 27.9889 686.37 29.2715C683.864 29.867 682.916 30.5313 680.907 33.1194C679.937 34.3792 678.311 36.4405 677.341 37.6774C673.413 42.6247 671.224 46.0603 671.043 47.6178C670.885 48.7401 671.427 56.642 671.698 57.3292C671.788 57.5582 672.036 57.7414 672.262 57.7414C672.51 57.7414 672.758 57.833 672.826 57.9705C672.894 58.085 673.165 58.1995 673.39 58.1995C673.932 58.1995 674.519 59.047 674.361 59.5509C673.842 60.9938 671.404 62.8491 669.689 63.101C667.544 63.4446 664.632 62.1848 661.427 59.5967C657.274 56.2297 656.145 55.4739 652.849 53.779C650.931 52.7941 648.967 51.7176 648.515 51.4199C647.59 50.7556 646.981 49.6562 646.981 48.6256C646.981 48.2362 646.845 47.7781 646.687 47.6178C646.529 47.4574 646.01 46.7474 645.536 46.0603C644.543 44.6402 644.272 44.4112 642.353 43.3576C641.608 42.9453 640.638 42.3498 640.209 42.075C639.78 41.7772 638.764 41.1359 637.951 40.6549C635.988 39.4639 634.588 37.8606 634.566 36.7383C634.566 36.4405 634.836 36.0512 635.243 35.7534C635.852 35.3182 636.123 35.2724 638.674 35.364C640.209 35.4328 642.015 35.5473 642.692 35.6389C643.369 35.7076 644.407 35.7992 645.017 35.8221C645.604 35.8221 646.078 35.9366 646.078 36.0283C646.078 36.1428 646.935 36.2115 647.996 36.1886C649.057 36.1657 649.915 36.0512 649.915 35.9366C649.915 35.6389 649.215 34.6082 649.012 34.6082C648.922 34.6082 648.403 34.1959 647.861 33.692C645.4 31.4474 645.513 31.5849 645.92 31.3787C646.507 31.0352 650.66 31.791 653.775 32.7759C655.332 33.2798 656.98 33.692 657.432 33.692C658.199 33.692 658.267 33.6462 658.515 32.7072C658.718 31.9742 658.718 31.1497 658.515 29.3402C658.38 28.0118 658.222 25.3778 658.154 23.4997C658.086 21.5986 657.973 19.0792 657.906 17.8881C657.635 13.0096 656.1 9.16165 651.292 1.16809L650.682 0.137397L645.107 0.068684L639.532 0.0228756L640.389 1.7865C642.692 6.45895 642.782 6.84832 642.105 9.50521C641.541 11.7269 641.247 11.6811 639.599 9.09294C638.087 6.7338 637.5 5.56569 637.139 4.14563C636.733 2.56524 636.733 1.37422 637.161 0.801618C637.342 0.572576 637.5 0.297726 637.5 0.183205C637.5 -0.0458369 599.713 -0.0229327 599.443 0.229013C598.856 0.778714 596.373 1.44294 594.431 1.55746C592.377 1.69488 592.332 1.67198 590.684 0.847427L589.014 0.0228756L574.048 0.068684L559.083 0.137397L560.098 0.801618C563.53 3.11494 566.08 7.10027 567.412 12.2766C568.112 14.9335 568.067 16.0787 567.231 16.9262C566.735 17.4301 566.487 17.4759 565.155 17.453C564.32 17.4301 563.552 17.3613 563.439 17.2926C563.236 17.1781 560.053 16.5597 558.496 16.3536C555.945 16.0329 551.589 14.2464 548.564 12.2766C546.126 10.6962 545.268 10.0778 542.424 7.87901C538.7 4.99309 538.09 4.37467 536.826 2.01554L535.788 0.137397L481.704 0.068684L427.597 0.0228756L428.884 1.35132C429.584 2.08425 430.283 2.84009 430.419 3.02332C431.389 4.35177 433.173 7.2835 433.827 8.61195C434.256 9.48231 434.685 10.3985 434.82 10.6046C435.091 11.1543 435.069 11.704 434.775 11.704C434.64 11.704 434.572 11.8414 434.64 12.0247C434.708 12.2079 434.55 12.5744 434.301 12.8263C433.94 13.2386 433.714 13.3073 433.15 13.1699C432.744 13.1012 432.405 12.9408 432.36 12.8263C432.315 12.7118 432.021 12.6889 431.728 12.7576C431.389 12.8492 431.186 12.8034 431.186 12.6431C431.186 12.5057 431.051 12.3911 430.893 12.3911C430.735 12.3911 430.441 12.185 430.216 11.9331C430.012 11.6811 429.696 11.475 429.538 11.475C429.38 11.475 429.087 11.2917 428.906 11.0627C427.868 9.87168 425.656 8.19967 423.805 7.21479C423.399 6.98575 423.06 6.7338 423.06 6.61928C423.06 6.52767 422.857 6.43605 422.631 6.43605C422.383 6.43605 422.135 6.34443 422.067 6.25282C421.999 6.13829 421.051 5.77183 419.968 5.42826C418.884 5.0847 416.266 4.16853 414.144 3.4127C412.045 2.63395 409.607 1.83231 408.726 1.60326C407.869 1.35132 406.266 0.916139 405.183 0.59548L403.219 0.0228756H354.056L304.892 0.0457798L306.901 1.99264C308.007 3.04623 309.113 3.9624 309.384 4.0082C311.845 4.48919 312.725 4.69533 313.696 5.0618C314.328 5.29084 315.253 5.6115 315.795 5.74892C317.127 6.09249 319.745 7.44383 321.416 8.63485C324.576 10.9253 324.643 12.5973 321.619 14.109C320.558 14.6357 319.971 14.7274 316.833 14.9335C312.725 15.1855 311.89 15.0709 308.504 13.8341C305.389 12.6889 302.974 11.2688 302.974 10.5359C302.974 10.4214 303.267 10.261 303.651 10.1694C304.012 10.1007 304.328 10.0091 304.328 9.94039C304.328 9.89458 304.08 9.50521 303.764 9.09294C303.448 8.68066 303.199 8.24548 303.199 8.13096C303.199 8.01644 302.319 7.35222 301.258 6.66509C300.197 5.97797 297.827 4.19144 296.021 2.72557L292.703 0.0457798H264.149C237.22 0.0457798 235.617 0.068684 236.159 0.435151C238.123 1.7865 240.064 4.44338 240.696 6.59638C241.012 7.76449 240.741 9.00132 239.974 9.84877C239.522 10.3527 239.364 10.3756 237.649 10.2381C236.339 10.1236 235.482 10.1923 234.579 10.4443C232.999 10.8795 231.351 10.8795 230.538 10.4672C229.748 10.032 228.484 8.47452 227.717 6.96285C227.197 5.88635 227.152 5.6344 227.333 4.35177C227.491 3.16075 227.626 2.84009 228.304 2.22168C229.003 1.58036 229.838 0.458055 229.838 0.137397C229.838 0.068684 174.536 0.0228756 106.931 0.0228756H-16L-15.6163 0.75581ZM178.847 9.07003C179.163 9.09294 179.524 9.16165 179.637 9.23036C179.75 9.29907 180.359 9.48231 180.969 9.64264C181.601 9.80297 182.346 10.1465 182.639 10.3756C182.933 10.6046 183.407 10.7878 183.677 10.7878C183.948 10.7878 184.309 10.9482 184.467 11.1314C184.625 11.3375 185.28 11.7498 185.912 12.0705C186.95 12.5973 188.847 13.7196 189.975 14.4983C190.404 14.7961 194.399 18.8272 195.122 19.6976C195.483 20.1328 196.499 21.6215 196.995 22.4461C197.108 22.6522 197.492 23.2477 197.83 23.7745C198.169 24.3013 198.462 24.851 198.462 25.0343C198.462 25.1946 198.666 25.4694 198.914 25.6069C199.162 25.7672 199.523 26.2253 199.704 26.5917C199.907 26.9811 200.246 27.5079 200.449 27.7369C201.871 29.3173 203.225 32.5468 204.106 36.3031C205.076 40.5633 205.257 42.3956 205.392 49.0607C205.528 56.0465 205.302 58.6347 204.309 61.5664C203.541 63.8797 203.18 63.9714 201.329 62.2994C199.569 60.719 197.988 58.1766 194.241 51.0305C191.33 45.4419 188.102 40.6778 183.181 34.654C181.556 32.6843 180.924 31.5619 179.14 27.3934C178.531 25.9962 177.786 24.4158 177.47 23.8432C177.154 23.2706 176.748 22.4461 176.567 22.0109C176.386 21.5757 176.116 21.0718 175.958 20.9115C175.8 20.7512 175.664 20.4763 175.664 20.316C175.664 20.1557 175.326 19.5602 174.897 18.9875C174.468 18.4149 173.881 17.5446 173.587 17.0407C172.978 15.9413 171.714 14.4525 171.398 14.4525C171.262 14.4525 170.811 13.9028 170.382 13.2157C169.005 11.1543 169.344 9.87168 171.466 9.07003C172.323 8.74937 174.964 8.74937 178.847 9.07003ZM530.844 17.0407C531.589 17.4072 533.824 18.8272 535.833 20.1786C540.686 23.4539 543.666 25.3549 546.532 26.9353C557.57 33.0736 561.566 36.1428 566.058 42.0521C566.441 42.533 567.051 43.3118 567.412 43.747C568.654 45.2128 569.331 46.2435 569.805 47.3658C570.234 48.3507 570.256 48.7401 570.143 50.9847C570.076 52.3589 569.963 53.8019 569.895 54.1913C569.805 54.5577 569.714 56.3443 569.647 58.1537C569.556 61.9558 569.286 62.8491 568.089 63.2384C567.231 63.5362 565.809 63.2613 564.861 62.6429C563.326 61.6351 560.482 59.0699 555.674 54.3974C548.699 47.5949 548.767 47.6636 543.192 43.9302C536.894 39.7158 537.278 39.9678 534.907 38.708C532.582 37.4712 532.041 36.8299 532.515 35.8908C532.786 35.4098 532.763 35.2037 532.447 34.5166C532.244 34.0585 531.973 33.692 531.86 33.692C531.725 33.692 531.634 33.5317 531.634 33.3485C531.634 33.1652 531.567 33.0049 531.454 33.0049C531.364 33.0049 531.16 32.6843 531.002 32.3178C530.822 31.9284 530.574 31.6307 530.438 31.6307C530.28 31.6307 529.919 31.4016 529.603 31.1039C529.287 30.8061 528.429 30.2335 527.684 29.7983C525.766 28.6989 523.125 26.4543 522.47 25.4007C522.154 24.8968 521.838 24.141 521.77 23.7058C521.612 22.7438 521.928 22.6064 524.592 22.3545C525.608 22.2628 526.443 22.1025 526.443 21.988C526.443 21.8735 526.759 21.6444 527.12 21.4383C527.684 21.1405 527.797 20.9573 527.797 20.2015C527.797 19.7205 527.639 19.0105 527.458 18.6669C526.962 17.7049 527.03 16.8346 527.639 16.3994C528.271 15.9642 529.016 16.1016 530.844 17.0407ZM77.699 25.0801C78.1278 25.2633 79.0759 25.6756 79.7756 25.9962C80.4754 26.3169 81.1751 26.5917 81.3106 26.5917C81.7395 26.5917 83.8613 27.5766 84.8319 28.2408C86.0508 29.0654 87.5858 30.7603 88.6241 32.4323C89.7302 34.173 90.8362 35.5244 91.1522 35.5244C91.2877 35.5244 91.536 35.6847 91.694 35.8679C91.852 36.0512 92.1454 36.1886 92.326 36.1657C92.8452 36.0741 93.5224 37.2193 94.6059 40.0136C96.3665 44.5486 97.3371 49.3127 97.3371 53.5042C97.3371 56.8253 96.7954 58.0163 95.1476 58.314C93.3869 58.6118 92.6195 58.0621 86.728 52.3589C79.4596 45.3503 79.5273 45.419 78.8953 43.9989C78.5793 43.2431 78.2181 42.6247 78.1278 42.6247C78.0375 42.6247 77.8795 42.2811 77.8118 41.8688C77.7215 41.4795 77.4055 40.6778 77.1121 40.1052C76.8412 39.5326 76.5252 38.7539 76.4575 38.3874C76.3672 37.998 76.2543 37.5399 76.1866 37.3567C76.1189 37.1735 76.006 36.8299 75.9834 36.6009C75.9383 36.3947 75.6449 35.7992 75.3288 35.2953C75.0128 34.7914 74.7645 34.3334 74.7645 34.2417C74.7645 34.173 74.4034 33.6004 73.9745 33.0049C72.4395 30.8977 72.0784 29.4777 72.417 26.9582C72.5975 25.7672 73.4779 24.622 74.3808 24.4846C75.0354 24.37 76.7058 24.6907 77.699 25.0801ZM286.157 41.9375C286.089 42.075 285.773 42.0979 285.457 42.0292C285.141 41.9375 284.916 41.9833 284.916 42.1437C284.916 42.4872 286.112 42.4643 286.451 42.1208C286.654 41.9146 286.857 41.9375 287.286 42.1666C287.782 42.4414 287.918 42.4414 288.053 42.1895C288.189 41.9833 288.302 41.9604 288.392 42.1437C288.505 42.3269 288.685 42.3269 289.001 42.1666C289.227 42.0292 289.43 42.0062 289.43 42.1208C289.43 42.2353 290.062 42.3956 290.852 42.4643C291.958 42.5789 292.681 42.8308 294.396 43.7699C297.376 45.419 298.482 46.2664 300.829 48.6714C303.199 51.0992 305.479 54.1226 307.488 57.5124C309.633 61.1312 314.892 71.7359 315.637 73.9805C316.269 75.9044 317.511 82.707 317.736 85.6845C318.007 88.9598 318.165 93.22 318.007 93.7697C317.804 94.6172 317.262 95.0753 316.495 95.0753C315.208 95.0753 311.529 90.8609 307.375 84.6539C304.78 80.7601 304.148 79.9814 300.762 76.3167C299.182 74.6447 296.857 71.9191 295.57 70.3158C292.929 66.9947 291.033 65.1395 288.46 63.4217C287.489 62.7574 286.496 61.91 286.27 61.4977C285.773 60.719 285.683 59.9173 286.044 59.6883C286.338 59.505 285.706 57.9705 285.209 57.5582C285.006 57.4208 284.893 57.2833 284.983 57.2833C285.322 57.2833 282.117 52.6567 281.101 51.6947C280.717 51.3053 280.401 50.916 280.401 50.8244C280.401 50.7098 280.198 50.3892 279.927 50.1143C278.618 48.6943 277.625 45.6709 278.144 44.686C278.279 44.4112 278.46 44.2509 278.528 44.3196C278.595 44.3883 278.844 44.1821 279.092 43.8844C279.34 43.5637 279.724 43.3118 279.972 43.3118C280.221 43.3118 280.627 43.2202 280.853 43.0827C281.078 42.9682 281.665 42.785 282.139 42.7163C282.613 42.6476 283.042 42.4872 283.065 42.3727C283.11 42.2582 283.494 42.1666 283.9 42.1666C284.329 42.1666 284.735 42.0521 284.803 41.9375C284.87 41.8001 285.254 41.7085 285.615 41.7085C286.022 41.7085 286.247 41.8001 286.157 41.9375ZM1006.49 43.0827C1007.15 43.3805 1007.67 43.8615 1008.14 44.6173C1008.8 45.6251 1008.84 45.8312 1008.73 47.2055C1008.64 48.5339 1008.3 49.6333 1007.15 52.2902C1006.43 54.008 1004.01 58.3369 1003.45 58.9553C1002.95 59.4821 1002.82 59.528 1002.54 59.2531C1001.89 58.5889 1001.69 50.8702 1002.25 48.0071C1002.68 45.8312 1003.22 43.9989 1003.45 43.9989C1003.54 43.9989 1003.63 43.8386 1003.63 43.6553C1003.63 43.3576 1004.76 42.6934 1005.32 42.6476C1005.46 42.6476 1005.98 42.8308 1006.49 43.0827ZM967.67 44.2738C967.602 44.457 967.534 44.3883 967.534 44.1363C967.512 43.8844 967.579 43.747 967.647 43.8386C967.715 43.9073 967.738 44.1134 967.67 44.2738ZM971.462 54.4203C973.697 60.3296 974.216 61.8642 974.938 64.7272C975.344 66.3305 976.631 72.6292 977.241 75.9503C977.353 76.5687 977.918 79.4546 978.46 82.3634C979.656 88.6621 980.243 93.4033 981.168 104.008C981.371 106.207 981.575 108.383 981.62 108.818C982.365 114.658 982.432 118.735 981.868 120.155C981.394 121.278 980.356 122.354 979.295 122.812C978.414 123.202 978.121 123.225 976.925 122.995C974.78 122.606 973.494 121.759 971.891 119.697C969.927 117.178 968.595 113.673 967.263 107.558C966.789 105.291 966.27 103.023 966.157 102.519C966.045 102.015 965.729 100.572 965.48 99.3125C965.232 98.0528 964.916 96.564 964.803 95.9914C964.487 94.5027 963.336 87.8375 962.884 84.8829C962.681 83.4857 962.365 81.5389 962.207 80.5311C961.756 77.9429 961.553 75.1486 961.778 75.1486C962.004 75.1486 963.042 76.7977 963.81 78.3552C964.69 80.1646 965.232 82.5009 965.706 86.4862C965.954 88.6163 966.27 90.8838 966.383 91.5251C966.496 92.1435 966.699 93.3345 966.835 94.1591C967.241 96.4495 967.986 99.3812 968.392 100.206C968.889 101.236 969.837 102.313 970.379 102.496C970.875 102.657 971.71 101.901 971.462 101.511C971.394 101.374 971.462 101.259 971.643 101.259C971.981 101.259 972.929 98.7628 972.929 97.8925C972.929 97.6405 972.997 97.3657 973.087 97.297C973.155 97.2053 973.245 96.9076 973.268 96.6098C973.29 96.335 973.448 94.9607 973.606 93.5865C974.103 89.3263 973.697 74.0263 972.929 67.8193C972.433 63.9714 971.304 58.3827 970.582 56.4359C970.401 55.9549 970.04 54.6952 969.769 53.6187C969.498 52.5422 969.182 51.4199 969.069 51.0992C968.753 50.183 967.963 46.2664 967.986 45.6251C967.986 45.2586 968.257 45.7625 968.686 46.9765C969.069 48.053 970.311 51.397 971.462 54.4203ZM430.464 57.8789C432.969 58.3827 429.584 60.5357 426.988 60.1006C426.017 59.9402 425.882 59.8257 425.882 59.3676C425.882 58.2453 428.342 57.4437 430.464 57.8789ZM1047.01 58.7034C1047.55 59.6883 1047.33 68.7354 1046.76 68.7354C1046.31 68.7354 1046.06 66.697 1046.06 62.9407C1046.06 60.7419 1046.13 58.7721 1046.2 58.566C1046.4 58.0621 1046.67 58.1079 1047.01 58.7034ZM21.3577 77.1184C21.6286 77.2329 21.7189 77.5994 21.7189 78.7217C21.7189 80.1875 22.5315 83.8522 22.8926 84.1042C23.0055 84.1729 23.1409 84.6997 23.2086 85.2494C23.2538 85.7991 23.3667 86.6465 23.4344 87.1046C23.7278 88.914 22.08 90.3112 18.5587 91.319C16.0306 92.0519 15.0148 92.0519 14.6988 91.319C14.4956 90.9067 14.5408 90.6089 14.8116 89.9905C15.1276 89.3034 15.1728 88.433 15.1051 83.7606C15.0599 79.363 15.1051 78.2865 15.3534 78.0803C16.0757 77.4619 20.4548 76.7748 21.3577 77.1184ZM1047.4 86.6923C1047.78 87.1504 1048.25 89.9447 1048.52 93.2429C1048.82 96.564 1049.36 99.5645 1049.81 100.229C1049.99 100.481 1050.13 101.053 1050.13 101.488C1050.13 101.947 1050.26 102.45 1050.42 102.611C1050.56 102.748 1050.71 103.206 1050.74 103.619C1050.76 104.031 1050.85 104.741 1050.94 105.222C1051.12 106.253 1050.69 107.031 1049.65 107.581C1048.8 108.016 1047.06 108.085 1046.67 107.695C1046.49 107.512 1046.36 106.092 1046.25 103.596C1046.18 101.488 1046 98.1215 1045.86 96.1059C1045.57 91.6396 1045.52 87.7917 1045.75 87.1733C1046.06 86.3488 1046.92 86.0968 1047.4 86.6923ZM990.649 97.2741C990.333 98.3047 989.926 99.3125 989.768 99.5416C989.52 99.908 989.475 99.8622 989.452 99.1751C989.407 97.5489 989.904 94.9149 990.491 93.701L991.1 92.4413L991.168 93.93C991.213 95.0294 991.078 95.8769 990.649 97.2741ZM671.336 97.9154C671.901 98.6025 672.059 100.045 672.375 107.329C672.555 111.475 672.804 115.666 672.916 116.605C673.029 117.544 673.097 121.163 673.074 124.622C673.029 129.683 672.939 131.287 672.623 132.753C672.081 135.18 671.72 136.051 671.088 136.28C669.847 136.738 669.621 136.028 669.44 131.149C669.282 126.294 669.26 100.16 669.44 99.3354C669.508 99.0148 669.598 98.488 669.666 98.1673C669.756 97.7092 669.937 97.5947 670.433 97.5947C670.795 97.5947 671.201 97.7321 671.336 97.9154ZM570.911 112.414C571.498 133.05 571.769 138.387 572.355 139.028C572.694 139.395 572.762 139.83 573.168 144.09C573.439 147.022 573.461 156.848 573.168 157.375C573.055 157.604 572.717 157.833 572.401 157.924C572.062 158.016 571.814 158.291 571.701 158.68C571.475 159.642 570.933 160.123 570.121 160.123C569.624 160.123 569.331 159.986 569.218 159.711C569.128 159.505 568.992 151.168 568.924 141.204C568.812 122.583 568.97 115.804 569.692 108.818C570.098 104.787 570.143 104.512 570.482 104.855C570.617 104.993 570.798 108.085 570.911 112.414ZM214.083 106.275C214.624 106.711 215.166 108.062 215.324 109.39C215.369 109.757 215.46 110.238 215.55 110.421C215.618 110.604 215.708 110.81 215.731 110.879C215.753 110.948 215.821 111.154 215.911 111.337C216.092 111.795 216.543 113.88 216.566 114.315C216.566 114.498 216.701 115.116 216.859 115.689C217.175 116.857 217.085 119.972 216.701 121.186C216.566 121.621 216.25 122.263 216.001 122.606C214.737 124.347 208.214 126.431 206.837 125.561C206.611 125.4 206.566 125.126 206.679 124.484C206.837 123.637 207.018 117.636 207.108 110.719C207.13 108.497 207.243 107.375 207.424 107.192C207.717 106.894 211.871 105.886 212.932 105.863C213.27 105.84 213.767 106.046 214.083 106.275ZM844.672 139.441C844.942 140.128 845.868 145.121 846.297 148.098C846.455 149.106 846.771 150.595 846.997 151.42C847.516 153.321 847.877 156.367 847.899 159.207C847.922 161.154 844.649 163.032 843.407 161.772C842.979 161.337 842.956 160.902 842.821 152.084C842.73 146.999 842.617 142.143 842.55 141.296C842.437 139.967 842.482 139.716 842.888 139.303C843.566 138.616 844.378 138.685 844.672 139.441ZM1114.46 146.564C1114.82 146.862 1115.07 147.503 1115.36 148.9C1117.03 157.008 1117.33 158.153 1118.18 160.467C1119.47 163.879 1120.13 166.01 1120.19 166.994C1120.26 168.3 1119.79 170.338 1119.27 170.934C1118.7 171.575 1116.58 172.491 1115.66 172.491C1113.87 172.491 1113.65 171.919 1113.44 166.994C1113.38 165.048 1113.15 161.131 1112.97 158.314C1112.79 155.474 1112.65 151.786 1112.65 150.114C1112.65 147.366 1112.7 147.022 1113.11 146.61C1113.67 146.037 1113.83 146.037 1114.46 146.564ZM326.043 149.358C326.494 149.381 326.743 150.664 327.014 154.58C327.194 156.939 327.442 159.436 327.578 160.123C327.691 160.81 327.939 162.299 328.12 163.444C328.3 164.567 328.661 166.491 328.932 167.682C329.203 169.01 329.451 171.186 329.519 173.293C329.655 176.637 329.655 176.752 329.135 177.507C328.684 178.172 328.233 178.424 326.111 179.157C323.537 180.073 322.522 180.233 322.251 179.798C322.002 179.386 322.16 150.48 322.409 150C322.747 149.358 323.47 149.129 324.756 149.244C325.388 149.289 325.953 149.335 326.043 149.358ZM104.741 159.803C105.125 160.077 105.238 160.375 105.238 161.131C105.238 162.207 105.892 166.01 106.592 169.102C107.721 174.049 108.533 179.477 108.42 181.539C108.353 182.753 107.743 183.279 105.576 183.966C103.432 184.654 101.897 184.814 101.468 184.379C101.129 184.035 101.332 160.902 101.671 160.283C102.1 159.459 103.861 159.161 104.741 159.803ZM673.39 171.942C673.526 172.262 673.616 173.064 673.616 173.751C673.616 175.103 674.316 180.187 674.858 182.684C675.219 184.333 675.693 186.578 676.235 189.211C676.393 190.036 676.528 191.364 676.551 192.212C676.551 193.609 676.506 193.747 675.806 194.434C674.971 195.258 672.217 196.312 670.885 196.312C669.26 196.312 669.373 197.297 669.327 182.226C669.305 170.361 669.079 171.346 671.63 171.346C673.074 171.346 673.187 171.392 673.39 171.942ZM573.145 181.516C573.281 181.607 573.394 182.157 573.394 182.753C573.416 184.86 574.252 191.021 575.154 195.739C576.328 201.809 576.554 203.458 576.554 205.542C576.554 207.077 576.509 207.26 575.944 207.81C575.245 208.451 572.265 209.757 570.956 209.963C569.579 210.169 569.24 209.734 569.195 207.741C568.992 200.389 568.879 184.035 569.015 182.959C569.128 181.905 569.263 181.561 569.647 181.401C570.166 181.172 572.739 181.264 573.145 181.516Z" fill="#7F69AD"/>
<path d="M296.789 0.435131C298.008 1.58034 301.732 4.0769 303.538 4.94726C305.502 5.90923 307.263 6.43603 307.263 6.09247C307.263 5.88633 306.495 4.85564 305.683 3.91657C305.412 3.59591 304.554 2.58812 303.809 1.67196L302.432 0.0228555H299.385C296.45 0.0228555 296.36 0.0457593 296.789 0.435131Z" fill="#7F69AD"/>
</svg>
