<svg width="1029" height="467" viewBox="0 0 1029 467" fill="none" xmlns="http://www.w3.org/2000/svg">
<path d="M477.778 179.208C483.83 179.788 506.996 177.855 512.005 199.118C533.71 179.788 529.536 154.079 514.092 144.028C488.005 127.017 460.038 142.481 457.534 160.072C455.864 171.283 462.96 178.049 477.778 179.208ZM1013.94 151.373C999.535 150.986 978.039 173.023 960.716 173.023C949.238 173.023 948.403 164.904 955.29 151.18C980.752 100.535 949.864 102.081 943.185 106.914C943.185 106.914 965.308 70.7666 926.28 70.7666C878.07 70.9599 835.286 108.46 812.955 164.131C804.815 183.074 786.867 223.668 767.875 228.693C749.718 233.333 749.718 211.296 738.239 207.237C815.25 159.105 816.085 120.252 803.98 107.107C793.128 95.5092 756.605 91.8364 711.525 135.136C722.586 96.6689 753.892 73.0863 761.405 34.6194C765.37 11.8099 747.213 -11.5795 712.986 26.1142C689.82 51.6299 677.715 98.4087 655.175 157.945C641.818 194.286 615.104 259.428 591.312 259.622C580.877 259.622 577.955 251.116 581.295 227.34C587.347 180.948 627.835 127.597 641.818 89.1302C652.254 63.6145 641.818 48.3438 629.922 45.8308C613.852 43.1246 591.104 57.0423 574.407 95.5092C561.05 121.991 550.198 158.525 542.059 200.085C534.545 234.686 505.118 302.534 476.526 299.055C465.882 297.702 476.735 272.959 489.883 248.023C500.944 226.954 509.918 201.438 486.335 201.438C450.021 201.438 423.515 270.64 419.133 322.251C417.046 347.38 416.211 376.375 437.081 376.375C462.96 376.375 496.353 351.246 527.658 307.56C529.954 331.916 563.346 364.197 628.044 277.405C629.088 290.55 632.218 310.266 643.071 310.846C643.071 310.846 653.088 313.359 663.315 291.903C673.541 270.446 684.811 243.191 687.107 237.972C692.533 225.794 702.76 223.668 703.803 244.157C704.847 265.421 710.899 281.078 729.474 280.885C765.997 280.691 797.719 249.763 806.694 237.972C811.911 256.335 856.782 262.714 905.619 208.01C907.706 222.508 921.48 243.578 982.839 199.312C1021.66 172.056 1025 151.76 1013.94 151.373ZM704.429 186.94C702.968 187.134 700.464 185.781 701.507 183.461C706.516 171.67 714.238 161.618 724.256 153.693C733.022 146.734 742.622 142.481 749.718 142.481C756.396 142.481 760.362 146.154 759.944 152.34C759.736 157.172 756.396 163.164 750.344 168.384C728.847 186.94 706.308 186.94 704.429 186.94ZM913.549 127.404C892.47 157.559 899.984 161.038 884.748 182.688C872.435 200.085 855.321 204.531 848.852 195.639C842.382 186.554 848.852 166.644 863.252 150.986C877.653 135.522 923.15 113.679 913.549 127.404ZM380.523 326.697C386.366 225.407 445.847 141.321 447.725 105.754C448.56 91.4498 440.42 80.2384 421.846 81.0116C390.749 82.3647 335.025 123.538 307.059 175.536C291.615 131.85 254.257 157.752 236.726 176.889C240.066 94.736 212.934 87.7771 197.073 88.357C147.61 90.4833 96.0607 151.953 68.0946 196.605C42.2154 237.972 -23.5259 360.911 28.8585 368.257C41.798 369.996 54.9463 356.465 63.9205 324.764C98.1478 205.304 138.845 178.049 155.541 179.208C199.369 182.301 142.81 333.462 123.401 386.813C112.548 415.229 103.365 461.234 138.427 459.688C177.455 458.141 193.942 366.903 203.334 317.225C213.978 262.908 228.796 245.317 243.822 246.477C261.353 248.41 254.049 281.078 242.361 312.199C231.926 344.094 196.029 421.801 238.187 425.28C280.763 426.633 278.884 355.305 290.572 310.266C308.311 242.418 328.138 196.799 349.635 200.471C375.931 205.691 314.573 294.609 310.398 364.97C307.268 419.675 333.982 459.301 372.592 443.837C413.289 426.054 377.392 381.401 380.523 326.697Z" fill="#50416F"/>
</svg>
