<svg width="537" height="480" viewBox="0 0 537 480" fill="none" xmlns="http://www.w3.org/2000/svg">
<path d="M26.6195 249.064C-21.654 218.459 0.0267792 143.772 57.1848 143.772H136.564C160.266 143.772 182.752 133.278 197.976 115.112L272.429 26.2696C308.337 -16.5776 377.053 -5.14825 397.158 47.0152L399.343 52.6838C404.891 67.0805 415.894 78.7084 429.962 85.0441L495.458 114.541C519.251 125.256 518.081 159.431 493.61 168.493C473.364 175.991 467.996 202.121 483.646 216.994L518.324 249.947C551.71 281.673 537.478 337.712 493 349.664L365.947 383.804C344.62 389.535 329.795 408.868 329.795 430.952C329.795 460.528 303.706 483.312 274.399 479.329L158.526 463.581C151.458 462.62 144.303 462.493 137.206 463.2L86.3927 468.267C20.9769 474.789 -17.9425 397.122 26.439 348.625L38.1653 335.811C62.1491 309.602 56.6235 268.087 26.6195 249.064Z" fill="#D9D9D9"/>
</svg>
