<?xml version="1.0" standalone="no"?>
<!DOCTYPE svg PUBLIC "-//W3C//DTD SVG 20010904//EN"
 "http://www.w3.org/TR/2001/REC-SVG-20010904/DTD/svg10.dtd">
<svg version="1.0" xmlns="http://www.w3.org/2000/svg"
 width="5255.000000pt" height="2004.000000pt" viewBox="0 0 5255.000000 2004.000000"
 preserveAspectRatio="xMidYMid meet">

<g transform="translate(0.000000,2004.000000) scale(0.100000,-0.100000)"
fill="#000000" stroke="none">
<path d="M266 20008 c9 -18 20 -35 23 -38 3 -3 17 -25 29 -50 13 -25 46 -85
73 -135 27 -49 56 -106 64 -125 9 -19 29 -64 46 -100 52 -109 67 -143 89 -200
24 -60 29 -71 59 -144 12 -27 21 -54 21 -60 0 -6 6 -23 14 -38 8 -15 17 -41
21 -59 4 -19 11 -40 15 -49 12 -22 47 -140 55 -180 3 -19 10 -44 15 -55 18
-42 57 -207 81 -345 44 -249 49 -288 88 -690 12 -126 13 -673 1 -750 -19 -121
-32 -185 -40 -195 -4 -5 -10 -23 -14 -40 -4 -16 -13 -43 -21 -60 -7 -16 -24
-57 -36 -90 -12 -33 -25 -69 -30 -80 -4 -11 -17 -67 -28 -125 -22 -112 -26
-190 -11 -255 20 -92 31 -132 44 -160 20 -43 58 -121 80 -164 26 -49 202 -222
248 -244 20 -10 40 -21 43 -26 2 -5 40 -21 82 -36 43 -15 89 -32 102 -39 32
-15 363 -15 382 0 8 6 35 16 61 23 60 14 183 72 237 111 22 17 44 30 49 30 10
0 102 93 102 104 0 4 17 28 39 54 50 62 129 220 149 302 25 100 22 305 -5 400
-23 79 -44 138 -55 155 -3 6 -9 28 -13 50 -4 22 -11 45 -16 50 -36 47 -36 427
0 550 13 44 31 113 41 165 6 25 14 54 18 65 5 11 21 58 36 105 27 82 53 144
79 185 6 11 24 39 40 63 15 24 27 47 27 51 0 4 27 38 60 74 67 73 156 125 260
151 67 17 364 23 374 7 3 -4 30 -11 61 -15 31 -3 63 -10 73 -15 9 -5 49 -21
87 -37 39 -15 74 -31 80 -36 5 -4 15 -8 22 -8 8 0 26 -8 41 -19 15 -10 49 -31
76 -47 27 -16 62 -37 77 -46 101 -61 359 -301 476 -444 83 -100 103 -127 103
-136 0 -5 11 -24 25 -42 34 -45 78 -127 142 -266 47 -102 60 -133 67 -167 4
-18 12 -35 17 -38 5 -4 9 -14 9 -23 1 -9 9 -35 20 -57 11 -22 19 -50 20 -63 0
-12 4 -30 10 -40 12 -21 38 -118 51 -192 6 -30 14 -64 19 -75 11 -27 51 -205
83 -370 7 -33 15 -64 18 -70 4 -5 10 -35 14 -65 3 -30 10 -68 15 -85 5 -16 16
-70 24 -120 8 -49 19 -110 25 -135 5 -25 10 -63 11 -85 0 -23 4 -45 9 -50 5
-6 14 -57 21 -115 6 -57 15 -111 20 -120 4 -8 11 -53 14 -100 4 -47 11 -94 16
-105 5 -11 13 -56 19 -100 6 -44 17 -129 25 -190 9 -60 16 -127 18 -148 1 -21
5 -40 9 -43 4 -2 10 -53 14 -114 4 -61 11 -112 15 -115 4 -3 11 -60 15 -127 4
-68 11 -143 16 -168 4 -25 16 -178 25 -340 19 -333 10 -539 -26 -641 -16 -48
-66 -156 -90 -199 -15 -25 -96 -191 -124 -251 -32 -72 -76 -205 -76 -233 0
-12 -6 -28 -13 -35 -15 -15 -16 -303 0 -323 6 -7 14 -29 18 -48 19 -92 87
-212 169 -298 61 -64 167 -136 216 -147 19 -4 40 -11 46 -16 21 -17 160 -31
246 -25 205 15 383 115 529 297 49 60 90 148 130 279 19 62 18 264 -3 360 -16
78 -54 198 -68 215 -4 6 -11 21 -15 35 -4 14 -35 84 -70 155 -89 185 -101 213
-120 280 -10 33 -21 68 -26 77 -5 10 -12 43 -15 75 -4 32 -12 64 -18 72 -16
20 -15 649 1 761 7 47 17 159 23 250 6 91 20 251 31 355 54 522 64 609 79 700
5 33 15 114 21 180 6 66 14 126 19 135 4 8 11 58 15 110 4 52 10 100 15 105 4
6 10 46 14 89 4 44 10 85 14 90 7 13 7 12 22 131 6 49 15 101 21 115 5 14 14
54 19 90 13 90 37 221 45 245 3 11 12 58 20 105 19 117 40 222 47 240 3 8 11
42 17 75 17 96 46 219 52 230 4 6 10 33 14 60 4 28 10 55 15 60 4 6 10 28 14
50 9 51 44 175 57 197 5 10 9 24 9 32 0 20 59 197 90 271 56 131 114 251 145
300 14 22 29 49 34 60 5 11 36 53 70 92 34 40 61 76 61 81 0 12 108 112 175
163 70 53 164 102 255 132 57 19 86 22 240 22 150 -1 188 -4 264 -24 50 -13
97 -27 105 -31 9 -4 59 -29 111 -54 113 -56 158 -81 186 -107 11 -10 23 -19
27 -19 4 0 16 -7 26 -16 39 -31 297 -291 316 -318 11 -16 32 -42 46 -60 23
-28 96 -136 109 -161 3 -5 18 -30 35 -55 25 -38 213 -401 215 -415 1 -10 13
-41 31 -82 11 -23 19 -46 19 -52 0 -5 7 -22 15 -38 8 -15 24 -55 36 -88 12
-33 25 -67 29 -75 4 -9 11 -31 15 -50 4 -19 11 -39 15 -45 4 -5 13 -30 19 -55
13 -57 46 -170 54 -190 8 -19 25 -87 44 -175 8 -38 18 -79 23 -90 5 -11 12
-42 15 -70 4 -27 10 -54 13 -60 4 -5 12 -39 19 -75 6 -36 16 -87 21 -115 36
-187 44 -276 40 -425 -5 -152 -22 -253 -54 -327 -8 -17 -14 -35 -14 -40 0 -4
-14 -37 -31 -73 -49 -101 -58 -123 -65 -155 -4 -16 -10 -34 -14 -40 -4 -5 -14
-37 -21 -70 -7 -33 -16 -65 -21 -71 -11 -15 -29 -164 -29 -244 -1 -112 31
-280 71 -375 50 -121 144 -282 172 -293 4 -2 8 -9 8 -15 0 -13 110 -127 123
-127 5 0 32 -19 61 -43 62 -51 170 -105 276 -138 66 -21 94 -24 240 -24 165 0
208 7 335 54 24 9 179 86 215 106 79 45 255 221 324 324 41 61 101 184 116
240 6 22 14 43 19 45 5 3 12 32 16 63 4 32 11 63 17 70 13 16 15 314 2 334 -5
8 -14 41 -20 74 -12 63 -27 112 -50 158 -8 16 -14 33 -14 39 0 5 -6 24 -14 41
-25 56 -64 180 -77 245 -20 106 4 385 40 452 5 9 12 31 15 50 4 19 11 44 16
55 4 11 20 60 35 109 15 49 34 101 41 115 8 14 14 32 14 39 0 7 4 20 9 30 17
35 39 88 51 122 17 48 109 236 139 285 14 22 40 58 58 81 18 23 33 45 33 50 0
12 172 184 184 184 4 0 26 15 49 34 23 18 92 57 152 86 144 68 137 66 232 89
120 30 405 30 548 0 55 -12 105 -25 110 -29 6 -5 27 -11 48 -15 20 -4 40 -11
43 -16 3 -5 12 -9 20 -9 29 0 279 -129 338 -174 19 -14 38 -26 41 -26 4 0 29
-17 55 -37 27 -21 63 -49 82 -63 115 -88 379 -349 493 -491 11 -13 45 -56 77
-94 52 -65 128 -172 128 -181 0 -2 14 -23 30 -46 17 -22 30 -45 30 -50 0 -5
11 -24 24 -41 49 -64 247 -453 291 -572 14 -38 30 -78 35 -87 6 -10 22 -53 36
-95 15 -43 30 -82 34 -88 4 -5 11 -26 15 -45 4 -19 11 -41 15 -50 11 -21 47
-138 55 -180 4 -19 11 -39 15 -45 4 -5 11 -27 14 -49 4 -21 11 -46 16 -55 4
-9 20 -72 35 -141 15 -69 31 -135 36 -147 4 -12 11 -46 14 -75 4 -29 10 -62
15 -73 10 -26 49 -262 60 -372 5 -49 14 -131 21 -183 12 -109 6 -464 -9 -483
-5 -6 -13 -34 -16 -62 -8 -58 -42 -175 -62 -214 -8 -14 -14 -33 -14 -42 0 -8
-4 -19 -8 -25 -5 -5 -21 -45 -37 -89 -15 -44 -31 -84 -35 -90 -4 -5 -11 -28
-15 -50 -4 -22 -10 -44 -15 -50 -4 -5 -14 -37 -21 -70 -7 -33 -17 -66 -22 -73
-14 -18 -21 -336 -8 -402 19 -103 47 -188 83 -250 4 -8 11 -22 15 -30 13 -30
104 -136 153 -178 56 -49 166 -109 250 -138 45 -15 83 -19 205 -19 130 0 159
3 220 24 85 28 127 48 182 84 23 15 46 27 51 27 22 0 180 168 203 215 13 28
27 52 30 55 11 8 45 91 59 140 7 25 17 56 22 70 15 36 22 283 10 360 -19 118
-64 288 -87 332 -8 14 -15 38 -15 51 0 14 -4 28 -9 31 -5 3 -12 23 -16 43 -4
21 -13 52 -20 68 -7 17 -17 46 -20 65 -4 19 -11 40 -15 45 -13 17 -71 285 -62
285 2 0 -1 7 -9 16 -9 12 -13 85 -13 317 -1 266 2 322 23 472 13 94 27 179 32
190 4 11 12 54 18 95 12 90 35 209 44 230 3 8 11 42 17 75 7 33 16 65 20 70 4
6 11 29 15 52 4 24 10 45 15 48 4 3 11 22 15 42 4 21 10 43 15 48 4 6 10 24
14 40 6 28 20 63 52 128 8 16 14 33 14 39 0 10 11 35 60 138 35 73 103 196
128 229 12 17 22 33 22 36 0 13 76 122 125 180 28 33 58 72 68 87 26 41 305
318 321 318 7 0 21 9 31 20 17 19 111 87 240 175 28 18 115 66 195 105 190 94
200 98 235 106 17 4 35 10 40 14 6 4 26 11 45 15 19 4 41 11 50 16 22 12 204
47 280 54 36 4 74 11 85 16 32 15 959 4 1156 -14 92 -8 177 -18 189 -22 81
-26 753 -56 774 -35 5 5 24 10 41 10 16 1 64 7 105 16 41 8 100 19 130 25 30
5 59 14 65 20 5 5 17 9 26 9 19 0 213 62 264 85 17 7 57 22 90 34 33 12 73 29
88 37 16 8 33 14 39 14 5 0 26 7 46 16 102 46 121 54 172 74 65 26 148 65 320
149 69 33 130 61 134 61 5 0 59 24 120 54 61 30 122 58 136 62 26 7 95 38 246
110 49 24 93 44 96 44 3 0 44 18 91 40 46 22 89 40 96 40 6 0 19 4 29 9 9 6
46 22 82 37 36 14 74 30 85 35 11 4 45 18 75 29 57 22 98 40 153 64 17 8 43
17 57 21 14 3 34 10 45 15 25 11 148 46 195 55 19 4 41 11 50 16 28 14 104 31
255 55 278 43 690 29 859 -31 154 -54 215 -79 321 -134 143 -73 183 -97 211
-122 11 -10 24 -19 29 -19 4 0 27 -16 51 -35 23 -19 45 -35 47 -35 7 0 58 -43
183 -157 137 -126 316 -312 357 -373 16 -25 40 -56 52 -70 12 -14 29 -37 36
-51 75 -141 118 -231 129 -264 7 -22 16 -44 20 -50 4 -5 11 -32 15 -60 4 -27
11 -55 15 -60 10 -12 26 -145 41 -340 11 -148 6 -1338 -7 -1385 -3 -14 -10
-128 -15 -255 -4 -126 -13 -266 -18 -310 -6 -44 -13 -127 -16 -185 -4 -58 -13
-166 -21 -240 -16 -140 -27 -275 -45 -544 -13 -196 2 -394 52 -701 16 -99 16
-458 0 -515 -7 -25 -17 -65 -23 -90 -6 -25 -14 -49 -18 -55 -4 -5 -10 -27 -14
-47 -4 -20 -13 -50 -21 -65 -8 -15 -15 -35 -15 -44 0 -8 -4 -19 -9 -25 -4 -5
-21 -45 -35 -89 -15 -44 -31 -84 -36 -90 -4 -5 -13 -34 -20 -63 -6 -28 -16
-54 -20 -57 -5 -3 -12 -27 -16 -53 -3 -26 -10 -52 -14 -57 -12 -15 -30 -191
-30 -287 1 -106 16 -225 34 -263 8 -16 22 -50 33 -75 20 -50 91 -163 104 -168
5 -2 9 -9 9 -16 0 -15 72 -86 87 -86 7 0 16 -6 20 -13 9 -16 93 -74 143 -100
108 -54 352 -72 498 -37 85 21 203 72 224 97 6 7 16 13 23 13 17 0 195 175
195 191 0 7 6 20 14 28 27 30 74 136 97 221 21 76 24 106 24 271 0 119 -4 192
-11 200 -6 8 -17 45 -24 83 -7 38 -19 81 -26 95 -8 14 -14 33 -14 42 0 9 -7
30 -15 45 -8 16 -15 36 -15 45 0 9 -3 19 -7 23 -5 4 -8 11 -9 14 -1 11 -23 66
-34 84 -6 10 -10 23 -10 29 0 6 -6 25 -14 42 -23 54 -66 195 -66 220 0 12 -6
29 -12 36 -17 16 -18 496 -2 532 16 33 44 211 56 349 12 130 -1 469 -26 710
-8 80 -15 170 -15 201 -1 31 -4 59 -8 63 -5 4 -13 98 -20 209 -7 111 -17 261
-22 332 -20 265 -34 653 -38 1100 -4 396 -3 476 12 575 9 63 23 136 31 162 8
26 14 53 14 61 0 8 9 36 21 63 11 27 27 65 36 84 28 67 48 105 79 150 17 25
33 51 35 58 10 30 226 272 242 272 5 0 36 25 70 55 33 30 65 55 70 55 5 0 23
11 41 26 48 39 134 93 201 125 33 16 67 33 75 38 26 16 142 67 205 90 33 13
69 26 80 31 42 16 182 51 230 56 28 3 59 10 70 15 24 11 292 31 430 31 130 1
403 -19 435 -31 14 -6 52 -14 85 -20 74 -12 170 -38 210 -55 17 -8 41 -18 55
-24 59 -23 200 -96 255 -132 33 -22 69 -43 80 -48 11 -5 52 -39 91 -76 40 -36
75 -66 78 -66 8 0 77 -72 131 -135 69 -82 133 -196 175 -310 12 -33 26 -67 30
-76 5 -8 11 -47 15 -85 4 -38 13 -75 19 -83 14 -18 13 -925 -2 -944 -5 -6 -12
-122 -16 -257 -3 -135 -13 -344 -21 -465 -17 -256 -19 -680 -4 -845 13 -152
37 -459 50 -645 6 -82 15 -166 20 -185 22 -77 -2 -518 -31 -555 -4 -5 -11 -28
-15 -50 -4 -22 -10 -44 -14 -50 -4 -5 -13 -28 -20 -50 -15 -42 -53 -131 -77
-178 -8 -16 -26 -59 -40 -95 -14 -37 -29 -76 -34 -87 -55 -121 -76 -455 -35
-539 8 -16 15 -37 15 -46 0 -30 70 -162 114 -215 127 -155 239 -221 436 -257
61 -11 246 -4 264 10 6 5 28 13 50 16 66 12 176 77 253 150 40 38 73 73 73 78
0 5 10 20 23 33 19 22 40 58 92 165 7 14 16 48 20 75 4 28 11 55 17 62 13 16
4 197 -15 293 -27 133 -48 204 -83 273 -8 16 -14 35 -14 44 0 14 -20 66 -41
105 -5 10 -9 24 -9 32 0 7 -7 27 -15 42 -8 16 -15 36 -15 45 0 9 -7 30 -15 45
-8 16 -15 40 -15 54 0 15 -4 30 -10 36 -9 9 -24 112 -37 249 -5 56 1 189 27
555 32 449 42 657 41 865 -1 284 -17 678 -31 765 -40 238 -60 1506 -28 1710 9
58 21 118 27 133 6 16 11 39 11 52 0 13 7 36 15 52 8 15 24 48 36 73 60 130
132 232 232 326 41 40 88 79 103 87 67 37 134 67 146 67 8 0 20 6 27 13 17 17
387 17 422 0 13 -6 58 -23 99 -37 65 -22 125 -50 249 -115 14 -8 42 -27 62
-42 20 -16 42 -29 47 -29 20 0 278 -264 338 -345 64 -87 134 -192 134 -201 0
-4 13 -23 28 -43 37 -48 212 -403 212 -430 0 -5 6 -22 14 -38 32 -65 46 -100
52 -128 4 -16 10 -34 14 -40 4 -5 11 -26 15 -45 4 -19 11 -41 15 -50 5 -8 20
-62 35 -120 15 -58 31 -114 36 -125 5 -11 13 -38 18 -60 29 -122 43 -170 50
-179 5 -6 12 -27 16 -46 4 -19 11 -41 15 -50 8 -15 34 -80 36 -90 3 -18 55
-142 80 -195 25 -52 31 -62 76 -133 16 -24 28 -47 28 -53 0 -14 275 -289 290
-289 7 0 29 -12 49 -28 44 -34 146 -83 226 -110 178 -60 397 -61 568 -2 154
53 337 172 454 295 75 78 179 208 196 243 9 19 32 58 97 164 25 40 54 91 65
113 11 22 30 54 42 71 12 17 27 42 33 55 11 24 24 46 88 151 47 77 56 92 62
98 12 11 60 90 60 98 0 4 13 23 30 42 16 19 29 39 30 44 0 4 23 36 50 71 28
35 50 66 50 70 0 9 66 93 195 248 94 114 244 270 351 365 76 68 202 172 209
172 3 0 26 16 49 35 24 19 46 35 50 35 4 0 23 12 42 26 55 43 261 150 344 179
72 26 219 54 254 49 110 -17 155 -31 196 -58 69 -46 91 -73 136 -166 83 -172
83 -172 97 -678 6 -241 11 -819 11 -1287 0 -764 -1 -858 -17 -925 -16 -71 -28
-105 -48 -140 -5 -8 -12 -22 -15 -30 -3 -8 -30 -65 -60 -127 -30 -61 -54 -117
-54 -125 0 -8 -4 -18 -9 -23 -12 -12 -61 -161 -61 -184 0 -9 -6 -23 -12 -29
-17 -17 -18 -342 -2 -363 7 -8 15 -29 19 -48 6 -29 31 -82 72 -153 15 -27 135
-148 146 -148 5 0 22 -11 39 -25 16 -14 37 -25 47 -25 9 0 22 -5 28 -11 5 -5
46 -16 89 -24 240 -41 443 68 558 301 25 52 46 104 46 117 0 13 3 27 7 31 14
13 18 53 16 151 -1 115 -12 193 -24 174 -4 -7 -7 5 -7 27 1 40 -3 61 -14 79
-3 6 -9 25 -13 43 -3 17 -13 32 -20 32 -8 0 -17 5 -21 12 -4 7 -3 8 4 4 18
-11 15 20 -3 38 -9 8 -14 19 -13 23 2 4 -9 33 -24 63 -14 30 -29 62 -32 70 -4
8 -17 34 -30 58 -14 23 -27 56 -31 72 -4 17 -10 30 -14 30 -6 0 -13 22 -36
110 -1 3 -5 12 -9 22 -19 43 -29 290 -27 708 3 1026 16 1987 27 2001 6 8 15
43 18 79 4 36 12 70 18 77 6 7 8 13 5 13 -13 0 34 140 83 245 16 33 31 67 34
75 16 39 73 124 143 212 29 37 53 71 53 76 0 17 650 663 677 673 10 3 83 70
335 305 26 24 50 44 54 44 3 0 47 38 97 85 50 47 95 85 99 85 5 0 42 28 83 63
76 64 199 158 219 167 7 3 28 17 47 33 20 15 39 27 42 27 5 0 65 37 92 57 13
10 65 34 135 63 30 13 69 28 85 36 32 13 107 33 220 58 80 18 408 23 459 6 17
-5 67 -20 111 -34 89 -27 142 -53 214 -101 26 -18 196 -189 211 -214 8 -13 30
-42 47 -65 18 -22 33 -45 33 -50 0 -5 6 -17 14 -25 12 -14 40 -62 76 -132 7
-13 17 -31 22 -39 4 -8 11 -22 14 -30 8 -23 45 -111 60 -145 7 -16 23 -57 35
-90 12 -33 28 -74 35 -92 8 -17 14 -38 14 -46 0 -9 4 -18 9 -21 5 -3 15 -30
21 -58 7 -29 16 -57 20 -63 5 -5 11 -28 15 -50 4 -22 11 -44 15 -50 7 -10 16
-42 46 -174 8 -35 18 -71 23 -80 5 -9 12 -36 16 -61 4 -25 11 -49 15 -55 4 -5
11 -30 15 -55 3 -25 12 -58 20 -75 7 -16 16 -55 20 -85 4 -30 11 -61 16 -70 8
-15 20 -72 40 -195 6 -33 15 -75 21 -93 5 -19 16 -77 24 -130 8 -54 21 -135
29 -182 8 -47 19 -119 25 -160 6 -41 17 -109 25 -150 8 -41 17 -109 21 -150 7
-83 8 -88 17 -110 3 -8 11 -67 17 -130 6 -63 17 -182 24 -265 8 -82 19 -188
25 -235 6 -47 13 -146 17 -220 4 -74 10 -139 14 -145 4 -5 11 -73 14 -150 4
-77 11 -151 16 -165 4 -14 13 -88 20 -165 13 -148 14 -151 23 -175 3 -8 8 -44
11 -79 3 -36 10 -79 16 -95 5 -17 16 -62 24 -101 18 -90 35 -156 45 -175 5 -9
12 -30 15 -47 20 -92 174 -342 262 -426 92 -87 133 -121 208 -170 47 -31 89
-57 93 -57 5 -1 26 -9 48 -20 22 -11 47 -19 56 -20 8 0 20 -5 26 -11 40 -40
379 -58 513 -26 41 9 84 21 95 25 22 10 177 87 234 116 45 24 291 268 291 289
0 8 6 17 13 20 11 4 104 181 138 262 14 34 46 138 54 175 4 19 11 41 16 50 10
19 46 191 58 285 6 39 15 93 20 120 5 28 10 76 10 107 1 31 5 59 10 62 5 3 12
50 16 103 4 54 11 121 16 148 5 28 13 97 19 155 5 58 14 121 19 140 5 19 14
80 20 135 18 160 35 280 76 525 14 85 34 188 44 225 5 22 19 83 31 135 11 52
25 104 30 115 5 11 13 40 19 65 20 89 32 135 40 155 5 11 15 40 22 65 7 25 16
50 20 55 4 6 10 28 15 49 4 22 13 51 20 65 8 14 14 34 14 43 0 9 4 19 9 23 5
3 13 20 17 38 3 17 15 50 25 72 10 22 27 63 39 90 49 113 163 349 201 415 18
30 44 78 59 105 41 77 82 143 118 191 17 23 32 46 32 50 0 4 16 26 35 50 19
23 35 47 35 53 0 16 311 329 340 341 14 6 43 22 65 35 30 17 56 24 102 24 59
1 66 -1 103 -35 44 -40 76 -102 92 -179 6 -27 14 -59 19 -70 29 -64 37 -348
29 -1010 -1 -115 1 -337 5 -493 4 -175 3 -288 -3 -295 -5 -7 -12 -30 -16 -52
-7 -44 -26 -91 -94 -235 -66 -140 -71 -152 -78 -185 -4 -16 -11 -35 -15 -41
-5 -6 -13 -44 -20 -85 -6 -41 -15 -90 -21 -109 -12 -42 -6 -155 12 -225 14
-54 61 -148 91 -181 10 -11 19 -25 19 -30 0 -12 82 -94 94 -94 4 0 25 -13 45
-29 53 -42 179 -75 256 -67 71 7 130 26 188 62 49 31 137 113 137 129 0 7 11
22 25 35 14 13 25 28 25 33 0 6 11 33 24 61 51 107 57 272 16 409 -10 34 -21
74 -24 90 -4 15 -11 27 -16 27 -6 0 -10 7 -10 16 0 9 -9 35 -19 58 -48 102
-61 133 -61 144 0 7 -4 12 -10 12 -5 0 -10 5 -10 10 0 6 -9 29 -19 51 -11 22
-23 54 -26 72 -4 18 -11 37 -16 42 -4 6 -14 52 -20 102 -10 71 -10 159 -1 400
7 169 12 507 12 750 0 244 4 444 9 447 5 3 12 49 16 101 4 52 11 97 15 100 5
3 12 36 15 73 4 37 11 72 15 77 5 6 11 27 15 48 8 43 49 165 59 174 3 4 6 13
6 21 0 17 17 55 77 177 44 90 54 109 73 143 6 9 16 28 22 42 7 14 15 27 19 30
3 3 20 24 36 48 63 87 201 238 254 278 14 10 57 43 94 73 70 57 92 71 185 116
86 42 117 55 132 55 8 0 20 6 26 13 18 17 309 17 343 0 13 -7 35 -17 49 -23
96 -39 201 -174 279 -360 6 -14 15 -32 20 -40 5 -8 19 -42 31 -75 13 -33 26
-67 30 -75 4 -9 11 -31 15 -50 4 -19 11 -41 16 -50 13 -26 47 -122 69 -200 12
-41 26 -84 30 -95 13 -30 50 -157 50 -169 0 -6 6 -23 14 -38 8 -15 17 -41 21
-59 4 -19 11 -40 15 -49 9 -16 72 -212 110 -340 12 -41 26 -84 30 -95 5 -11
13 -40 19 -65 15 -66 33 -132 42 -155 7 -18 18 -55 50 -180 6 -22 15 -49 19
-60 13 -30 49 -155 56 -195 4 -19 10 -39 15 -45 4 -5 10 -28 14 -50 4 -22 11
-44 15 -50 5 -5 11 -32 15 -60 4 -27 11 -57 16 -65 4 -9 17 -88 29 -175 21
-159 21 -172 15 -1460 -7 -1351 -9 -1410 -50 -1510 -21 -53 -78 -169 -86 -175
-3 -3 -19 -28 -35 -56 -49 -86 -86 -148 -105 -176 -11 -15 -19 -34 -19 -41 0
-8 -7 -20 -15 -27 -8 -7 -15 -19 -15 -26 0 -12 -25 -74 -51 -126 -4 -9 -13
-56 -20 -105 -6 -48 -15 -98 -20 -111 -12 -30 -11 -95 0 -141 5 -20 14 -65 21
-100 6 -35 15 -71 20 -80 5 -9 21 -41 35 -72 55 -121 243 -292 357 -324 13 -3
32 -10 43 -15 36 -16 125 -30 188 -30 72 0 190 16 215 29 9 5 44 22 77 37 106
51 263 226 290 324 4 14 14 40 22 59 26 58 21 340 -7 349 -6 2 -8 18 -5 40 4
28 3 32 -4 17 -7 -14 -10 -16 -10 -5 -1 9 -10 34 -21 55 -12 23 -16 41 -10 43
5 2 10 10 10 18 0 22 -90 204 -101 204 -5 0 -9 6 -9 13 0 7 -6 21 -13 31 -12
16 -13 14 -11 -20 2 -41 13 -92 23 -109 3 -5 6 -17 8 -25 1 -8 7 -16 12 -18 6
-2 11 -11 11 -20 0 -13 -5 -11 -21 8 -27 34 -109 196 -109 216 0 23 24 11 28
-14 4 -27 29 -29 37 -2 8 25 -3 43 -21 36 -9 -4 -22 7 -34 27 -22 35 -26 52
-10 42 10 -6 2 25 -9 35 -9 8 -51 91 -51 101 0 5 -9 28 -19 52 -30 65 -43 132
-50 254 -3 61 -3 696 0 1410 6 1264 11 1466 39 1515 5 9 12 40 16 70 4 29 10
58 14 63 4 6 11 30 15 55 4 25 12 54 17 64 10 18 16 43 48 181 6 28 14 57 17
65 8 21 20 67 58 235 8 33 23 98 34 145 12 47 26 113 31 148 6 35 14 71 19 80
4 9 11 42 15 72 4 30 11 59 15 65 5 5 13 44 20 85 6 41 18 93 26 115 8 22 14
57 15 77 0 20 4 39 9 42 4 3 11 29 15 58 4 29 11 57 16 63 5 5 14 48 20 95 6
46 14 89 17 94 3 5 12 38 19 72 19 87 38 173 64 274 12 47 25 105 31 129 5 24
13 49 18 55 5 6 12 29 16 51 4 22 9 47 12 55 8 21 8 18 21 85 7 33 16 67 21
75 5 9 12 39 16 68 4 29 11 54 16 58 5 3 9 18 9 33 0 15 7 52 16 82 9 30 23
81 30 114 24 112 36 160 44 170 4 6 11 33 14 60 4 28 10 60 13 73 l5 22 -425
0 -426 0 -5 -32 c-11 -74 -19 -254 -25 -618 l-7 -385 -29 -63 c-38 -86 -88
-110 -133 -65 -7 7 -21 18 -30 25 -22 17 -65 100 -82 158 -7 25 -16 58 -21 74
-5 16 -9 42 -9 58 0 16 -4 38 -10 48 -8 16 -11 81 -9 250 0 42 7 67 31 113 5
10 6 22 3 27 -4 6 -1 10 5 10 6 0 8 5 4 11 -3 6 -2 14 4 18 6 4 12 28 14 54 2
29 8 47 16 47 6 0 12 5 12 11 0 5 -4 7 -10 4 -15 -9 -12 4 4 20 7 8 14 31 14
52 0 21 5 49 10 63 5 14 10 46 11 73 l3 47 -862 0 c-839 0 -861 0 -855 -19 4
-14 -5 -26 -42 -50 -101 -67 -592 -291 -637 -291 -14 0 -26 5 -26 12 0 6 37
48 83 92 45 45 96 99 114 122 31 40 57 109 47 126 -3 4 -162 8 -354 8 l-350 0
-17 -27 c-43 -67 -107 -145 -157 -191 -104 -94 -201 -120 -256 -67 -44 42 -80
142 -80 220 l0 65 -627 -2 -628 -3 -12 -50 c-7 -27 -16 -95 -19 -150 -8 -117
-41 -203 -99 -254 -64 -56 -106 -50 -164 22 -50 63 -64 132 -58 277 3 69 8
133 12 143 7 16 -54 17 -1185 17 l-1192 0 75 -80 c67 -72 201 -251 253 -337
10 -18 46 -76 78 -130 119 -195 238 -453 335 -723 29 -80 61 -166 72 -192 25
-62 25 -93 -1 -43 -11 22 -20 47 -20 57 0 10 -6 17 -12 16 -7 -2 -14 8 -16 22
-2 14 -7 27 -11 30 -11 9 -91 136 -91 146 0 5 -18 30 -40 54 -23 25 -48 56
-58 70 -9 14 -25 31 -35 39 -10 7 -16 19 -13 26 3 8 -2 11 -15 8 -10 -3 -29 1
-42 10 -18 12 -24 12 -35 1 -6 -7 -12 -22 -12 -32 0 -11 -6 -25 -14 -32 -8 -6
-12 -18 -9 -27 4 -9 -1 -19 -10 -25 -10 -5 -17 -15 -17 -23 0 -7 -4 -15 -10
-17 -5 -1 -11 -21 -14 -42 -3 -22 -11 -43 -18 -47 -38 -24 -23 -281 23 -369
10 -20 22 -63 28 -97 5 -33 14 -69 19 -79 6 -11 15 -37 20 -59 6 -22 20 -74
32 -115 11 -41 23 -84 25 -95 2 -11 17 -61 34 -112 17 -51 31 -99 31 -108 0
-9 9 -41 20 -73 20 -55 62 -239 80 -352 9 -51 14 -193 11 -284 -1 -38 -2 -39
-20 -22 -22 20 -83 203 -206 621 -13 44 -28 105 -35 135 -32 150 -73 269 -178
510 -27 63 -63 153 -80 200 -17 47 -47 129 -67 183 -64 176 -107 247 -264 427
-46 52 -107 127 -136 165 -70 93 -117 139 -195 190 -86 56 -179 102 -325 160
-156 62 -204 87 -238 122 -37 40 -34 81 11 130 38 43 66 100 75 156 l6 37
-215 0 -214 0 0 -55 c0 -64 -20 -119 -48 -134 -12 -6 -36 -11 -56 -11 -46 0
-76 37 -76 95 0 23 -3 57 -6 74 l-6 31 -315 0 c-295 0 -314 -1 -309 -17 3 -10
8 -36 12 -58 6 -41 28 -120 46 -168 6 -15 24 -37 39 -48 74 -52 9 -128 -167
-192 -21 -8 -76 -29 -122 -46 -90 -34 -112 -38 -112 -18 0 14 74 90 129 132
22 17 44 40 50 53 6 12 15 22 21 22 16 0 12 78 -6 105 -9 13 -13 29 -10 34 4
5 2 12 -4 16 -6 4 -8 11 -5 16 4 5 1 9 -4 9 -6 0 -11 9 -11 19 0 10 -13 33
-29 50 -16 17 -32 45 -36 61 l-7 30 -1628 0 -1629 0 29 -64 c64 -143 165 -301
247 -383 84 -86 137 -125 233 -173 197 -98 284 -151 403 -248 102 -82 177
-133 252 -170 133 -66 188 -81 322 -87 112 -5 155 -13 165 -29 27 -41 -10
-107 -161 -291 -50 -60 -114 -144 -143 -185 -28 -41 -71 -98 -95 -128 -24 -29
-43 -56 -43 -61 0 -13 62 -81 74 -81 7 0 22 -10 34 -22 67 -72 171 -98 278
-69 93 25 214 136 282 258 16 29 89 83 111 83 9 0 23 -4 31 -10 19 -12 -7 -48
-115 -162 -44 -46 -94 -102 -111 -124 -18 -21 -60 -75 -95 -119 -154 -193
-346 -350 -480 -393 -148 -48 -245 -52 -523 -25 -246 23 -333 8 -611 -112 -55
-23 -147 -59 -205 -78 -214 -72 -302 -112 -515 -237 -153 -90 -197 -113 -233
-121 l-36 -8 51 48 c51 48 128 102 253 177 84 51 210 173 210 205 0 13 3 34 6
45 4 15 -2 29 -23 48 -15 14 -31 26 -35 26 -14 0 -56 46 -77 84 -28 49 -44
136 -36 187 9 50 50 90 147 141 40 21 76 38 80 38 5 0 37 14 71 30 35 17 67
30 71 30 4 0 20 10 35 21 16 12 34 18 39 15 6 -4 14 -1 19 6 4 7 22 21 38 30
17 9 32 25 34 35 2 9 11 23 20 30 12 9 13 15 4 21 -13 8 -6 52 8 52 5 0 9 5 9
10 0 6 -11 10 -25 10 -14 0 -25 -5 -25 -10 0 -7 -7 -7 -21 1 -21 11 -103 5
-304 -21 -38 -5 -97 -11 -130 -14 -120 -10 -445 -131 -665 -248 -292 -155
-420 -245 -531 -371 -111 -126 -161 -195 -343 -482 l-76 -121 0 -79 c0 -44 -2
-100 -4 -125 -11 -98 -7 -529 4 -550 6 -12 10 -31 8 -44 -2 -14 8 -33 25 -50
22 -22 40 -29 97 -35 109 -11 138 -52 110 -151 -37 -128 -226 -325 -355 -371
-70 -24 -112 -24 -211 2 -172 45 -346 193 -498 423 -42 63 -76 116 -76 119 0
8 -74 127 -132 213 -49 74 -149 208 -258 349 -26 34 -88 122 -139 197 -107
159 -237 308 -376 431 -281 249 -469 368 -775 492 -63 26 -132 56 -153 68 -43
24 -46 50 -5 55 14 2 34 12 43 22 16 17 15 22 -22 77 -22 32 -42 66 -46 76 -3
9 -13 17 -21 17 -7 0 -16 7 -20 15 -3 8 -10 15 -15 15 -11 0 -70 38 -111 71
-14 11 -30 23 -36 27 -16 11 -54 96 -60 134 -7 44 23 98 67 119 19 10 83 27
144 40 84 18 115 29 132 47 30 32 15 54 -46 70 -67 18 -205 47 -291 62 -41 7
-118 21 -171 32 -161 32 -244 27 -484 -29 -111 -26 -153 -55 -242 -168 -43
-55 -115 -145 -158 -199 -174 -216 -271 -366 -279 -434 -7 -49 17 -394 29
-424 4 -10 15 -18 25 -18 11 0 22 -4 25 -10 3 -5 15 -10 25 -10 24 0 50 -37
43 -59 -23 -63 -131 -144 -207 -155 -95 -15 -224 40 -366 153 -184 147 -234
180 -380 254 -85 43 -172 90 -192 103 -41 29 -68 77 -68 122 0 17 -6 37 -13
44 -7 7 -30 38 -51 68 -44 62 -56 72 -141 118 -33 18 -76 44 -95 56 -19 13
-64 41 -100 62 -87 52 -149 122 -150 171 0 13 12 30 30 43 27 19 39 21 152 17
68 -3 148 -8 178 -12 30 -3 76 -7 103 -8 26 0 47 -5 47 -9 0 -5 38 -8 85 -7
47 1 85 6 85 11 0 13 -31 58 -40 58 -4 0 -27 18 -51 40 -109 98 -104 92 -86
101 26 15 210 -18 348 -61 69 -22 142 -40 162 -40 34 0 37 2 48 43 9 32 9 68
0 147 -6 58 -13 173 -16 255 -3 83 -8 193 -11 245 -12 213 -80 381 -293 730
l-27 45 -247 3 -247 2 38 -77 c102 -204 106 -221 76 -337 -25 -97 -38 -95
-111 18 -67 103 -93 154 -109 216 -18 69 -18 121 1 146 8 10 15 22 15 27 0 10
-1674 9 -1686 -2 -26 -24 -136 -53 -222 -58 -91 -6 -93 -5 -166 31 l-74 36
-663 -2 -663 -3 45 -29 c152 -101 265 -275 324 -501 31 -116 29 -166 -8 -203
-22 -22 -33 -24 -92 -23 -37 1 -71 4 -76 7 -9 5 -150 32 -219 41 -113 14 -306
92 -440 178 -108 69 -146 96 -272 192 -165 126 -192 153 -248 256 l-46 82
-2396 3 -2397 2 57 -58 c31 -32 62 -65 68 -73 43 -58 122 -186 151 -244 19
-38 38 -78 44 -87 12 -24 11 -48 -2 -48 -6 0 -9 -6 -6 -14 3 -8 -4 -24 -15
-35 -16 -18 -26 -21 -51 -15 -18 3 -33 10 -35 15 -2 5 -15 6 -28 3 -15 -4 -24
-2 -24 5 0 6 -6 11 -13 11 -7 0 -20 9 -30 20 -9 11 -23 20 -30 20 -7 0 -20 8
-28 18 -46 52 -144 125 -226 168 -18 10 -33 21 -33 26 0 4 -9 8 -19 8 -11 0
-22 4 -25 8 -3 5 -45 21 -93 36 -48 15 -164 55 -258 88 -93 34 -201 69 -240
79 -38 11 -109 30 -157 44 l-87 25 -2178 0 -2178 -1 89 -85 c49 -46 98 -86
110 -88 109 -21 148 -30 191 -46 28 -10 69 -24 93 -30 59 -15 175 -74 249
-126 140 -100 143 -173 9 -239 -47 -23 -73 -27 -212 -36 -182 -11 -219 -6
-369 48 -138 50 -245 112 -245 144 0 5 13 12 30 16 16 3 30 7 30 10 0 2 -11
19 -25 37 -14 18 -25 37 -25 42 0 5 -39 34 -86 64 -47 30 -152 108 -232 172
l-147 117 -1265 0 c-1193 0 -1264 -1 -1240 -17 87 -59 173 -175 201 -269 14
-51 2 -105 -32 -142 -20 -22 -27 -23 -103 -17 -58 5 -96 2 -136 -9 -70 -19
-143 -19 -179 -1 -35 19 -91 87 -125 153 -23 47 -25 58 -17 114 7 52 13 66 43
93 31 28 68 77 68 91 0 3 -2450 5 -5445 5 l-5446 0 17 -32z m8615 -363 c14 -1
30 -4 35 -7 5 -3 32 -11 59 -18 28 -7 61 -22 74 -32 13 -10 34 -18 46 -18 12
0 28 -7 35 -15 7 -9 36 -27 64 -41 46 -23 130 -72 180 -106 19 -13 196 -189
228 -227 16 -19 61 -84 83 -120 5 -9 22 -35 37 -58 15 -23 28 -47 28 -55 0 -7
9 -19 20 -25 11 -7 27 -27 35 -43 9 -17 24 -40 33 -50 63 -69 123 -210 162
-374 43 -186 51 -266 57 -557 6 -305 -4 -418 -48 -546 -34 -101 -50 -105 -132
-32 -78 69 -148 180 -314 492 -129 244 -272 452 -490 715 -72 86 -100 135
-179 317 -27 61 -60 130 -74 155 -14 25 -32 61 -40 80 -8 19 -20 41 -27 48 -7
7 -13 19 -13 26 0 7 -15 33 -34 58 -19 25 -45 63 -58 85 -27 48 -83 113 -97
113 -6 0 -26 24 -45 54 -61 90 -46 146 48 181 38 14 155 14 327 0z m15594
-348 c33 -16 132 -78 221 -137 215 -143 347 -226 474 -295 489 -268 666 -402
865 -660 17 -21 44 -55 60 -74 55 -64 85 -109 106 -158 19 -43 20 -60 15 -158
-3 -60 -8 -123 -11 -140 -4 -16 -8 -94 -11 -173 -4 -166 -16 -205 -69 -222
-38 -13 -101 -1 -143 26 -68 44 -194 156 -407 360 -309 297 -306 294 -553 457
-279 184 -262 173 -367 228 -103 54 -127 82 -106 123 12 21 11 30 -3 60 -9 20
-21 36 -26 36 -6 0 -10 7 -10 15 0 8 -3 15 -8 15 -4 0 -13 14 -20 30 -8 17
-19 30 -25 30 -7 0 -23 10 -37 23 -14 13 -52 38 -85 57 -85 48 -202 146 -231
192 -14 22 -28 55 -31 74 -7 42 7 48 125 59 45 4 82 11 82 16 0 5 14 15 30 24
25 13 30 21 30 54 0 21 -7 52 -15 67 -22 42 -19 80 8 99 28 19 61 13 142 -28z
m-20075 -351 c19 -8 61 -26 92 -40 31 -14 62 -26 68 -26 19 0 113 -43 156 -72
54 -36 122 -110 168 -183 49 -76 98 -135 112 -135 6 0 17 -7 24 -15 7 -8 20
-14 28 -13 23 4 53 -46 101 -168 78 -198 121 -406 121 -589 0 -145 -24 -197
-97 -210 -78 -13 -112 11 -373 260 -322 306 -319 303 -347 365 -14 33 -30 60
-34 60 -4 0 -11 15 -14 33 -4 17 -18 52 -31 77 -12 25 -26 59 -29 75 -4 17 -9
37 -12 45 -3 8 -8 23 -9 33 -2 9 -15 35 -29 57 -14 22 -25 42 -25 46 0 3 -16
28 -35 54 -68 92 -84 154 -69 264 8 52 47 102 87 108 29 5 103 -9 147 -26z
m9235 -736 c-3 -6 -17 -7 -31 -4 -14 4 -24 2 -24 -5 0 -15 53 -14 68 1 9 9 18
8 37 -2 22 -12 28 -12 34 -1 6 9 11 10 15 2 5 -8 13 -8 27 -1 10 6 19 7 19 2
0 -5 28 -12 63 -15 49 -5 81 -16 157 -57 132 -72 181 -109 285 -214 105 -106
206 -238 295 -386 95 -158 328 -621 361 -719 28 -84 83 -381 93 -511 12 -143
19 -329 12 -353 -9 -37 -33 -57 -67 -57 -57 0 -220 184 -404 455 -115 170
-143 204 -293 364 -70 73 -173 192 -230 262 -117 145 -201 226 -315 301 -43
29 -87 66 -97 84 -22 34 -26 69 -10 79 13 8 -15 75 -37 93 -9 6 -14 12 -10 12
15 0 -127 202 -172 244 -17 17 -31 34 -31 38 0 5 -9 19 -21 31 -58 62 -102
194 -79 237 6 12 14 19 17 16 3 -3 14 6 25 19 11 14 28 25 39 25 11 0 29 4 39
10 10 5 36 13 57 16 21 3 40 10 41 15 2 5 19 9 37 9 19 0 37 5 40 10 3 6 20
10 36 10 18 0 28 -4 24 -10z m31912 -50 c29 -13 52 -34 73 -67 29 -44 31 -53
26 -113 -4 -58 -19 -106 -70 -222 -32 -75 -139 -264 -164 -291 -22 -23 -28
-25 -40 -13 -29 29 -38 366 -13 491 19 95 43 175 53 175 4 0 8 7 8 15 0 13 50
42 75 44 6 0 29 -8 52 -19z m-1720 -52 c-3 -8 -6 -5 -6 6 -1 11 2 17 5 13 3
-3 4 -12 1 -19z m168 -443 c99 -258 122 -325 154 -450 18 -70 75 -345 102
-490 5 -27 30 -153 54 -280 53 -275 79 -482 120 -945 9 -96 18 -191 20 -210
33 -255 36 -433 11 -495 -21 -49 -67 -96 -114 -116 -39 -17 -52 -18 -105 -8
-95 17 -152 54 -223 144 -87 110 -146 263 -205 530 -21 99 -44 198 -49 220 -5
22 -19 85 -30 140 -11 55 -25 120 -30 145 -14 65 -65 356 -85 485 -9 61 -23
146 -30 190 -20 113 -29 235 -19 235 10 0 56 -72 90 -140 39 -79 63 -181 84
-355 11 -93 25 -192 30 -220 5 -27 14 -79 20 -115 18 -100 51 -228 69 -264 22
-45 64 -92 88 -100 22 -7 59 26 48 43 -3 6 0 11 8 11 15 0 57 109 57 147 0 11
3 23 7 26 3 4 7 17 8 30 1 12 8 72 15 132 22 186 4 854 -30 1125 -22 168 -72
412 -104 497 -8 21 -24 76 -36 123 -12 47 -26 96 -31 110 -14 40 -49 211 -48
239 0 16 12 -6 31 -59 17 -47 72 -193 123 -325z m-23967 -151 c111 -22 -39
-116 -154 -97 -43 7 -49 12 -49 32 0 49 109 84 203 65z m27314 -36 c24 -43 14
-438 -11 -438 -20 0 -31 89 -31 253 0 96 3 182 6 191 9 22 21 20 36 -6z
m-45438 -804 c12 -5 16 -21 16 -70 0 -64 36 -224 52 -235 5 -3 11 -26 14 -50
2 -24 7 -61 10 -81 13 -79 -60 -140 -216 -184 -112 -32 -157 -32 -171 0 -9 18
-7 31 5 58 14 30 16 68 13 272 -2 192 0 239 11 248 32 27 226 57 266 42z
m45455 -418 c17 -20 38 -142 50 -286 13 -145 37 -276 57 -305 8 -11 14 -36 14
-55 0 -20 6 -42 13 -49 6 -6 13 -26 14 -44 1 -18 5 -49 9 -70 8 -45 -11 -79
-57 -103 -38 -19 -115 -22 -132 -5 -8 8 -14 70 -19 179 -3 92 -11 239 -17 327
-13 195 -15 363 -5 390 14 36 52 47 73 21z m-2514 -462 c-14 -45 -32 -89 -39
-99 -11 -16 -13 -14 -14 16 -2 71 20 186 46 239 l27 55 3 -65 c2 -48 -4 -85
-23 -146z m-14146 -28 c25 -30 32 -93 46 -411 8 -181 19 -364 24 -405 5 -41 8
-199 7 -350 -2 -221 -6 -291 -20 -355 -24 -106 -40 -144 -68 -154 -55 -20 -65
11 -73 224 -7 212 -8 1353 0 1389 3 14 7 37 10 51 4 20 12 25 34 25 16 0 34
-6 40 -14z m-4449 -633 c26 -901 38 -1134 64 -1162 15 -16 18 -35 36 -221 12
-128 13 -557 0 -580 -5 -10 -20 -20 -34 -24 -15 -4 -26 -16 -31 -33 -10 -42
-34 -63 -70 -63 -22 0 -35 6 -40 18 -4 9 -10 373 -13 808 -5 813 2 1109 34
1414 18 176 20 188 35 173 6 -6 14 -141 19 -330z m-15808 268 c24 -19 48 -78
55 -136 2 -16 6 -37 10 -45 3 -8 7 -17 8 -20 1 -3 4 -12 8 -20 8 -20 28 -111
29 -130 0 -8 6 -35 13 -60 14 -51 10 -187 -7 -240 -6 -19 -20 -47 -31 -62 -56
-76 -345 -167 -406 -129 -10 7 -12 19 -7 47 7 37 15 299 19 601 1 97 6 146 14
154 13 13 197 57 244 58 15 1 37 -8 51 -18z m27936 -1448 c12 -30 53 -248 72
-378 7 -44 21 -109 31 -145 23 -83 39 -216 40 -340 1 -85 -144 -167 -199 -112
-19 19 -20 38 -26 423 -4 222 -9 434 -12 471 -5 58 -3 69 15 87 30 30 66 27
79 -6z m11952 -311 c16 -13 27 -41 40 -102 74 -354 87 -404 125 -505 57 -149
86 -242 89 -285 3 -57 -18 -146 -41 -172 -25 -28 -119 -68 -160 -68 -79 0 -89
25 -98 240 -3 85 -13 256 -21 379 -8 124 -14 285 -14 358 0 120 2 135 20 153
25 25 32 25 60 2z m-34928 -122 c20 -1 31 -57 43 -228 8 -103 19 -212 25 -242
5 -30 16 -95 24 -145 8 -49 24 -133 36 -185 12 -58 23 -153 26 -245 6 -146 6
-151 -17 -184 -20 -29 -40 -40 -134 -72 -114 -40 -159 -47 -171 -28 -11 18 -4
1280 7 1301 15 28 47 38 104 33 28 -2 53 -4 57 -5z m-9804 -456 c17 -12 22
-25 22 -58 0 -47 29 -213 60 -348 50 -216 86 -453 81 -543 -3 -53 -30 -76
-126 -106 -95 -30 -163 -37 -182 -18 -15 15 -6 1025 9 1052 19 36 97 49 136
21z m25192 -530 c6 -14 10 -49 10 -79 0 -59 31 -281 55 -390 16 -72 37 -170
61 -285 7 -36 13 -94 14 -131 0 -61 -2 -67 -33 -97 -37 -36 -159 -82 -218 -82
-72 0 -67 -43 -69 615 -1 518 -11 475 102 475 64 0 69 -2 78 -26z m-4441 -418
c6 -4 11 -28 11 -54 1 -92 38 -361 78 -567 52 -265 62 -337 62 -428 0 -67 -2
-75 -27 -99 -31 -28 -163 -85 -221 -94 -61 -9 -76 10 -78 97 -9 321 -14 1035
-8 1082 5 46 11 61 28 68 23 10 137 6 155 -5z"/>
<path d="M14106 20022 c54 -50 219 -159 299 -197 87 -42 165 -65 165 -50 0 9
-34 54 -70 95 -12 14 -50 58 -83 98 l-61 72 -135 0 c-130 0 -134 -1 -115 -18z"/>
<path d="M30430 20035 c0 -2 12 -21 26 -42 47 -69 76 -136 135 -308 31 -93 69
-197 84 -230 15 -33 30 -69 35 -80 40 -91 62 -133 112 -211 43 -67 52 -72 105
-67 26 2 57 8 68 13 11 5 51 23 88 39 38 17 73 29 78 25 5 -3 16 2 25 10 8 9
30 16 47 17 18 0 41 2 52 5 11 2 45 6 75 10 62 7 140 32 140 45 0 5 9 9 20 9
21 0 27 15 10 25 -6 4 -7 12 -3 18 14 22 12 42 -8 75 -10 18 -19 42 -19 53 0
10 -4 19 -9 19 -5 0 -12 15 -15 34 -4 19 -13 39 -21 46 -8 7 -15 23 -15 37 0
13 -7 26 -15 29 -8 4 -15 11 -15 16 0 6 -9 29 -19 52 -68 144 -73 276 -12 349
13 16 -10 17 -467 17 -265 0 -482 -2 -482 -5z"/>
<path d="M31826 20031 c5 -5 33 -19 62 -30 67 -27 151 -27 225 -2 109 38 103
40 -102 41 -120 0 -191 -4 -185 -9z"/>
<path d="M32368 20013 c28 -42 57 -129 107 -328 25 -99 59 -221 75 -270 36
-109 149 -342 215 -444 91 -140 230 -264 359 -322 l46 -20 53 45 c28 25 55 46
59 46 9 0 12 -14 33 -124 8 -43 21 -86 29 -95 23 -25 60 -24 86 4 20 22 21 28
12 77 -5 29 -17 78 -25 108 -8 30 -29 177 -46 325 -52 454 -69 548 -122 694
-33 87 -104 241 -137 296 l-19 30 -111 3 -112 3 6 -33 c4 -18 12 -46 19 -63 8
-16 12 -45 11 -62 -2 -21 2 -33 9 -33 19 0 27 -83 10 -96 -13 -10 -12 -19 4
-70 31 -97 53 -213 47 -239 -18 -71 -64 13 -157 287 -44 128 -87 250 -96 271
l-16 37 -179 0 -179 0 19 -27z m582 -283 c0 -5 -2 -10 -4 -10 -3 0 -8 5 -11
10 -3 6 -1 10 4 10 6 0 11 -4 11 -10z"/>
<path d="M33182 20033 c2 -5 26 -55 54 -113 28 -58 66 -138 85 -179 29 -63 40
-77 79 -98 131 -71 166 -93 219 -138 31 -28 77 -66 102 -85 69 -55 154 -146
207 -224 61 -88 165 -281 193 -356 22 -62 90 -140 120 -140 11 0 30 -7 42 -15
40 -26 197 -52 304 -51 89 1 104 4 162 34 36 17 68 32 72 32 5 0 25 11 45 25
23 15 51 25 73 25 47 0 75 -32 139 -165 47 -96 66 -139 67 -150 1 -5 11 -30
23 -55 13 -25 25 -62 29 -82 3 -24 11 -38 20 -38 8 0 11 -5 8 -10 -4 -6 5 -26
19 -45 14 -18 26 -45 26 -59 0 -16 6 -26 14 -26 8 0 19 -15 25 -33 11 -34 42
-67 63 -67 6 0 26 -5 44 -12 37 -13 136 4 165 29 8 7 19 13 22 13 4 0 60 30
124 67 65 36 163 90 218 118 95 50 347 213 427 278 87 70 186 231 228 370 31
104 60 173 143 347 41 85 80 173 86 195 13 49 21 195 11 195 -4 0 -15 18 -26
40 -19 40 -54 63 -96 61 -52 -1 -112 -12 -125 -22 -7 -6 -13 -8 -13 -4 0 5 -8
1 -17 -7 -22 -18 -108 -58 -127 -58 -7 0 -19 -7 -26 -15 -7 -8 -18 -15 -25
-15 -7 0 -18 -7 -25 -15 -7 -8 -21 -15 -31 -15 -11 0 -19 -6 -19 -14 0 -8 -10
-16 -23 -20 -13 -3 -55 -33 -93 -67 -95 -84 -126 -98 -245 -109 -110 -11 -148
-5 -251 34 -160 60 -246 113 -443 270 -135 107 -179 136 -309 200 -185 92
-307 134 -490 166 -69 12 -1280 14 -1274 3z"/>
<path d="M35321 20011 c25 -16 78 -46 118 -67 l73 -38 66 17 c82 22 92 30 92
78 l0 39 -197 0 -198 0 46 -29z"/>
<path d="M51676 19893 c3 -82 10 -157 15 -168 6 -12 8 -95 4 -205 -3 -102 -7
-268 -10 -369 -4 -122 -2 -188 5 -195 12 -12 14 -398 1 -411 -15 -17 -31 -751
-21 -1005 11 -298 12 -663 0 -715 -22 -104 -38 -159 -55 -192 -8 -15 -15 -36
-15 -45 0 -9 -4 -20 -10 -23 -5 -3 -14 -25 -20 -48 -6 -23 -15 -51 -20 -62
-30 -66 -51 -268 -31 -288 6 -6 11 -20 11 -31 0 -25 50 -126 62 -126 4 0 8 -4
8 -9 0 -13 45 -61 69 -75 92 -54 107 -60 171 -60 51 0 76 6 118 28 98 50 164
125 191 216 8 25 18 59 24 77 8 23 7 43 -1 70 -6 21 -16 69 -22 106 -9 60 -23
102 -50 157 -4 9 -11 31 -15 50 -4 19 -13 44 -19 55 -7 11 -16 38 -20 60 -4
22 -12 45 -16 50 -21 25 -49 347 -32 368 5 7 12 59 16 117 4 57 11 109 16 115
10 12 44 338 44 415 -1 79 -34 462 -42 480 -15 36 -34 311 -35 500 0 155 4
229 18 305 20 111 22 249 10 728 l-7 277 -24 0 -23 0 -3 -397 c-3 -375 -4
-400 -23 -430 -32 -54 -59 -41 -81 38 -23 84 -62 421 -80 687 l-7 102 -53 0
-54 0 6 -147z m222 -1255 c16 -20 43 -361 45 -568 2 -181 2 -185 -19 -188 -35
-5 -44 20 -55 144 -12 140 -17 581 -7 607 9 20 22 22 36 5z m0 -1717 c8 -5 21
-58 32 -132 30 -203 40 -259 61 -351 27 -124 26 -182 -6 -213 -27 -28 -94 -35
-114 -11 -6 8 -11 49 -10 102 0 49 -3 197 -6 330 -8 268 -3 304 43 275z"/>
<path d="M50620 13296 c0 -2 7 -7 16 -10 8 -3 12 -2 9 4 -6 10 -25 14 -25 6z"/>
</g>
</svg>
