<svg width="1920" height="470" viewBox="0 0 1920 470" fill="none" xmlns="http://www.w3.org/2000/svg">
<g clip-path="url(#clip0_36_355)">
<path d="M-106.93 0.750565C-106.555 1.17271 -106.097 1.57143 -105.973 1.64178C-105.848 1.71214 -105.265 2.2281 -104.766 2.81444C-104.225 3.40076 -102.851 4.80795 -101.728 5.98061C-100.604 7.12981 -99.397 8.46663 -99.0641 8.91225C-98.6895 9.35785 -97.8572 10.4132 -97.1497 11.2576C-94.9856 13.8139 -94.3613 14.6113 -93.4457 15.9482C-92.4469 17.3554 -92.2388 17.6133 -90.9903 19.3254C-90.4909 19.9586 -90.1163 20.5919 -90.1163 20.7326C-90.1163 20.8733 -89.8666 21.272 -89.5337 21.6238C-89.2007 21.9756 -88.8262 22.5854 -88.6597 23.0076C-88.4932 23.4532 -88.2019 23.9457 -88.0354 24.1568C-87.536 24.6727 -86.0794 27.4402 -85.7465 28.3783C-85.6216 28.8239 -85.3303 29.4102 -85.1222 29.6682C-84.3731 30.6533 -82.75 34.523 -81.7512 37.7595C-79.92 43.5993 -79.7119 44.514 -78.0888 53.9422C-77.5894 56.8973 -77.5478 69.7261 -78.0472 71.532C-78.838 74.3698 -79.379 75.8708 -79.7119 76.1053C-79.8784 76.2226 -80.1281 76.6448 -80.2946 77.0435C-80.461 77.4187 -80.8356 78.052 -81.1685 78.4507C-81.4599 78.8259 -82.1674 79.7875 -82.6668 80.5614C-83.1662 81.3354 -83.7072 82.1797 -83.9153 82.4377C-84.0818 82.6957 -84.6228 84.009 -85.0806 85.3693C-85.9962 87.9961 -86.1626 89.8254 -85.5384 91.3499C-84.706 93.5075 -84.2482 94.4457 -83.7072 95.1024C-82.8749 96.1108 -81.2934 97.9402 -80.3778 98.9487C-79.2957 100.098 -71.9711 104.155 -70.0567 104.671C-69.2243 104.906 -68.392 105.164 -68.2671 105.281C-68.1839 105.398 -66.6024 105.774 -64.8545 106.125C-63.0649 106.477 -61.1505 106.876 -60.6095 107.04C-59.2777 107.392 -45.5023 107.392 -44.7116 107.04C-44.3787 106.899 -43.255 106.665 -42.1729 106.501C-39.6759 106.172 -34.5569 104.812 -32.3096 103.897C-31.394 103.499 -30.4784 103.194 -30.2703 103.194C-29.8541 103.194 -26.0253 101.013 -26.0253 100.755C-26.0253 100.661 -25.3178 100.098 -24.4023 99.4881C-22.3214 98.034 -19.0336 94.3284 -18.2012 92.4052C-17.1608 90.0599 -17.2857 85.252 -18.4093 83.024C-19.3665 81.1712 -20.2405 79.7875 -20.6983 79.3888C-20.8231 79.2481 -21.0729 78.7321 -21.2393 78.2161C-21.4058 77.7001 -21.6971 77.1607 -21.9052 77.0435C-23.4034 75.9412 -23.4034 67.029 -21.9052 64.1443C-21.3642 63.1123 -20.6151 61.4941 -20.1989 60.2745C-19.9492 59.6882 -19.6162 59.008 -19.4498 58.7501C-19.2417 58.4921 -18.5758 57.3898 -17.9515 56.2875C-16.8279 54.3643 -15.7458 52.9102 -14.6637 51.9487C-14.414 51.6907 -13.6649 51.034 -12.9991 50.4711C-12.3748 49.9082 -11.8754 49.3688 -11.8754 49.275C-11.8754 49.1812 -10.7517 48.3838 -9.37833 47.5395C-6.58996 45.8274 -2.88599 44.6078 1.44222 43.9981C4.2306 43.5993 16.591 43.4586 17.0072 43.8339C17.132 43.9277 18.2557 44.0919 19.5458 44.1857C20.836 44.256 22.1677 44.4202 22.5839 44.5375C22.9585 44.6547 24.6232 45.03 26.2046 45.4052C27.8277 45.757 29.2843 46.1323 29.534 46.2496C29.7421 46.3434 30.1583 46.4372 30.4496 46.4372C30.7826 46.4372 31.5317 46.6248 32.156 46.8828C32.7802 47.1173 34.1952 47.6098 35.3189 47.9851C36.4426 48.3603 37.8992 48.8528 38.5234 49.0639C42.7268 50.4946 53.4641 56.1233 58.3334 59.4771C61.7876 61.8224 62.62 62.4556 62.62 62.6667C62.62 62.784 63.0778 63.2296 63.6604 63.6517C65.0754 64.7071 66.9066 66.6303 69.5701 69.8903C71.5261 72.2825 72.0671 73.0095 72.3585 73.8069C72.5249 74.2291 72.8579 74.6278 73.066 74.6982C73.2741 74.792 73.4405 75.0265 73.4405 75.2376C73.4821 75.4487 73.8151 76.0584 74.2729 76.5744C74.7307 77.0904 75.0636 77.7471 75.1052 78.052C75.1052 78.3334 75.2717 78.7555 75.5214 78.9901C76.0208 79.4826 77.1029 81.7575 77.6439 83.4931C77.8936 84.1967 78.2265 84.9941 78.4346 85.252C78.8924 85.8853 80.5571 90.0599 81.8889 93.9297C82.1802 94.7036 82.5131 95.4307 82.638 95.5714C82.8045 95.6887 83.0542 96.3923 83.2206 97.0959C83.3455 97.7995 83.6368 98.6907 83.8449 99.0894C84.053 99.4646 84.5108 100.731 84.8437 101.904C85.1767 103.053 85.6345 104.484 85.8842 105.07C86.0922 105.656 86.3003 106.547 86.342 107.063C86.342 107.603 86.5084 108.119 86.7165 108.236C86.9246 108.377 87.2992 109.573 87.5905 110.933C87.8402 112.27 88.2147 113.536 88.4228 113.748C88.5893 113.935 88.8806 114.991 89.0055 116.093C89.1719 117.195 89.4633 118.297 89.6713 118.555C89.8794 118.813 90.2124 119.869 90.4621 120.901C90.7118 121.933 91.1696 123.926 91.5025 125.357C91.8771 126.764 92.1684 128.335 92.2516 128.828C92.2933 129.32 92.4597 129.766 92.6262 129.836C92.7927 129.883 93.0424 131.079 93.2088 132.51C93.3753 133.941 93.6666 135.137 93.8331 135.207C93.9996 135.278 94.2909 136.614 94.4574 138.186C94.6238 139.78 94.9152 141.539 95.1233 142.126C95.2897 142.712 95.7891 146.3 96.1637 150.1C96.9544 157.91 96.5799 162.741 95.0816 165.133C94.4157 166.259 92.3349 168.792 91.3361 169.8C90.7118 170.387 87.3408 174.28 86.1755 175.687C84.8437 177.376 83.0126 180.495 83.0126 181.152C83.0126 181.433 82.7628 181.808 82.4715 181.973C81.8473 182.324 81.8056 189.079 82.4715 189.548C82.7212 189.712 83.0542 190.228 83.2206 190.674C84.0114 192.831 86.8414 195.646 90.254 197.663C92.7927 199.164 97.2041 200.852 99.2434 201.11C100.034 201.204 100.908 201.368 101.158 201.486C102.032 201.884 107.817 202.213 111.396 202.072C119.927 201.72 127.335 199.375 133.411 195.106C135.451 193.699 137.157 191.635 138.822 188.563C139.612 187.109 139.571 182.371 138.697 180.12C138.031 178.29 136.449 175.476 135.867 175.077C135.7 174.937 135.409 174.585 135.243 174.257C135.076 173.928 133.786 172.286 132.329 170.621C128.625 166.282 128.126 165.626 127.335 164.054C126.919 163.28 126.461 162.46 126.253 162.249C126.045 162.014 125.754 161.24 125.629 160.49C125.462 159.739 125.129 158.989 124.88 158.801C124.214 158.332 124.256 143.58 124.921 140.953C125.213 139.851 125.629 137.224 125.879 135.09C126.128 132.956 126.711 129.203 127.169 126.764C129.416 114.522 129.832 112.481 130.457 110.347C130.665 109.573 131.081 107.673 131.33 106.125C131.58 104.577 131.913 103.17 132.121 102.959C132.288 102.772 132.579 101.599 132.745 100.379C132.912 99.1597 133.162 98.034 133.37 97.9167C133.536 97.776 133.786 96.8379 133.952 95.8294C134.119 94.7975 134.369 93.8359 134.535 93.7186C134.826 93.4137 134.826 93.4372 135.451 90.6463C135.7 89.4971 136.075 88.2775 136.325 87.9492C136.533 87.6208 136.907 86.6827 137.115 85.8384C137.656 83.7276 138.655 80.6552 138.988 80.0924C139.113 79.8344 139.488 78.7321 139.82 77.6298C140.611 74.8858 141.485 72.4232 141.776 72.0011C141.901 71.8134 142.234 71.016 142.484 70.2421C143.191 67.9906 144.398 65.1059 144.648 64.8479C144.815 64.7071 145.064 64.0739 145.231 63.4407C145.397 62.784 145.647 62.1508 145.855 62.0335C146.021 61.8928 146.271 61.3768 146.438 60.8608C146.812 59.6647 148.269 56.7565 148.81 56.2406C149.018 56.006 149.184 55.6777 149.184 55.4901C149.184 55.021 151.64 50.8698 152.93 49.1343C155.261 46.0619 157.674 43.2476 158.965 42.0984C159.547 41.5824 160.171 40.9492 160.38 40.6912C160.588 40.4332 161.878 39.4482 163.293 38.5335C164.708 37.5954 165.831 36.7511 165.831 36.6338C165.831 36.3524 170.326 34.007 173.114 32.8109C176.028 31.5679 179.94 30.4187 183.727 29.7151C186.099 29.2695 187.306 29.1992 193.715 29.1992C199.958 29.2226 201.539 29.293 204.702 29.762C206.783 30.0669 208.739 30.3953 209.072 30.4891C209.447 30.5829 211.527 31.1692 213.692 31.7556C218.394 33.0689 220.267 33.6553 221.432 34.265C221.89 34.4996 222.39 34.7106 222.556 34.7106C222.723 34.7106 223.222 34.8748 223.638 35.0859C225.261 35.8129 235.999 41.9107 236.789 42.544C237.247 42.9192 238.121 43.529 238.704 43.9512C239.661 44.6078 242.699 47.1408 243.24 47.7271C243.365 47.8444 243.989 48.4307 244.697 49.017C245.737 49.9082 253.561 58.4217 253.644 58.7501C253.686 58.9846 254.185 59.7116 254.935 60.6732C255.392 61.2126 255.725 61.752 255.725 61.8928C255.725 62.01 256.017 62.4087 256.349 62.784C256.682 63.1358 257.348 64.0739 257.848 64.8479C258.347 65.6218 258.888 66.4192 259.055 66.6068C259.221 66.8179 259.512 67.3339 259.679 67.7795C259.845 68.2251 260.137 68.6942 260.303 68.8349C260.47 68.9521 260.844 69.5385 261.094 70.1248C261.635 71.4616 263.008 74.1118 263.341 74.5809C263.674 75.0265 264.382 76.6213 265.172 78.6852C265.505 79.5764 265.922 80.538 266.13 80.796C266.338 81.0539 266.629 81.781 266.754 82.4377C266.92 83.0709 267.17 83.7041 267.295 83.8449C267.461 83.9621 267.794 84.7595 268.086 85.6039C268.335 86.4482 268.752 87.6443 268.96 88.3009C270.458 92.6867 270.791 94.774 270.624 98.2685C270.416 101.833 269.709 104.202 268.377 105.938C268.044 106.336 267.794 106.759 267.794 106.876C267.794 106.97 267.212 107.744 266.504 108.588C264.465 110.957 264.09 111.473 263.799 112.223C263.633 112.598 263.383 113.021 263.216 113.161C263.05 113.278 262.634 114.029 262.342 114.803C262.051 115.577 261.677 116.327 261.468 116.468C261.011 116.82 260.262 120.314 260.262 122.191C260.22 124.817 261.552 128.758 263.216 130.986C265.297 133.823 269.209 137.599 270.375 137.857C270.541 137.904 270.708 138.068 270.708 138.209C270.708 138.514 275.285 141.188 275.826 141.188C276.035 141.188 277.158 141.633 278.365 142.196C280.945 143.392 285.44 144.659 289.852 145.433C292.598 145.925 293.764 145.996 299.84 145.996C306.707 145.996 308.496 145.831 313.782 144.729C314.78 144.518 321.231 142.712 322.729 142.243C326.017 141.188 333.342 137.06 336.213 134.644C337.92 133.214 340.417 130.329 341.041 129.016C341.291 128.5 341.624 128.007 341.832 127.96C342.04 127.89 342.331 127.21 342.498 126.483C342.664 125.732 342.956 125.005 343.205 124.841C343.746 124.466 343.829 117.477 343.288 117.008C343.08 116.82 342.706 116.046 342.456 115.272C341.957 113.794 341.332 112.645 340.375 111.566C340.042 111.191 339.793 110.792 339.793 110.652C339.793 110.534 339.543 110.089 339.21 109.69C338.17 108.377 336.546 105.469 336.005 103.944C335.173 101.458 336.172 94.9147 337.67 93.3434C337.878 93.1323 338.17 92.6163 338.294 92.1707C338.461 91.7251 338.752 91.1388 338.96 90.8808C339.127 90.6228 339.793 89.4736 340.417 88.3244C341.041 87.1752 341.832 85.9556 342.123 85.6273C342.456 85.299 342.706 84.8768 342.706 84.7126C342.706 84.5485 342.872 84.2436 343.08 84.009C343.788 83.1882 344.703 81.9452 345.203 81.1478C345.91 80.022 349.739 75.6128 350.988 74.4636C351.57 73.9477 352.652 73.1033 353.402 72.5639C354.151 72.0245 354.775 71.5085 354.775 71.3913C354.775 71.1098 361.933 67.0759 362.433 67.0759C362.599 67.0759 363.515 66.7241 364.472 66.2785C365.429 65.8563 368.301 64.9417 370.798 64.2615C376.791 62.6667 376.499 62.7136 380.453 62.1742C385.447 61.4706 397.308 61.4706 403.259 62.1742C405.548 62.4556 407.629 62.7605 407.837 62.8543C408.087 62.9716 408.961 63.1123 409.835 63.2061C410.667 63.3 411.5 63.4641 411.624 63.5814C411.749 63.6987 412.124 63.7925 412.457 63.7925C413.664 63.7925 424.068 66.8179 426.523 67.8733C427.314 68.2016 428.105 68.4831 428.23 68.4831C428.396 68.4831 429.437 68.8818 430.519 69.3509C431.642 69.8434 433.141 70.5001 433.931 70.8284C438.717 72.8923 449.704 79.0135 454.449 82.3439C454.907 82.6488 456.322 83.6572 457.653 84.5485C459.817 86.0729 462.98 88.5824 462.98 88.7935C462.98 88.8404 463.563 89.3329 464.229 89.8723C464.936 90.3883 465.477 90.9277 465.477 91.045C465.477 91.1622 465.935 91.6078 466.476 92.0065C468.516 93.5075 476.756 102.631 478.587 105.422C479.17 106.313 479.836 107.251 480.044 107.462C480.293 107.697 480.959 108.705 481.542 109.69C482.166 110.699 482.79 111.613 482.957 111.754C483.123 111.871 483.415 112.364 483.581 112.809C483.748 113.255 484.039 113.771 484.205 113.982C484.663 114.475 486.161 117.219 486.494 118.204C486.661 118.649 486.952 119.118 487.119 119.259C487.285 119.376 487.576 119.892 487.701 120.408C487.868 120.901 488.159 121.487 488.367 121.698C488.534 121.909 489.199 123.387 489.824 125.005C490.448 126.623 491.114 128.171 491.322 128.453C491.488 128.734 491.78 129.531 491.905 130.212C492.071 130.892 492.321 131.666 492.529 131.924C492.945 132.533 494.568 138.068 495.026 140.648C495.234 141.797 495.609 143.721 495.9 144.94C496.399 147.497 496.15 155.822 495.525 156.268C495.317 156.409 494.984 157.065 494.859 157.722C494.527 159.082 493.112 161.826 492.279 162.741C491.946 163.069 491.697 163.515 491.697 163.726C491.697 163.914 491.53 164.172 491.364 164.312C491.156 164.43 490.49 165.368 489.824 166.4C489.199 167.432 488.534 168.37 488.367 168.511C488.201 168.628 487.909 169.167 487.743 169.683C487.576 170.199 487.327 170.715 487.119 170.856C486.952 170.973 486.536 171.724 486.245 172.498C485.953 173.272 485.537 174.045 485.329 174.21C484.746 174.632 484.455 182.09 484.996 183.638C485.787 186.053 486.952 188.047 488.45 189.501C488.617 189.689 488.908 190.017 489.075 190.205C489.616 190.908 493.403 193.394 495.442 194.379C497.773 195.529 502.351 196.936 505.846 197.616C507.719 197.968 509.301 198.061 514.378 198.061C519.788 198.061 520.995 197.991 523.534 197.499C527.071 196.842 528.819 196.373 531.108 195.529C532.065 195.177 533.023 194.895 533.231 194.895C534.146 194.895 540.722 190.955 541.679 189.853C542.22 189.196 542.803 188.633 542.928 188.563C543.385 188.375 544.8 186.429 545.383 185.279C545.674 184.693 546.091 183.966 546.299 183.638C546.923 182.793 547.214 177.001 546.715 175.195C545.924 172.427 544.051 168.44 543.094 167.408C542.761 167.08 542.47 166.517 542.47 166.212C542.47 165.884 542.303 165.555 542.095 165.485C541.887 165.415 541.596 164.946 541.429 164.477C541.263 163.984 540.888 163.257 540.597 162.882C540.306 162.483 539.89 161.803 539.765 161.357C539.598 160.912 539.307 160.419 539.14 160.302C538.599 159.903 536.186 153.618 536.56 153.618C536.643 153.618 536.519 153.454 536.186 153.243C535.811 152.961 535.645 151.249 535.645 145.808C535.603 139.569 535.728 138.256 536.602 134.738C537.143 132.533 537.726 130.54 537.934 130.282C538.1 130.024 538.433 129.016 538.683 128.054C539.182 125.943 540.139 123.152 540.514 122.66C540.639 122.472 540.972 121.675 541.221 120.901C541.513 120.127 541.887 119.376 542.054 119.259C542.22 119.118 542.512 118.579 542.678 118.039C542.844 117.477 543.094 116.984 543.302 116.914C543.469 116.843 543.76 116.398 543.927 115.929C544.093 115.436 544.343 114.92 544.551 114.803C544.717 114.662 544.967 114.24 545.133 113.865C545.383 113.208 545.966 112.387 547.298 110.863C547.63 110.488 547.88 110.089 547.88 109.948C547.88 109.714 548.338 109.127 550.377 106.712C551.834 105 554.664 102.115 555.704 101.341C556.204 100.942 556.62 100.567 556.62 100.497C556.62 100.192 559.783 97.6353 561.822 96.275C562.987 95.5011 564.236 94.5864 564.652 94.2346C565.734 93.273 577.345 86.7765 578.011 86.7765C578.303 86.7765 578.885 86.5654 579.301 86.3074C580.009 85.8618 583.921 84.267 589.29 82.2032C590.455 81.781 594.076 80.6552 597.405 79.7406C605.312 77.536 605.729 77.4422 607.185 77.2545C607.893 77.1607 608.642 77.02 608.85 76.9262C609.1 76.8324 609.932 76.6682 610.723 76.5744C611.513 76.4806 612.429 76.3164 612.803 76.1992C613.719 75.9177 621.293 75.0969 624.456 74.9327C625.955 74.8389 627.536 74.6747 627.994 74.5574C629.326 74.2056 667.905 74.4636 676.104 74.8858C679.933 75.0734 683.47 75.3079 683.969 75.4017C687.34 76.0115 715.307 76.7151 716.181 76.2226C716.389 76.1053 717.18 75.9881 717.888 75.9881C718.554 75.9646 720.551 75.8239 722.258 75.6128C723.964 75.4252 726.419 75.1672 727.668 75.0265C728.916 74.9092 730.123 74.6982 730.373 74.5574C730.581 74.4402 731.08 74.3464 731.455 74.3464C732.246 74.3464 740.32 72.8923 742.442 72.3528C743.15 72.1887 744.814 71.8369 746.188 71.5555C747.561 71.274 749.226 70.8753 749.85 70.6877C750.516 70.5001 751.223 70.3593 751.473 70.3593C751.681 70.3593 752.555 70.1952 753.387 69.9841C757.632 68.9052 758.423 68.7176 760.546 68.2486C763.251 67.6388 766.705 66.7241 773.863 64.754C776.735 63.9801 779.274 63.3234 779.44 63.3234C779.648 63.3234 781.895 62.7605 784.434 62.0569C786.973 61.3533 789.511 60.6967 790.094 60.6028C791.176 60.4387 794.048 59.7116 800.332 58.023C802.371 57.4601 804.202 56.9911 804.327 56.9911C804.452 56.9911 806.158 56.5689 808.114 56.0529C810.029 55.537 811.818 55.1148 812.11 55.1148C812.359 55.1148 812.901 55.021 813.317 54.9037C813.691 54.763 815.231 54.3878 816.729 54.036C818.228 53.7076 819.809 53.3324 820.267 53.2151C820.725 53.1213 822.14 52.793 823.388 52.535C825.76 52.019 827.467 51.5969 829.756 51.034C830.463 50.8464 831.545 50.6353 832.128 50.5415C832.71 50.4711 833.543 50.3069 834.001 50.1897C835.041 49.9317 840.16 49.1108 842.116 48.8997C842.907 48.8059 843.822 48.6418 844.197 48.5245C845.362 48.1962 848.525 47.7975 854.809 47.2346C866.379 46.2261 883.525 46.5544 890.559 47.9616C896.968 49.2281 899.507 49.8144 903.918 51.1043C909.869 52.8164 911.534 53.3793 912.699 53.9656C913.157 54.2001 913.698 54.4112 913.906 54.4112C914.073 54.4112 915.03 54.7865 916.029 55.2321C916.986 55.6777 917.901 56.0529 917.985 56.0529C918.276 56.0529 920.398 57.0614 925.601 59.7351C931.302 62.6902 938.752 67.0524 940.458 68.4831C941.124 69.0694 942.123 69.7965 942.622 70.1248C943.122 70.4532 943.829 70.9926 944.121 71.3209C947.242 74.6278 949.031 76.7386 949.489 77.5125C949.78 78.0285 950.155 78.5445 950.321 78.6852C950.488 78.8024 950.779 79.4357 950.946 80.0924C951.112 80.7256 951.404 81.3823 951.57 81.4996C951.986 81.781 952.652 84.9003 953.276 89.4736C953.734 92.9447 953.526 120.854 952.985 121.956C952.86 122.284 952.569 124.958 952.361 127.937C952.194 130.892 951.82 134.175 951.612 135.207C951.362 136.239 951.071 138.186 950.946 139.546C950.779 140.906 950.405 143.439 950.072 145.175C949.406 148.458 948.948 151.624 948.199 157.933C947.658 162.53 948.282 167.174 950.363 174.374C951.029 176.696 951.029 185.115 950.363 186.452C950.072 187.038 949.656 187.977 949.406 188.563C949.156 189.149 948.823 189.712 948.657 189.853C948.49 189.97 948.241 190.486 948.074 190.955C947.908 191.424 947.533 192.128 947.2 192.48C946.867 192.831 946.576 193.3 946.576 193.512C946.576 193.699 946.409 193.957 946.201 194.098C946.035 194.215 945.327 195.153 944.745 196.185C944.121 197.217 943.455 198.155 943.247 198.296C943.08 198.413 942.705 199.093 942.414 199.774C942.164 200.43 941.748 201.04 941.582 201.11C941.374 201.181 941.082 201.744 940.916 202.353C940.791 202.963 940.5 203.573 940.333 203.69C939.834 204.042 939.085 208.17 939.085 210.421C939.126 212.907 939.751 215.698 940.5 216.589C940.833 216.965 941.415 217.762 941.873 218.348C942.705 219.521 945.66 222.171 946.201 222.288C946.409 222.335 946.576 222.5 946.576 222.664C946.576 223.016 949.572 224.681 950.197 224.681C950.488 224.681 950.863 224.821 951.029 224.986C951.404 225.361 954.899 226.721 956.98 227.331C961.475 228.597 971.63 229.02 977.706 228.199C981.243 227.706 986.154 226.51 987.028 225.924C987.278 225.76 987.694 225.619 987.985 225.619C988.693 225.619 996.101 221.515 996.101 221.139C996.101 220.975 996.351 220.67 996.683 220.483C997.807 219.779 999.763 217.293 1000.72 215.299C1001.59 213.517 1001.72 212.813 1001.72 208.944C1001.72 206.153 1001.55 204.441 1001.26 204.253C1001.01 204.065 1000.55 203.198 1000.26 202.306C999.971 201.415 999.472 200.407 999.18 200.078C998.848 199.75 998.598 199.304 998.598 199.093C998.598 198.882 998.306 198.39 997.974 198.038C997.641 197.663 997.349 197.194 997.349 196.983C997.349 196.772 997.224 196.537 997.058 196.443C996.85 196.349 996.725 196.185 996.683 196.115C996.642 195.857 995.726 194.567 995.268 194.145C995.019 193.91 994.852 193.605 994.852 193.465C994.852 193.324 994.603 192.878 994.27 192.48C993.312 191.213 991.523 187.906 991.523 187.32C991.523 187.038 991.273 186.64 991.023 186.476C990.316 186.1 990.274 174.843 990.94 173.999C991.606 173.225 992.771 169.05 993.271 165.813C993.77 162.765 993.229 154.814 992.189 149.162C991.856 147.285 991.565 145.175 991.565 144.448C991.523 143.721 991.398 143.064 991.231 142.97C991.023 142.876 990.69 140.672 990.399 138.068C990.108 135.465 989.692 131.947 989.484 130.282C988.651 124.067 988.069 114.967 987.902 104.484C987.736 95.1962 987.777 93.3199 988.402 90.9981C988.776 89.5205 989.359 87.8084 989.692 87.1987C990.025 86.5889 990.274 85.9556 990.274 85.768C990.274 85.5804 990.649 84.9237 991.148 84.2905C991.606 83.6572 992.272 82.766 992.647 82.3204C993.812 80.7491 994.644 79.8578 995.934 78.8024C996.642 78.2161 997.308 77.6063 997.391 77.4422C997.807 76.7386 1006.8 71.0629 1007.46 71.0629C1007.67 71.0629 1008.96 70.4766 1010.38 69.773C1011.75 69.0694 1013.08 68.4831 1013.29 68.4831C1013.5 68.4831 1014.25 68.2251 1015 67.8733C1016.99 66.9586 1020.57 65.6922 1023.36 64.9417C1024.73 64.5664 1026.15 64.1677 1026.48 64.0505C1027.56 63.6752 1032.39 62.4791 1035.01 61.9397C1036.39 61.6348 1037.88 61.3299 1038.34 61.2126C1040.09 60.8374 1045.92 60.0165 1047.91 59.8993C1049.08 59.8289 1050.37 59.6647 1050.83 59.5475C1051.83 59.2895 1062.98 58.8204 1068.72 58.8204C1074.13 58.797 1085.5 59.266 1086.83 59.5475C1087.41 59.6882 1088.99 59.8758 1090.36 60.0165C1093.44 60.298 1097.44 60.9077 1099.1 61.3064C1099.81 61.4941 1100.81 61.7286 1101.39 61.8693C1103.85 62.4087 1109.72 64.1208 1112.01 64.9651C1113.38 65.4811 1114.88 65.9736 1115.33 66.0909C1115.79 66.2081 1117.5 67.0055 1119.12 67.8733C1120.79 68.7176 1122.24 69.4212 1122.37 69.4212C1122.7 69.4212 1125.57 71.1098 1127.82 72.5874C1130.69 74.5105 1133.36 77.1842 1135.1 79.8578C1135.6 80.6318 1136.19 81.4292 1136.35 81.6403C1136.56 81.8279 1136.81 82.7426 1136.98 83.6338C1137.14 84.525 1137.52 85.3928 1137.77 85.5804C1138.35 86.0025 1138.31 107.275 1137.68 107.72C1137.48 107.861 1137.18 110.581 1137.02 113.748C1136.89 116.914 1136.48 121.815 1136.14 124.653C1135.44 130.657 1135.35 140.601 1135.98 144.471C1136.52 148.036 1137.52 155.236 1138.06 159.598C1138.31 161.522 1138.68 163.492 1138.89 163.937C1139.81 165.743 1138.81 176.086 1137.6 176.954C1137.43 177.071 1137.14 177.61 1136.98 178.126C1136.81 178.642 1136.56 179.158 1136.39 179.299C1136.23 179.416 1135.85 179.956 1135.56 180.472C1134.94 181.457 1133.36 183.544 1132.36 184.646C1132.02 185.022 1131.27 186.03 1130.69 186.874C1130.11 187.742 1129.48 188.657 1129.28 188.915C1126.99 191.753 1126.11 199.586 1127.82 201.556C1128.15 201.931 1128.44 202.424 1128.44 202.635C1128.44 203.338 1131.36 206.434 1133.19 207.677C1138.47 211.312 1143.14 212.86 1151.33 213.705C1153.87 213.963 1161.57 213.798 1162.32 213.47C1162.57 213.353 1163.49 213.165 1164.4 213.095C1167.15 212.813 1171.73 211.289 1174.93 209.577C1176.6 208.686 1177.97 207.865 1177.97 207.748C1177.97 207.63 1178.39 207.279 1178.93 206.974C1179.72 206.458 1180.59 205.613 1182.76 203.104C1183.05 202.776 1183.42 201.978 1183.59 201.345C1183.75 200.688 1184.05 200.055 1184.3 199.891C1184.84 199.516 1184.46 195.271 1183.67 193.019C1182.55 189.9 1181.67 188.235 1180.22 186.616C1179.88 186.241 1179.63 185.795 1179.63 185.584C1179.63 185.256 1178.8 184.036 1177.93 183.122C1177.72 182.887 1177.55 182.559 1177.55 182.371C1177.55 182.207 1177.26 181.738 1176.93 181.386C1176.6 181.011 1176.3 180.542 1176.3 180.331C1176.3 180.12 1176.01 179.627 1175.68 179.276C1175.35 178.9 1175.06 178.337 1175.06 178.009C1175.06 177.657 1174.89 177.305 1174.64 177.165C1174.27 176.954 1173.64 174.538 1173.1 171.325C1172.89 170.012 1173.14 166.892 1174.22 158.308C1175.56 147.778 1175.97 142.9 1175.93 138.022C1175.89 131.361 1175.22 122.12 1174.64 120.08C1172.98 114.498 1172.14 84.7595 1173.47 79.9751C1173.85 78.6148 1174.35 77.2076 1174.6 76.8559C1174.85 76.4806 1175.06 75.9412 1175.06 75.6363C1175.06 75.3314 1175.35 74.792 1175.68 74.4167C1176.01 74.0649 1176.68 73.291 1177.18 72.7047C1179.68 69.6557 1182.67 67.2635 1186.83 65.0589C1188.54 64.1208 1190.5 63.2061 1191.12 63.0185C1193.91 62.1508 1196.7 61.4472 1197.2 61.4472C1197.53 61.4472 1198.03 61.3064 1198.32 61.1423C1199.03 60.7436 1214.43 60.7436 1215.88 61.1423C1216.42 61.283 1218.3 61.6817 1220 62.01C1222.71 62.526 1225.21 63.1827 1230.37 64.7071C1230.95 64.8948 1232.11 65.3404 1232.95 65.6922C1233.78 66.0674 1234.69 66.3723 1234.9 66.3723C1235.73 66.3723 1246.47 72.5639 1248.97 74.4636C1251.63 76.504 1254.55 78.9666 1254.55 79.1777C1254.55 79.2715 1255.09 79.7171 1255.71 80.1862C1257.25 81.3119 1264.53 89.6378 1264.53 90.271C1264.53 90.3883 1264.78 90.787 1265.12 91.1622C1266.45 92.6867 1267.03 93.5075 1267.28 94.1642C1267.45 94.5395 1267.7 94.9616 1267.86 95.1024C1268.03 95.2196 1268.32 95.7121 1268.49 96.1577C1268.65 96.6033 1268.95 97.1193 1269.11 97.3304C1269.32 97.518 1269.94 98.7845 1270.57 100.145C1271.19 101.505 1271.86 102.818 1272.07 103.076C1272.27 103.334 1272.61 103.968 1272.82 104.484C1274.02 107.345 1274.61 108.471 1274.9 108.682C1275.1 108.822 1275.4 109.315 1275.56 109.761C1275.73 110.206 1276.02 110.722 1276.19 110.933C1276.52 111.285 1277.6 112.809 1277.68 113.044C1277.81 113.466 1279.97 116.374 1281.01 117.617C1282.05 118.837 1282.3 119.071 1284.18 120.737C1284.84 121.299 1285.34 121.839 1285.34 121.98C1285.34 122.308 1296.79 128.758 1297.41 128.758C1297.7 128.758 1298.62 129.039 1299.45 129.414C1301.28 130.212 1305.53 131.361 1308.86 131.994C1316.26 133.401 1325.38 133.425 1332.5 132.041C1338.9 130.798 1346.52 128.007 1351.39 125.122C1354.51 123.293 1358.84 120.244 1359.55 119.423C1359.92 118.978 1360.88 118.063 1363.58 115.577C1364.62 114.639 1365.83 113.443 1366.29 112.927C1366.75 112.411 1367.54 111.66 1368.04 111.262C1368.54 110.863 1369.16 110.277 1369.41 109.972C1369.87 109.409 1370.41 108.893 1373.07 106.43C1375.03 104.624 1375.4 104.273 1375.65 104.132C1376.15 103.874 1378.15 102.021 1378.15 101.833C1378.15 101.74 1378.69 101.294 1379.4 100.848C1380.06 100.403 1380.61 99.9337 1380.65 99.8164C1380.65 99.7226 1381.6 98.9721 1382.73 98.1513C1383.89 97.3304 1384.81 96.6033 1384.81 96.5095C1384.81 96.2985 1387.56 94.3284 1392.92 90.6932C1396.84 88.0195 1403.08 84.3608 1407.53 82.1328C1410.69 80.538 1415.94 78.0989 1416.23 78.0989C1416.35 78.0989 1417.31 77.7236 1418.27 77.278C1419.27 76.8324 1420.18 76.4571 1420.35 76.4571C1420.52 76.4571 1421.31 76.1757 1422.1 75.8474C1424.39 74.8389 1432.96 72.3294 1436.41 71.6493C1439.41 71.0395 1445.53 70.3828 1446.98 70.5001C1451.56 70.8988 1453.44 71.2271 1455.14 71.8603C1458.01 72.9392 1458.93 73.5724 1460.8 75.7536C1464.26 79.7875 1464.26 79.7875 1464.84 91.6547C1465.09 97.3069 1465.3 110.863 1465.3 121.839C1465.3 139.757 1465.26 141.962 1464.59 143.533C1463.92 145.198 1463.42 145.996 1462.59 146.816C1462.38 147.004 1462.09 147.332 1461.97 147.52C1461.84 147.708 1460.72 149.044 1459.47 150.499C1458.22 151.929 1457.22 153.243 1457.22 153.43C1457.22 153.618 1457.06 153.852 1456.85 153.97C1456.35 154.251 1454.31 157.746 1454.31 158.285C1454.31 158.496 1454.06 158.824 1453.81 158.965C1453.1 159.364 1453.06 166.986 1453.73 167.479C1454.02 167.666 1454.35 168.159 1454.52 168.604C1454.77 169.284 1455.81 170.528 1457.51 172.193C1458.14 172.826 1463.13 175.664 1463.59 175.664C1463.8 175.664 1464.51 175.922 1465.21 176.25C1465.88 176.578 1466.75 176.836 1467.17 176.836C1467.54 176.836 1468.09 176.954 1468.33 177.094C1468.54 177.212 1470.25 177.47 1472.04 177.657C1482.03 178.619 1490.48 176.062 1495.26 170.598C1496.3 169.378 1497.18 168.159 1497.18 167.854C1497.18 167.549 1497.3 167.221 1497.47 167.127C1498.05 166.822 1498.22 165.884 1498.13 163.585C1498.09 160.888 1497.63 159.059 1497.13 159.505C1496.97 159.669 1496.84 159.387 1496.84 158.871C1496.88 157.933 1496.72 157.441 1496.26 157.019C1496.14 156.878 1495.89 156.432 1495.72 156.01C1495.59 155.611 1495.18 155.26 1494.89 155.26C1494.55 155.26 1494.18 155.142 1494.01 154.978C1493.85 154.814 1493.89 154.79 1494.18 154.884C1494.93 155.142 1494.8 154.415 1494.05 153.993C1493.68 153.805 1493.47 153.547 1493.51 153.454C1493.6 153.36 1493.14 152.68 1492.51 151.976C1491.93 151.273 1491.31 150.522 1491.18 150.334C1491.02 150.147 1490.48 149.537 1489.93 148.974C1489.35 148.435 1488.81 147.661 1488.64 147.285C1488.48 146.887 1488.23 146.582 1488.06 146.582C1487.81 146.582 1487.52 146.066 1486.56 144.002C1486.52 143.932 1486.36 143.721 1486.19 143.486C1485.4 142.478 1484.98 136.685 1485.06 126.881C1485.19 102.818 1485.73 80.28 1486.19 79.9516C1486.44 79.764 1486.81 78.9432 1486.94 78.0989C1487.1 77.2545 1487.44 76.4571 1487.69 76.293C1487.94 76.1288 1488.02 75.9881 1487.89 75.9881C1487.35 75.9881 1489.31 72.7047 1491.35 70.2421C1492.02 69.4681 1492.64 68.6707 1492.76 68.4831C1493.43 67.5684 1495.8 65.5749 1498.72 63.511C1499.92 62.6433 1500.92 61.8459 1500.92 61.7286C1500.92 61.3299 1527.97 46.1792 1529.1 45.9447C1529.51 45.8743 1532.55 44.3029 1543.04 38.7915C1544.12 38.2286 1545.12 37.7595 1545.29 37.7595C1545.41 37.7595 1547.24 36.8683 1549.32 35.766C1551.4 34.6637 1553.28 33.7725 1553.44 33.7725C1553.65 33.7725 1555.19 33.1158 1556.9 32.295C1560.06 30.794 1565.18 28.5894 1566.01 28.3783C1566.3 28.308 1567.18 27.9796 1567.97 27.6044C1568.8 27.2526 1569.59 26.9711 1569.71 26.9711C1569.92 26.9711 1572.42 26.1034 1573.54 25.6343C1574.08 25.3998 1576.25 24.8369 1579.16 24.1568C1580.41 23.8519 1582.03 23.5001 1582.7 23.3124C1584.03 23.0076 1587.15 22.5385 1591.86 21.9522C1595.18 21.53 1608.84 21.4127 1610.96 21.8114C1611.67 21.9287 1613.75 22.2805 1615.58 22.6088C1619.28 23.2421 1621.49 23.8519 1624.48 24.9776C1625.57 25.3998 1632.64 29.4102 1633.26 29.9966C1633.6 30.3015 1634.51 30.9816 1635.22 31.521C1635.97 32.037 1636.59 32.5764 1636.59 32.6937C1636.59 32.8109 1636.84 33.0924 1637.18 33.28C1637.68 33.6084 1638.84 34.7341 1640.34 36.3758C1640.63 36.6807 1641.05 37.1028 1641.26 37.2905C1641.42 37.4781 1641.71 37.8064 1641.84 37.9941C1642.17 38.5335 1643.71 40.5974 1644.34 41.3948C1644.63 41.77 1645.29 42.7316 1645.79 43.5055C1646.29 44.2795 1646.96 45.2411 1647.25 45.6632C1647.58 46.0619 1647.83 46.5544 1647.83 46.7421C1647.83 46.9532 1648 47.1642 1648.21 47.2346C1648.41 47.3049 1648.83 47.9382 1649.08 48.5949C1649.37 49.275 1649.75 49.9317 1649.91 50.0724C1650.12 50.1897 1650.37 50.7291 1650.54 51.2451C1650.7 51.761 1650.99 52.277 1651.16 52.4177C1651.45 52.6523 1651.83 53.4028 1653.07 56.4986C1653.41 57.3194 1653.82 58.1637 1654.03 58.3748C1654.24 58.5859 1654.53 59.2191 1654.7 59.8055C1654.86 60.3918 1655.16 60.9547 1655.32 61.0954C1655.49 61.2126 1655.78 61.799 1655.95 62.3853C1656.07 62.9716 1656.45 63.7456 1656.78 64.1443C1657.07 64.5195 1657.44 65.4342 1657.61 66.1378C1657.78 66.8414 1658.07 67.5684 1658.28 67.7795C1658.61 68.1313 1659.11 69.4681 1659.94 72.3528C1660.19 73.1268 1660.57 74.1118 1660.82 74.534C1661.02 74.9796 1661.48 76.3399 1661.81 77.5829C1662.15 78.8493 1662.69 80.7491 1663.02 81.8513C1663.35 82.9536 1663.81 84.6423 1664.06 85.6039C1664.31 86.5654 1664.77 88.1602 1665.1 89.1218C1665.44 90.0834 1665.81 91.6782 1665.98 92.6398C1666.27 94.5864 1666.31 94.7036 1666.68 95.2196C1666.81 95.4072 1667.14 96.791 1667.39 98.2685C1667.64 99.7461 1668.1 102.537 1668.39 104.484C1668.72 106.407 1669.18 108.893 1669.43 109.995C1669.68 111.097 1669.97 113.419 1670.14 115.155C1670.3 116.89 1670.55 118.415 1670.72 118.555C1670.89 118.673 1671.18 120.268 1671.3 122.073C1671.47 123.879 1671.76 125.615 1671.97 125.943C1672.14 126.272 1672.51 128.007 1672.8 129.813C1673.34 133.284 1673.38 133.354 1673.76 133.917C1673.88 134.105 1674.09 134.949 1674.22 135.77C1674.34 136.614 1674.63 137.623 1674.88 137.998C1675.09 138.397 1675.55 139.452 1675.88 140.367C1676.63 142.478 1677.34 144.026 1677.75 144.471C1677.96 144.682 1678.25 145.175 1678.38 145.573C1679.21 147.731 1685.62 153.594 1689.28 155.564C1693.11 157.605 1694.82 158.402 1697.94 159.551C1699.89 160.278 1701.64 160.888 1701.81 160.888C1702.02 160.912 1702.89 161.099 1703.81 161.357C1704.72 161.615 1705.76 161.803 1706.14 161.826C1706.47 161.826 1706.97 161.944 1707.22 162.084C1708.88 163.023 1722.99 163.445 1728.57 162.694C1730.28 162.483 1732.06 162.202 1732.52 162.108C1733.44 161.873 1739.89 160.067 1742.26 159.387C1744.13 158.824 1754.37 153.102 1754.37 152.609C1754.37 152.422 1754.62 152.211 1754.91 152.14C1755.37 152.046 1759.24 147.895 1760.66 145.996C1761.24 145.198 1762.57 142.759 1762.9 141.891C1763.07 141.446 1763.36 140.93 1763.57 140.719C1763.99 140.273 1765.48 136.239 1765.98 134.034C1766.23 133.12 1766.61 131.853 1766.82 131.22C1767.02 130.563 1767.23 129.438 1767.23 128.711C1767.27 127.984 1767.44 127.327 1767.65 127.257C1767.86 127.186 1768.15 126.084 1768.31 124.841C1768.48 123.574 1768.77 122.003 1768.98 121.37C1769.19 120.713 1769.52 119.095 1769.77 117.735C1769.98 116.374 1770.35 114.897 1770.56 114.451C1770.77 114.006 1771.14 112.575 1771.39 111.285C1772.14 107.532 1772.85 104.718 1774.56 98.9721C1775.14 96.9786 1775.97 94.5629 1776.39 93.6952C1776.6 93.1792 1777.18 91.7486 1777.68 90.529C1778.14 89.3094 1778.72 88.0899 1778.93 87.8319C1779.13 87.5739 1779.47 86.8938 1779.72 86.3074C1780.55 84.2201 1781.05 83.1413 1781.38 82.6722C1781.59 82.4142 1782.01 81.7341 1782.3 81.1478C1782.59 80.5614 1782.96 79.9751 1783.13 79.8578C1783.3 79.7171 1783.55 79.2012 1783.75 78.7086C1783.92 78.1927 1784.29 77.5125 1784.59 77.1842C1784.92 76.8559 1785.17 76.3868 1785.17 76.1757C1785.17 75.9646 1785.34 75.7301 1785.54 75.6363C1785.75 75.5659 1786.08 75.1672 1786.25 74.7451C1786.38 74.3464 1786.88 73.5724 1787.29 73.0564C1787.71 72.5405 1788.41 71.5789 1788.91 70.9457C1790.95 68.2955 1795.7 62.7605 1797.28 61.2126C1798.03 60.509 1799.11 59.3833 1799.73 58.7501C1801.44 56.9442 1803.15 55.3963 1804.65 54.2705C1805.35 53.7311 1805.98 53.1917 1805.98 53.0979C1805.98 53.004 1806.64 52.4881 1807.43 51.9252C1808.22 51.3858 1808.89 50.8229 1808.89 50.6822C1808.89 50.3069 1821.83 42.9661 1823.04 42.6847C1823.62 42.544 1824.83 42.1687 1825.75 41.8638C1826.99 41.4651 1828.08 41.3009 1829.99 41.3009C1832.45 41.2775 1832.74 41.3244 1834.28 42.1218C1836.11 43.0599 1837.44 44.514 1838.11 46.3199C1838.36 46.9532 1838.69 47.7036 1838.9 47.9616C1840.1 49.4626 1840.44 56.1233 1840.1 71.6493C1840.06 74.3464 1840.15 79.5529 1840.31 83.2116C1840.48 87.3159 1840.44 89.9661 1840.19 90.1303C1839.98 90.2945 1839.69 90.8339 1839.52 91.3499C1839.23 92.3818 1838.44 93.4841 1835.61 96.8613C1832.86 100.145 1832.65 100.426 1832.36 101.2C1832.2 101.575 1831.91 102.021 1831.74 102.162C1831.53 102.302 1831.2 103.194 1830.91 104.155C1830.66 105.117 1830.28 106.266 1830.03 106.712C1829.53 107.697 1829.78 110.347 1830.53 111.989C1831.11 113.255 1833.07 115.46 1834.32 116.234C1834.74 116.492 1835.11 116.82 1835.11 116.937C1835.11 117.219 1838.52 119.142 1839.02 119.142C1839.19 119.142 1840.06 119.447 1840.89 119.822C1843.1 120.807 1848.34 121.581 1851.55 121.393C1854.5 121.229 1856.96 120.783 1859.37 119.939C1861.41 119.212 1865.07 117.289 1865.07 116.914C1865.07 116.75 1865.53 116.398 1866.11 116.093C1866.7 115.788 1867.16 115.436 1867.16 115.319C1867.16 115.178 1867.61 114.545 1868.15 113.888C1870.28 111.379 1870.53 107.509 1868.82 104.296C1868.4 103.499 1867.95 102.56 1867.82 102.185C1867.65 101.833 1867.36 101.552 1867.16 101.552C1866.91 101.552 1866.74 101.388 1866.74 101.177C1866.74 100.966 1866.36 100.356 1865.95 99.8164C1863.95 97.4242 1863.41 96.6972 1863.41 96.4392C1863.41 96.275 1863.24 96.1577 1862.99 96.1577C1862.79 96.1577 1862.58 96.0405 1862.58 95.9232C1862.58 95.7825 1862.2 95.2431 1861.79 94.7271C1861.33 94.2111 1860.83 93.4606 1860.7 93.0385C1860.54 92.6163 1860.25 92.1707 1860.04 92.0535C1859.87 91.9127 1859.46 90.8339 1859.21 89.6612C1858.79 87.9961 1858.79 85.9322 1859.16 80.28C1859.46 76.3164 1859.66 68.3893 1859.66 62.6902C1859.66 56.9676 1859.83 52.277 1860.04 52.2066C1860.25 52.1363 1860.54 51.0574 1860.7 49.8379C1860.87 48.6183 1861.16 47.5629 1861.33 47.4926C1861.54 47.4222 1861.83 46.6483 1861.95 45.7805C1862.12 44.9127 1862.41 44.0919 1862.58 43.9746C1862.79 43.8339 1863.04 43.3414 1863.2 42.8489C1863.53 41.8404 1865.24 38.9791 1865.66 38.768C1865.78 38.6742 1865.91 38.4631 1865.91 38.2755C1865.91 37.8768 1866.61 36.9856 1869.11 34.1243C1870.94 32.0135 1871.36 31.5679 1872.15 30.7705C1872.4 30.5594 1872.82 30.1138 1873.06 29.7855C1873.36 29.4572 1873.69 29.1523 1873.86 29.0819C1873.98 29.0115 1874.69 28.519 1875.35 27.9562C1877.98 25.9157 1883.72 22.3743 1885.92 21.4362C1886.51 21.2017 1888.3 20.4277 1889.84 19.7241C1892.75 18.3873 1893.67 18.0589 1897.54 17.0036C1901.12 16.0185 1902.41 15.7136 1903.03 15.7136C1903.36 15.7136 1903.86 15.5729 1904.11 15.4088C1904.86 15.01 1916.97 15.01 1918.39 15.4088C1918.93 15.5729 1919.84 15.8074 1920.43 15.9482C1924.42 16.8628 1928.79 20.029 1932.04 24.3913C1932.29 24.7196 1932.66 25.1418 1932.87 25.3294C1933.08 25.517 1933.66 26.3144 1934.16 27.0884C1934.7 27.8623 1935.24 28.6597 1935.41 28.8474C1935.57 29.0585 1935.87 29.5744 1936.03 30.02C1936.2 30.4656 1936.49 30.9816 1936.7 31.1927C1937.24 31.8025 1938.65 34.054 1939.57 35.8833C1940.07 36.8449 1940.65 37.8533 1940.82 38.1113C1941.36 38.8149 1942.9 41.7935 1942.9 42.0749C1942.9 42.2156 1943.15 42.6143 1943.48 42.9661C1943.81 43.3179 1944.19 43.9277 1944.36 44.3499C1944.52 44.7955 1944.81 45.288 1944.98 45.4991C1945.35 45.8743 1947.98 50.4711 1949.56 53.4731C1950.06 54.4347 1950.64 55.4432 1950.81 55.7012C1951.01 55.9591 1951.35 56.6393 1951.6 57.2256C1952.22 58.7735 1952.97 60.3214 1953.35 60.8608C1953.64 61.283 1954.09 62.1508 1955.43 65.0824C1955.68 65.5984 1956.05 66.2316 1956.22 66.4896C1956.76 67.1932 1958.26 70.1248 1958.55 71.0629C1958.71 71.5085 1958.96 71.9776 1959.17 72.1183C1959.34 72.2356 1959.59 72.775 1959.75 73.291C1959.92 73.8069 1960.21 74.3229 1960.38 74.4636C1960.59 74.5809 1960.84 75.2141 1961 75.8708C1961.17 76.504 1961.46 77.2076 1961.67 77.3953C1961.84 77.6063 1962.38 79.4591 1962.88 81.4996C1963.75 85.2286 1963.75 85.5335 1963.5 115.741C1963.21 147.426 1963.13 148.81 1961.42 151.155C1960.55 152.398 1958.17 155.119 1957.84 155.26C1957.72 155.33 1957.05 155.916 1956.38 156.573C1954.34 158.59 1952.8 160.044 1952.01 160.701C1951.56 161.052 1951.22 161.498 1951.22 161.662C1951.22 161.85 1950.93 162.131 1950.6 162.295C1950.27 162.46 1949.97 162.741 1949.97 162.905C1949.97 163.187 1948.93 164.641 1947.85 165.86C1947.69 166.071 1947.31 167.174 1947.02 168.323C1946.77 169.449 1946.39 170.621 1946.19 170.926C1945.69 171.63 1945.73 173.154 1946.19 174.233C1946.39 174.702 1946.77 175.758 1947.06 176.578C1947.31 177.399 1947.69 178.244 1947.89 178.455C1948.1 178.666 1948.77 179.416 1949.35 180.143C1951.64 182.981 1959.46 186.992 1964.21 187.742C1964.75 187.812 1965.54 187.977 1966 188.094C1967.5 188.469 1971.2 188.797 1973.82 188.797C1976.82 188.797 1981.73 188.422 1982.77 188.117C1983.14 188 1984.6 187.601 1985.97 187.25C1990.38 186.053 1996.92 181.949 1998.04 179.651C1998.21 179.322 1998.62 178.713 1998.96 178.267C2000.04 176.907 1999.83 170.293 1998.67 170.082C1998.42 170.035 1998.33 169.66 1998.46 169.144C1998.62 168.487 1998.58 168.393 1998.29 168.745C1998 169.073 1997.88 169.12 1997.88 168.862C1997.83 168.651 1997.46 168.065 1997 167.572C1996.5 167.033 1996.34 166.611 1996.59 166.564C1996.79 166.517 1997 166.329 1997 166.142C1997 165.626 1993.26 161.357 1992.8 161.357C1992.59 161.357 1992.42 161.217 1992.42 161.052C1992.42 160.888 1992.17 160.56 1991.88 160.325C1991.38 159.95 1991.34 159.997 1991.43 160.794C1991.51 161.756 1991.97 162.952 1992.38 163.351C1992.51 163.468 1992.63 163.75 1992.72 163.937C1992.76 164.125 1993.01 164.312 1993.21 164.359C1993.46 164.406 1993.67 164.617 1993.67 164.828C1993.67 165.133 1993.46 165.086 1992.8 164.641C1991.67 163.843 1988.26 160.044 1988.26 159.575C1988.26 159.035 1989.26 159.317 1989.43 159.903C1989.59 160.536 1990.63 160.583 1990.97 159.95C1991.3 159.364 1990.84 158.942 1990.09 159.106C1989.72 159.2 1989.18 158.942 1988.68 158.473C1987.76 157.652 1987.6 157.253 1988.26 157.488C1988.68 157.628 1988.35 156.901 1987.89 156.667C1987.51 156.479 1985.77 154.532 1985.77 154.298C1985.77 154.181 1985.39 153.641 1984.97 153.078C1983.73 151.554 1983.18 149.983 1982.89 147.121C1982.77 145.691 1982.77 130.798 1982.89 114.052C1983.14 84.4077 1983.35 79.6702 1984.52 78.521C1984.72 78.3099 1985.02 77.5829 1985.18 76.8793C1985.35 76.1992 1985.6 75.519 1985.77 75.4017C1985.93 75.261 1986.22 74.6982 1986.39 74.1118C1986.56 73.5255 1986.89 72.8454 1987.1 72.6108C1987.51 72.1887 1987.76 71.6024 1989.09 68.3658C1989.34 67.7091 1989.68 67.029 1989.8 66.8414C1990.14 66.3489 1990.63 65.27 1992.22 61.3299C1992.55 60.5559 1993.17 59.0315 1993.63 57.9292C1994.13 56.8269 1994.71 55.279 1994.92 54.4581C1995.17 53.6373 1995.5 52.793 1995.71 52.5819C1995.88 52.3708 1996.17 51.5969 1996.34 50.8933C1996.5 50.1897 1996.79 49.5095 1996.96 49.3688C1997.17 49.2516 1997.5 48.3369 1997.79 47.3753C1998.04 46.4137 1998.54 45.1942 1998.87 44.6782C1999.21 44.1622 1999.46 43.3414 1999.5 42.8723C1999.5 42.4032 1999.67 41.9576 1999.87 41.8873C2000.04 41.8169 2000.33 41.2071 2000.5 40.527C2000.66 39.8469 2000.96 39.1902 2001.16 39.0495C2001.37 38.9322 2001.75 37.9237 2002 36.8214C2002.25 35.7426 2002.58 34.7341 2002.7 34.6168C2002.83 34.4996 2003.2 33.7256 2003.49 32.9282C2004.29 30.8878 2005.08 28.8708 2006.16 26.5021C2006.66 25.3998 2007.2 24.0395 2007.45 23.4766C2007.66 22.9137 2007.99 22.3274 2008.2 22.1867C2008.41 22.046 2008.7 21.5065 2008.86 20.9906C2009.03 20.4746 2009.24 19.8883 2009.36 19.7007C2009.7 19.2081 2009.7 19.2785 2010.24 17.7072C2010.53 16.9332 2010.9 16.1358 2011.11 15.9482C2011.32 15.7371 2011.61 15.0335 2011.78 14.3534C2011.94 13.6732 2012.23 13.0869 2012.44 12.9931C2012.65 12.9227 2012.82 12.5709 2012.82 12.2191C2012.82 11.8673 2013.11 10.9996 2013.48 10.296C2013.86 9.59238 2014.44 8.39627 2014.73 7.62231C2015.73 4.99557 2016.23 3.86983 2016.56 3.6353C2016.73 3.49458 2017.02 2.86134 2017.14 2.2281C2017.31 1.57143 2017.56 0.820923 2017.69 0.516037L2017.89 6.10352e-05H2000.21H1982.48L1982.27 0.750565C1981.81 2.4861 1981.48 6.70766 1981.23 15.2446L1980.94 24.274L1979.73 25.7516C1978.15 27.7685 1976.07 28.3314 1974.2 27.276C1973.9 27.1118 1973.32 26.8539 1972.95 26.6897C1972.03 26.291 1970.24 24.3444 1969.53 22.9841C1969.24 22.3978 1968.87 21.6238 1968.66 21.2486C1968.45 20.8733 1968.29 20.2635 1968.29 19.8883C1968.29 19.513 1968.12 18.9971 1967.87 18.7625C1967.54 18.3873 1967.41 16.8628 1967.5 12.8993C1967.5 11.9142 1967.79 11.3279 1968.79 10.2491C1968.99 10.0145 1969.04 9.73309 1968.91 9.61583C1968.74 9.47511 1968.87 9.3813 1969.12 9.3813C1969.37 9.3813 1969.45 9.26404 1969.28 9.12332C1969.16 8.9826 1969.2 8.79498 1969.45 8.70116C1969.7 8.60735 1969.95 8.04448 1970.03 7.43469C1970.12 6.75456 1970.37 6.3324 1970.7 6.3324C1970.95 6.3324 1971.2 6.21513 1971.2 6.07442C1971.2 5.95715 1971.03 5.91025 1970.78 5.98061C1970.16 6.19168 1970.28 5.8868 1970.95 5.51154C1971.24 5.32391 1971.53 4.7845 1971.53 4.29198C1971.53 3.79947 1971.74 3.14278 1971.95 2.81444C1972.16 2.4861 1972.36 1.7356 1972.41 1.10236L1972.53 6.10352e-05H1936.66C1901.74 6.10352e-05 1900.82 6.10352e-05 1901.07 0.445679C1901.24 0.774017 1900.87 1.05545 1899.33 1.61833C1895.12 3.18968 1874.69 8.44318 1872.82 8.44318C1872.23 8.44318 1871.73 8.32591 1871.73 8.16174C1871.73 8.02103 1873.27 7.036 1875.19 6.00406C1877.06 4.94867 1879.18 3.68221 1879.93 3.14278C1881.22 2.20465 1882.3 0.586395 1881.89 0.187683C1881.76 0.0938721 1875.15 6.10352e-05 1867.16 6.10352e-05H1852.59L1851.88 0.633301C1850.09 2.20465 1847.43 4.034 1845.35 5.11284C1841.02 7.31743 1836.98 7.92722 1834.69 6.6842C1832.86 5.69917 1831.36 3.35385 1831.36 1.52452V6.10352e-05L1805.27 0.0469666L1779.13 0.117325L1778.63 1.28999C1778.34 1.92322 1777.97 3.51804 1777.84 4.80795C1777.51 7.55196 1776.14 9.56892 1773.72 10.765C1771.06 12.0784 1769.31 11.9377 1766.9 10.2491C1764.82 8.77153 1764.24 7.15326 1764.48 3.75256C1764.61 2.13429 1764.82 0.633301 1764.98 0.398773C1765.28 0.0235138 1762.74 6.10352e-05 1715.67 6.10352e-05H1666.06L1669.18 1.87631C1671.97 3.56494 1677.55 7.76305 1679.71 9.78C1680.13 10.2022 1681.62 11.5624 1682.96 12.8289C1687.91 17.4023 1692.86 23.4532 1696.9 29.7855C1698.11 31.6617 1699.44 33.6787 1699.89 34.2885C1700.93 35.7426 1700.93 36.4696 1699.85 35.297C1699.4 34.781 1699.02 34.1947 1699.02 33.9601C1699.02 33.7256 1698.77 33.5614 1698.52 33.5849C1698.23 33.6318 1697.94 33.3973 1697.86 33.0689C1697.77 32.7406 1697.56 32.4357 1697.4 32.3653C1696.94 32.1543 1693.61 29.1757 1693.61 28.9412C1693.61 28.8239 1692.86 28.2376 1691.95 27.6747C1690.99 27.0884 1689.95 26.3613 1689.53 26.033C1689.16 25.7047 1688.49 25.306 1688.08 25.1183C1687.66 24.9542 1687.41 24.6727 1687.53 24.5085C1687.66 24.3209 1687.45 24.2506 1686.91 24.3209C1686.49 24.3913 1685.7 24.2975 1685.16 24.0864C1684.41 23.805 1684.16 23.805 1683.71 24.0629C1683.46 24.2271 1683.21 24.5789 1683.21 24.8134C1683.21 25.0714 1682.96 25.3998 1682.62 25.5639C1682.29 25.7047 1682.12 25.9861 1682.25 26.1972C1682.42 26.4082 1682.21 26.6428 1681.83 26.7835C1681.42 26.9008 1681.13 27.1353 1681.13 27.3229C1681.13 27.4871 1680.96 27.6747 1680.71 27.7216C1680.5 27.7451 1680.25 28.2141 1680.13 28.7066C1680 29.2226 1679.67 29.7151 1679.38 29.8089C1677.8 30.3718 1678.42 36.3993 1680.33 38.4631C1680.75 38.9322 1681.25 39.9407 1681.5 40.7381C1681.71 41.512 1682.08 42.3563 1682.29 42.5909C1682.54 42.8489 1682.91 43.4586 1683.12 43.9746C1683.37 44.4906 1683.96 45.7101 1684.45 46.6717C1684.91 47.6333 1685.41 48.6418 1685.49 48.8997C1685.58 49.1577 1686.2 50.3304 1686.91 51.5265C1687.62 52.7226 1688.2 53.8484 1688.2 54.0594C1688.2 54.2705 1688.57 55.021 1689.03 55.7715C1689.86 57.0614 1691.61 61.3768 1692.36 64.027C1692.74 65.2231 1692.94 68.5535 1692.82 70.6877C1692.78 71.5789 1692.74 71.6024 1691.99 71.2036C1691.07 70.7346 1688.53 66.4427 1683.41 56.6393C1682.87 55.6073 1682.25 54.1767 1681.96 53.4731C1680.63 49.9551 1678.92 47.1642 1674.55 41.512C1673.43 40.0345 1671.93 37.9237 1671.22 36.8214C1670.51 35.7191 1669.26 33.796 1668.43 32.5295C1665.77 28.4018 1663.98 26.7366 1657.44 22.515C1655.53 21.2955 1652.99 19.5365 1651.78 18.6453C1648.87 16.4641 1646.92 15.3853 1643.67 14.1892C1640.09 12.8758 1636.22 11.797 1630.14 10.4367C1623.65 8.9826 1621.65 8.39627 1620.24 7.57541C1618.7 6.6373 1618.82 5.67572 1620.7 4.52652C1622.28 3.51804 1623.44 2.1812 1623.82 0.867828L1624.07 6.10352e-05H1615.12H1606.21V1.28999C1606.21 2.79099 1605.38 4.0809 1604.22 4.43269C1603.72 4.57343 1602.72 4.69069 1601.89 4.69069C1599.97 4.69069 1598.72 3.82292 1598.72 2.46265C1598.72 1.92322 1598.6 1.12581 1598.47 0.727112L1598.22 6.10352e-05H1585.11C1572.84 6.10352e-05 1572.05 0.0235138 1572.25 0.398773C1572.38 0.633301 1572.59 1.24307 1572.75 1.75905C1573 2.72063 1573.92 4.57343 1574.67 5.69917C1574.92 6.05096 1575.67 6.56693 1576.29 6.82492C1579.37 8.04448 1576.67 9.82692 1569.34 11.3279C1568.47 11.5155 1566.18 12.0081 1564.26 12.4068C1560.52 13.2042 1559.6 13.298 1559.6 12.8289C1559.6 12.5006 1562.68 10.7181 1564.97 9.73309C1565.89 9.3344 1566.8 8.79498 1567.05 8.49008C1567.3 8.20865 1567.68 7.97412 1567.93 7.97412C1568.59 7.97412 1568.42 6.14478 1567.68 5.51154C1567.3 5.20665 1567.13 4.83141 1567.26 4.71414C1567.43 4.59688 1567.34 4.43269 1567.09 4.33888C1566.84 4.24507 1566.76 4.0809 1566.88 3.96364C1567.05 3.84637 1566.93 3.75256 1566.72 3.75256C1566.47 3.75256 1566.26 3.54149 1566.26 3.30695C1566.26 3.07242 1565.72 2.533 1565.05 2.13429C1564.39 1.7356 1563.72 1.0789 1563.56 0.703659L1563.26 6.10352e-05H1495.51H1427.72L1428.92 1.50107C1431.59 4.85486 1435.79 8.56044 1439.2 10.4836C1442.7 12.5006 1444.9 13.4152 1448.9 14.541C1457.1 16.8394 1460.72 18.0824 1465.67 20.3573C1469.92 22.2805 1473.04 23.4766 1476.16 24.3444C1481.69 25.8923 1483.98 26.2441 1489.56 26.3848C1494.22 26.5021 1496.01 26.6897 1496.43 27.0649C1497.55 28.0265 1496.01 29.5744 1489.73 33.8898C1487.65 35.297 1484.98 37.267 1483.77 38.2286C1482.61 39.1902 1480.82 40.527 1479.82 41.2306C1478.82 41.9107 1478.03 42.544 1478.03 42.6612C1478.03 42.9661 1480.61 44.5609 1481.11 44.5609C1481.4 44.5609 1482.03 44.7955 1482.53 45.0769C1485.31 46.7655 1489.64 47.3753 1494.1 46.6952C1497.97 46.1088 1503 43.5055 1505.83 40.6443C1506.5 39.9641 1509.54 38.6977 1510.45 38.6977C1510.83 38.6977 1511.41 38.7915 1511.74 38.9322C1512.53 39.2136 1511.45 40.0579 1506.96 42.7316C1505.12 43.8104 1503.04 45.1238 1502.34 45.6398C1501.59 46.1323 1499.84 47.3988 1498.38 48.4307C1491.97 52.9571 1483.98 56.6393 1478.41 57.6478C1472.25 58.7735 1468.21 58.8673 1456.64 58.2341C1446.4 57.6947 1442.78 58.0465 1431.21 60.8608C1428.92 61.4003 1425.09 62.2446 1422.68 62.6902C1413.77 64.3788 1410.11 65.3169 1401.25 68.2486C1394.88 70.3593 1393.05 70.8988 1391.55 71.0864L1390.05 71.274L1392.17 70.1483C1394.3 69.0225 1397.5 67.756 1402.7 65.9971C1406.2 64.8009 1411.44 61.9397 1411.44 61.1892C1411.44 60.8843 1411.57 60.3918 1411.69 60.1338C1411.86 59.782 1411.61 59.4536 1410.74 59.008C1410.11 58.6797 1409.45 58.3983 1409.28 58.3983C1408.7 58.3983 1406.95 57.3194 1406.07 56.4282C1404.91 55.279 1404.24 53.2386 1404.58 52.0425C1404.95 50.8698 1406.66 49.9317 1410.69 48.7356C1412.36 48.2431 1413.86 47.8444 1414.02 47.8444C1414.23 47.8444 1415.56 47.516 1416.98 47.1408C1418.44 46.7421 1419.77 46.4372 1419.93 46.4372C1420.1 46.4372 1420.77 46.2027 1421.39 45.9447C1422.06 45.6632 1422.81 45.5225 1423.01 45.5929C1423.26 45.6867 1423.6 45.6163 1423.8 45.4521C1423.97 45.288 1424.72 44.9596 1425.39 44.7486C1426.09 44.5375 1426.72 44.1622 1426.8 43.9277C1426.88 43.7166 1427.26 43.3883 1427.63 43.2241C1428.13 43.013 1428.17 42.8723 1427.8 42.7316C1427.26 42.544 1427.55 41.512 1428.13 41.512C1428.34 41.512 1428.51 41.3948 1428.51 41.2775C1428.51 41.1368 1428.05 41.043 1427.47 41.043C1426.88 41.043 1426.43 41.1602 1426.43 41.2775C1426.43 41.4417 1426.13 41.4417 1425.55 41.254C1424.68 40.9961 1421.27 41.1368 1412.9 41.7466C1411.32 41.8638 1408.86 42.0045 1407.49 42.0749C1402.5 42.3094 1388.97 45.1473 1379.81 47.8913C1367.66 51.5265 1362.33 53.6373 1357.72 56.5924C1353.1 59.5475 1351.01 61.1657 1343.44 67.8968L1340.28 70.7346V72.5874C1340.28 73.6193 1340.19 74.9327 1340.11 75.519C1339.65 77.8174 1339.82 87.9257 1340.28 88.4182C1340.53 88.6997 1340.69 89.1453 1340.61 89.4501C1340.53 89.7785 1340.94 90.2241 1341.65 90.6228C1342.57 91.1388 1343.32 91.3029 1345.69 91.4437C1350.22 91.7016 1351.43 92.6632 1350.27 94.9851C1348.73 97.9871 1340.86 102.607 1335.49 103.686C1332.58 104.249 1330.83 104.249 1326.71 103.639C1319.55 102.584 1312.31 99.1128 1305.98 93.7186C1304.24 92.2411 1302.82 90.9981 1302.82 90.9277C1302.82 90.7401 1299.74 87.9492 1297.33 85.9322C1295.29 84.1967 1291.13 81.0539 1286.59 77.7471C1285.51 76.9497 1282.93 74.8858 1280.81 73.1268C1276.35 69.3978 1270.94 65.9032 1265.16 63.0185C1253.46 57.1787 1245.64 54.3878 1232.9 51.4796C1230.28 50.8698 1227.41 50.1662 1226.54 49.8848C1224.75 49.3219 1224.62 48.7121 1226.33 48.5949C1226.91 48.548 1227.74 48.3134 1228.12 48.0789C1228.78 47.6802 1228.74 47.5629 1227.2 46.273C1226.29 45.5225 1225.45 44.7251 1225.29 44.4906C1225.16 44.2795 1224.75 44.0919 1224.41 44.0919C1224.12 44.0919 1223.75 43.9277 1223.58 43.7401C1223.46 43.5524 1223.17 43.3883 1222.96 43.3883C1222.5 43.3883 1220.04 42.4971 1218.34 41.7231C1217.76 41.4651 1217.09 41.1837 1216.84 41.0899C1216.17 40.8319 1214.59 38.8384 1214.34 37.9472C1214.05 36.9152 1215.3 35.6488 1217.13 35.1562C1217.92 34.9217 1220.59 34.523 1223.12 34.2181C1226.62 33.796 1227.91 33.538 1228.62 33.1158C1229.87 32.3653 1229.24 31.8494 1226.7 31.4741C1223.92 31.052 1218.17 30.3718 1214.59 30.02C1212.89 29.8559 1209.68 29.5275 1207.48 29.2695C1200.78 28.519 1197.32 28.6363 1187.33 29.9497C1182.71 30.5594 1180.97 31.2396 1177.26 33.8898C1175.47 35.1797 1172.48 37.2905 1170.69 38.5569C1163.44 43.6228 1159.41 47.1408 1159.08 48.7356C1158.78 49.8848 1159.78 57.9761 1160.28 58.6797C1160.45 58.9142 1160.91 59.1019 1161.32 59.1019C1161.78 59.1019 1162.24 59.1957 1162.36 59.3364C1162.49 59.4536 1162.99 59.5709 1163.4 59.5709C1164.4 59.5709 1165.48 60.4387 1165.19 60.9547C1164.24 62.4322 1159.74 64.3319 1156.58 64.5899C1152.62 64.9417 1147.26 63.6517 1141.35 61.0016C1133.69 57.5539 1131.61 56.78 1125.53 55.0445C1121.99 54.036 1118.37 52.9337 1117.54 52.6288C1115.83 51.9487 1114.71 50.8229 1114.71 49.7675C1114.71 49.3688 1114.46 48.8997 1114.17 48.7356C1113.88 48.5714 1112.92 47.8444 1112.05 47.1408C1110.22 45.6867 1109.72 45.4521 1106.18 44.3733C1104.81 43.9512 1103.02 43.3414 1102.23 43.0599C1101.43 42.7551 1099.56 42.0984 1098.06 41.6059C1094.44 40.3863 1091.86 38.7446 1091.82 37.5954C1091.82 37.2905 1092.32 36.8918 1093.07 36.5869C1094.19 36.1413 1094.69 36.0944 1099.4 36.1882C1102.23 36.2585 1105.55 36.3758 1106.8 36.4696C1108.05 36.54 1109.97 36.6338 1111.09 36.6572C1112.17 36.6572 1113.05 36.7745 1113.05 36.8683C1113.05 36.9856 1114.63 37.0559 1116.58 37.0325C1118.54 37.009 1120.12 36.8918 1120.12 36.7745C1120.12 36.4696 1118.83 35.4142 1118.46 35.4142C1118.29 35.4142 1117.33 34.9921 1116.33 34.4761C1111.8 32.1777 1112.01 32.3184 1112.75 32.1073C1113.84 31.7556 1121.49 32.5295 1127.24 33.538C1130.11 34.054 1133.15 34.4761 1133.98 34.4761C1135.39 34.4761 1135.52 34.4292 1135.98 33.4676C1136.35 32.7171 1136.35 31.8728 1135.98 30.02C1135.73 28.6597 1135.44 25.9626 1135.31 24.0395C1135.19 22.0929 1134.98 19.513 1134.85 18.2935C1134.35 13.298 1131.52 9.35785 1122.66 1.17271L1121.54 0.117325L1111.26 0.0469666L1100.98 6.10352e-05L1102.56 1.80595C1106.8 6.59038 1106.97 6.98909 1105.72 9.70964C1104.68 11.9846 1104.14 11.9377 1101.1 9.28749C1098.31 6.87183 1097.23 5.67572 1096.57 4.22162C1095.82 2.60336 1095.82 1.3838 1096.61 0.79747C1096.94 0.562943 1097.23 0.281509 1097.23 0.16423C1097.23 -0.0702972 1027.56 -0.0468445 1027.06 0.211151C1025.98 0.774017 1021.4 1.45416 1017.83 1.57143C1014.04 1.71214 1013.95 1.68869 1010.92 0.844376L1007.84 6.10352e-05L980.245 0.0469666L952.652 0.117325L954.525 0.79747C960.851 3.16623 965.554 7.24707 968.009 12.5475C969.299 15.268 969.216 16.4407 967.676 17.3085C966.76 17.8244 966.303 17.8713 963.847 17.8479C962.307 17.8244 960.892 17.7541 960.684 17.6837C960.31 17.5664 954.442 16.9332 951.57 16.7221C946.867 16.3938 938.835 14.5644 933.258 12.5475C928.764 10.9292 927.182 10.296 921.938 8.04448C915.071 5.08939 913.948 4.45615 911.617 2.04048L909.703 0.117325L809.987 0.0469666L710.23 6.10352e-05L712.602 1.36035C713.892 2.11084 715.183 2.8848 715.432 3.07242C717.222 4.43269 720.51 7.43469 721.717 8.79498C722.507 9.68619 723.298 10.6243 723.548 10.8354C724.047 11.3983 724.005 11.9612 723.464 11.9612C723.215 11.9612 723.09 12.1019 723.215 12.2895C723.34 12.4771 723.048 12.8524 722.591 13.1104C721.925 13.5325 721.508 13.6029 720.468 13.4621C719.719 13.3918 719.095 13.2276 719.011 13.1104C718.928 12.9931 718.387 12.9696 717.846 13.04C717.222 13.1338 716.847 13.0869 716.847 12.9227C716.847 12.782 716.598 12.6647 716.306 12.6647C716.015 12.6647 715.474 12.4537 715.058 12.1957C714.683 11.9377 714.101 11.7266 713.809 11.7266C713.518 11.7266 712.977 11.539 712.644 11.3045C710.729 10.0849 706.651 8.37282 703.238 7.36433C702.489 7.12981 701.865 6.87183 701.865 6.75456C701.865 6.66075 701.49 6.56693 701.074 6.56693C700.616 6.56693 700.159 6.47311 700.034 6.3793C699.909 6.26204 698.161 5.8868 696.163 5.53499C694.166 5.1832 689.338 4.24507 685.426 3.47113C681.556 2.67372 677.061 1.85286 675.438 1.61833C673.856 1.36035 670.902 0.914734 668.904 0.586395L665.283 6.10352e-05H574.64L483.997 0.0235138L487.701 2.01703C489.741 3.09587 491.78 4.034 492.279 4.0809C496.815 4.57343 498.439 4.7845 500.228 5.15974C501.393 5.39427 503.1 5.72263 504.099 5.86334C506.554 6.21513 511.382 7.59886 514.461 8.81844C520.288 11.1637 520.413 12.8758 514.836 14.4237C512.88 14.9631 511.798 15.0569 506.013 15.268C498.439 15.526 496.899 15.4088 490.656 14.1423C484.913 12.9696 480.46 11.5155 480.46 10.765C480.46 10.6478 481.001 10.4836 481.708 10.3898C482.374 10.3194 482.957 10.2256 482.957 10.1553C482.957 10.1084 482.499 9.70964 481.916 9.28749C481.334 8.86534 480.876 8.41972 480.876 8.30246C480.876 8.1852 479.253 7.50505 477.297 6.80147C475.341 6.09787 470.971 4.26852 467.642 2.76753L461.524 0.0235138H408.878C359.228 0.0235138 356.273 0.0469666 357.272 0.422226C360.893 1.80595 364.472 4.52652 365.637 6.73111C366.22 7.92722 365.72 9.19368 364.305 10.0614C363.473 10.5774 363.182 10.6009 360.019 10.4601C357.605 10.3429 356.023 10.4132 354.359 10.6712C351.446 11.1168 348.407 11.1168 346.909 10.6947C345.453 10.2491 343.122 8.65425 341.707 7.10635C340.75 6.00406 340.667 5.74608 341 4.43269C341.291 3.21313 341.541 2.8848 342.789 2.25156C344.079 1.59488 345.619 0.445679 345.619 0.117325C345.619 0.0469666 243.656 6.10352e-05 119.012 6.10352e-05H-107.637L-106.93 0.750565ZM251.605 9.26404C252.188 9.28749 252.854 9.35785 253.062 9.42821C253.27 9.49857 254.393 9.68619 255.517 9.85037C256.682 10.0145 258.056 10.3663 258.597 10.6009C259.138 10.8354 260.012 11.023 260.511 11.023C261.011 11.023 261.677 11.1872 261.968 11.3748C262.259 11.5859 263.466 12.0081 264.631 12.3364C266.546 12.8758 270.042 14.025 272.123 14.8224C272.913 15.1273 280.28 19.2551 281.611 20.1463C282.277 20.5919 284.15 22.1163 285.066 22.9606C285.274 23.1717 285.981 23.7815 286.605 24.3209C287.23 24.8604 287.771 25.4232 287.771 25.6108C287.771 25.775 288.145 26.0565 288.603 26.1972C289.061 26.3613 289.727 26.8304 290.06 27.2057C290.434 27.6044 291.058 28.1438 291.433 28.3783C294.055 29.9966 296.552 33.3035 298.175 37.1497C299.965 41.512 300.298 43.3883 300.547 50.2131C300.797 57.3663 300.381 60.0165 298.55 63.0185C297.135 65.3873 296.469 65.4811 293.056 63.769C289.81 62.1508 286.897 59.5475 279.988 52.2301C274.62 46.5075 268.668 41.6293 259.596 35.4612C256.599 33.4442 255.434 32.295 252.146 28.0265C251.022 26.5959 249.649 24.9776 249.066 24.3913C248.484 23.805 247.735 22.9606 247.402 22.515C247.069 22.0694 246.569 21.5535 246.278 21.3893C245.987 21.2251 245.737 20.9437 245.737 20.7795C245.737 20.6153 245.113 20.0056 244.322 19.4192C243.531 18.8329 242.449 17.9417 241.908 17.4257C240.785 16.3 238.454 14.7755 237.871 14.7755C237.622 14.7755 236.789 14.2126 235.999 13.509C233.46 11.3983 234.084 10.0849 237.996 9.26404C239.578 8.9357 244.447 8.9357 251.605 9.26404ZM900.589 17.4257C901.962 17.801 906.082 19.2551 909.786 20.6388C918.734 23.9926 924.227 25.9392 929.513 27.5574C949.864 33.8429 957.23 36.9856 965.512 43.0365C966.219 43.529 967.343 44.3264 968.009 44.772C970.298 46.273 971.546 47.3284 972.42 48.4776C973.211 49.4861 973.253 49.8848 973.045 52.1832C972.92 53.5904 972.712 55.0679 972.587 55.4666C972.42 55.8419 972.254 57.6712 972.129 59.524C971.963 63.4172 971.463 64.3319 969.257 64.7306C967.676 65.0355 965.054 64.754 963.306 64.1208C960.476 63.0889 955.232 60.4621 946.368 55.6777C933.508 48.7121 933.633 48.7825 923.353 44.9596C911.742 40.6443 912.45 40.9023 908.08 39.6123C903.793 38.3459 902.794 37.6892 903.668 36.7276C904.168 36.2351 904.126 36.024 903.543 35.3204C903.169 34.8514 902.669 34.4761 902.461 34.4761C902.212 34.4761 902.045 34.3119 902.045 34.1243C902.045 33.9367 901.92 33.7725 901.712 33.7725C901.546 33.7725 901.171 33.4442 900.88 33.0689C900.547 32.6702 900.089 32.3653 899.839 32.3653C899.548 32.3653 898.882 32.1308 898.3 31.8259C897.717 31.521 896.135 30.9347 894.762 30.4891C891.225 29.3633 886.355 27.0649 885.148 25.9861C884.566 25.4701 883.983 24.6962 883.858 24.2506C883.567 23.2655 884.15 23.1248 889.061 22.8668C890.933 22.773 892.473 22.6088 892.473 22.4916C892.473 22.3743 893.056 22.1398 893.722 21.9287C894.762 21.6238 894.97 21.4362 894.97 20.6622C894.97 20.1697 894.679 19.4427 894.346 19.0909C893.43 18.1059 893.555 17.2146 894.679 16.769C895.844 16.3234 897.218 16.4641 900.589 17.4257ZM65.117 25.6577C65.9078 25.8454 67.6557 26.2675 68.9458 26.5959C70.236 26.9242 71.5261 27.2057 71.7758 27.2057C72.5666 27.2057 76.4786 28.2141 78.2682 28.8943C80.5155 29.7386 83.3455 31.4741 85.2599 33.1862C87.2992 34.9686 89.3384 36.3524 89.9211 36.3524C90.1708 36.3524 90.6285 36.5165 90.9199 36.7041C91.2112 36.8918 91.7522 37.0325 92.0852 37.009C93.0424 36.9152 94.2909 38.0879 96.2885 40.9492C99.5347 45.5929 101.324 50.4711 101.324 54.763C101.324 58.1637 100.325 59.3833 97.2874 59.6882C94.0412 59.9931 92.6262 59.4302 81.764 53.5904C68.3632 46.4137 68.488 46.4841 67.3227 45.03C66.7401 44.256 66.0742 43.6228 65.9078 43.6228C65.7413 43.6228 65.45 43.271 65.3251 42.8489C65.1586 42.4501 64.576 41.6293 64.035 41.043C63.5356 40.4566 62.9529 39.6592 62.8281 39.284C62.6616 38.8853 62.4535 38.4162 62.3287 38.2286C62.2038 38.041 61.9957 37.6892 61.9541 37.4547C61.8709 37.2436 61.3298 36.6338 60.7472 36.1178C60.1645 35.6019 59.7067 35.1328 59.7067 35.039C59.7067 34.9686 59.0409 34.3823 58.2501 33.7725C55.4201 31.6148 54.7543 30.1608 55.3785 27.5809C55.7115 26.3613 57.3345 25.1887 58.9992 25.048C60.2062 24.9307 63.2859 25.259 65.117 25.6577ZM449.455 42.9192C449.33 43.0599 448.747 43.0834 448.165 43.013C447.582 42.9192 447.166 42.9661 447.166 43.1303C447.166 43.4821 449.372 43.4586 449.996 43.1068C450.37 42.8958 450.745 42.9192 451.536 43.1537C452.451 43.4352 452.701 43.4352 452.951 43.1772C453.2 42.9661 453.408 42.9427 453.575 43.1303C453.783 43.3179 454.116 43.3179 454.699 43.1537C455.115 43.013 455.489 42.9896 455.489 43.1068C455.489 43.2241 456.655 43.3883 458.111 43.4586C460.15 43.5759 461.482 43.8339 464.645 44.7955C470.139 46.4841 472.178 47.3519 476.506 49.8144C480.876 52.3005 485.079 55.3963 488.783 58.8673C492.737 62.5729 502.434 73.4317 503.807 75.7301C504.973 77.7001 507.261 84.6657 507.678 87.7146C508.177 91.0684 508.468 95.4307 508.177 95.9936C507.802 96.8613 506.804 97.3304 505.389 97.3304C503.016 97.3304 496.233 93.015 488.575 86.6592C483.789 82.6722 482.624 81.8748 476.381 78.1223C473.468 76.4102 469.181 73.6193 466.809 71.9776C461.94 68.5769 458.444 66.6772 453.7 64.9182C451.91 64.2381 450.079 63.3703 449.663 62.9482C448.747 62.1508 448.581 61.3299 449.247 61.0954C449.788 60.9077 448.622 59.3364 447.707 58.9142C447.332 58.7735 447.124 58.6328 447.291 58.6328C447.915 58.6328 442.005 53.8953 440.132 52.9102C439.425 52.5115 438.842 52.1128 438.842 52.019C438.842 51.9017 438.468 51.5734 437.968 51.292C435.554 49.8379 433.723 46.7421 434.681 45.7336C434.93 45.4521 435.263 45.288 435.388 45.3583C435.513 45.4287 435.971 45.2176 436.428 44.9127C436.886 44.5844 437.594 44.3264 438.052 44.3264C438.509 44.3264 439.258 44.2326 439.675 44.0919C440.091 43.9746 441.173 43.787 442.047 43.7166C442.921 43.6463 443.712 43.4821 443.753 43.3648C443.836 43.2476 444.544 43.1537 445.293 43.1537C446.084 43.1537 446.833 43.0365 446.958 42.9192C447.083 42.7785 447.79 42.6847 448.456 42.6847C449.205 42.6847 449.621 42.7785 449.455 42.9192ZM1777.55 44.0919C1778.76 44.3968 1779.72 44.8893 1780.59 45.6632C1781.8 46.6952 1781.88 46.9062 1781.67 48.3134C1781.51 49.6737 1780.88 50.7995 1778.76 53.52C1777.43 55.279 1772.97 59.7116 1771.93 60.3449C1771.02 60.8843 1770.77 60.9312 1770.27 60.6497C1769.06 59.9696 1768.69 52.0659 1769.73 49.1343C1770.52 46.9062 1771.52 45.03 1771.93 45.03C1772.1 45.03 1772.27 44.8658 1772.27 44.6782C1772.27 44.3733 1774.35 43.6932 1775.39 43.6463C1775.64 43.6463 1776.6 43.8339 1777.55 44.0919ZM1705.97 45.3114C1705.85 45.4991 1705.72 45.4287 1705.72 45.1707C1705.68 44.9127 1705.8 44.772 1705.93 44.8658C1706.05 44.9362 1706.1 45.1473 1705.97 45.3114ZM1712.96 55.7012C1717.08 61.752 1718.04 63.3234 1719.37 66.2551C1720.12 67.8968 1722.49 74.3464 1723.62 77.7471C1723.82 78.3803 1724.87 81.3354 1725.86 84.3139C1728.07 90.7635 1729.15 95.6183 1730.86 106.477C1731.23 108.729 1731.61 110.957 1731.69 111.402C1733.06 117.383 1733.19 121.557 1732.15 123.012C1731.27 124.161 1729.36 125.263 1727.4 125.732C1725.78 126.131 1725.24 126.154 1723.03 125.92C1719.08 125.521 1716.71 124.653 1713.75 122.542C1710.13 119.963 1707.68 116.374 1705.22 110.112C1704.35 107.79 1703.39 105.469 1703.18 104.953C1702.97 104.437 1702.39 102.959 1701.93 101.669C1701.48 100.379 1700.89 98.8548 1700.69 98.2685C1700.1 96.7441 1697.98 89.9192 1697.15 86.8938C1696.77 85.4631 1696.19 83.4696 1695.9 82.4377C1695.07 79.7875 1694.69 76.9262 1695.11 76.9262C1695.52 76.9262 1697.44 78.6148 1698.85 80.2096C1700.48 82.0624 1701.48 84.4547 1702.35 88.5355C1702.81 90.7166 1703.39 93.0385 1703.6 93.6952C1703.81 94.3284 1704.18 95.548 1704.43 96.3923C1705.18 98.7376 1706.55 101.74 1707.3 102.584C1708.22 103.639 1709.97 104.742 1710.96 104.929C1711.88 105.093 1713.42 104.319 1712.96 103.921C1712.84 103.78 1712.96 103.663 1713.3 103.663C1713.92 103.663 1715.67 101.106 1715.67 100.215C1715.67 99.9571 1715.79 99.6757 1715.96 99.6053C1716.08 99.5115 1716.25 99.2066 1716.29 98.9017C1716.33 98.6203 1716.62 97.2131 1716.92 95.8059C1717.83 91.4437 1717.08 75.777 1715.67 69.4212C1714.75 65.4811 1712.67 59.7585 1711.34 57.765C1711.01 57.2725 1710.34 55.9826 1709.84 54.8803C1709.34 53.778 1708.76 52.6288 1708.55 52.3005C1707.97 51.3623 1706.51 47.3519 1706.55 46.6952C1706.55 46.3199 1707.05 46.8359 1707.84 48.0789C1708.55 49.1812 1710.84 52.6053 1712.96 55.7012ZM715.515 59.2426C720.135 59.7585 713.892 61.9631 709.106 61.5175C707.317 61.3533 707.067 61.2361 707.067 60.767C707.067 59.6178 711.603 58.797 715.515 59.2426ZM1852.26 60.0869C1853.26 61.0954 1852.84 70.3593 1851.8 70.3593C1850.97 70.3593 1850.51 68.272 1850.51 64.4257C1850.51 62.1742 1850.63 60.1572 1850.76 59.9462C1851.13 59.4302 1851.63 59.4771 1852.26 60.0869ZM-38.7603 78.9432C-38.2609 79.0604 -38.0944 79.4357 -38.0944 80.5849C-38.0944 82.0859 -36.5962 85.8384 -35.9303 86.0964C-35.7222 86.1667 -35.4725 86.7061 -35.3477 87.269C-35.2644 87.8319 -35.0563 88.6997 -34.9315 89.1687C-34.3904 91.0215 -37.4285 92.4521 -43.9209 93.4841C-48.582 94.2346 -50.4548 94.2346 -51.0375 93.4841C-51.412 93.0619 -51.3288 92.757 -50.8294 92.1238C-50.2467 91.4202 -50.1635 90.529 -50.2883 85.7446C-50.3716 81.2416 -50.2883 80.1393 -49.8306 79.9282C-48.4988 79.295 -40.425 78.5914 -38.7603 78.9432ZM1852.96 88.7466C1853.67 89.2156 1854.55 92.0769 1855.04 95.4541C1855.59 98.8548 1856.58 101.927 1857.42 102.607C1857.75 102.865 1858 103.452 1858 103.897C1858 104.366 1858.25 104.882 1858.54 105.046C1858.79 105.187 1859.08 105.656 1859.12 106.078C1859.16 106.501 1859.33 107.228 1859.5 107.72C1859.83 108.776 1859.04 109.573 1857.13 110.136C1855.54 110.581 1852.34 110.652 1851.63 110.253C1851.3 110.065 1851.05 108.611 1850.84 106.055C1850.72 103.897 1850.38 100.45 1850.13 98.3858C1849.59 93.8124 1849.51 89.8723 1849.93 89.2391C1850.51 88.3948 1852.09 88.1368 1852.96 88.7466ZM1748.34 99.5819C1747.75 100.637 1747.01 101.669 1746.71 101.904C1746.26 102.279 1746.17 102.232 1746.13 101.528C1746.05 99.8633 1746.96 97.1662 1748.05 95.9232L1749.17 94.6333L1749.29 96.1577C1749.38 97.2835 1749.13 98.1513 1748.34 99.5819ZM1159.62 100.239C1160.66 100.942 1160.95 102.42 1161.53 109.878C1161.86 114.123 1162.32 118.415 1162.53 119.376C1162.74 120.338 1162.86 124.043 1162.82 127.585C1162.74 132.768 1162.57 134.41 1161.99 135.911C1160.99 138.397 1160.32 139.288 1159.16 139.523C1156.87 139.992 1156.45 139.265 1156.12 134.269C1155.83 129.297 1155.79 102.537 1156.12 101.693C1156.24 101.364 1156.41 100.825 1156.54 100.497C1156.7 100.027 1157.04 99.9102 1157.95 99.9102C1158.62 99.9102 1159.37 100.051 1159.62 100.239ZM974.46 115.084C975.542 136.216 976.041 141.68 977.123 142.337C977.747 142.712 977.872 143.158 978.621 147.52C979.121 150.522 979.162 160.583 978.621 161.123C978.413 161.357 977.789 161.592 977.206 161.686C976.582 161.779 976.124 162.061 975.916 162.46C975.5 163.445 974.501 163.937 973.003 163.937C972.087 163.937 971.546 163.796 971.338 163.515C971.172 163.304 970.922 154.767 970.797 144.565C970.589 125.498 970.881 118.555 972.212 111.402C972.961 107.275 973.045 106.993 973.669 107.345C973.919 107.486 974.252 110.652 974.46 115.084ZM316.57 108.799C317.569 109.245 318.568 110.628 318.859 111.989C318.942 112.364 319.109 112.856 319.275 113.044C319.4 113.232 319.566 113.443 319.608 113.513C319.65 113.583 319.775 113.794 319.941 113.982C320.274 114.451 321.106 116.585 321.148 117.031C321.148 117.219 321.398 117.852 321.689 118.438C322.272 119.634 322.105 122.824 321.398 124.067C321.148 124.513 320.565 125.169 320.108 125.521C317.777 127.303 305.749 129.438 303.211 128.546C302.795 128.382 302.711 128.101 302.919 127.444C303.211 126.576 303.544 120.432 303.71 113.349C303.752 111.074 303.96 109.925 304.293 109.737C304.834 109.432 312.492 108.4 314.448 108.377C315.072 108.353 315.987 108.564 316.57 108.799ZM1479.2 142.759C1479.7 143.463 1481.4 148.575 1482.19 151.624C1482.48 152.656 1483.07 154.181 1483.48 155.025C1484.44 156.972 1485.11 160.091 1485.15 162.999C1485.19 164.993 1479.16 166.916 1476.87 165.626C1476.08 165.18 1476.03 164.735 1475.78 155.705C1475.62 150.499 1475.41 145.527 1475.28 144.659C1475.08 143.298 1475.16 143.04 1475.91 142.618C1477.16 141.915 1478.66 141.985 1479.2 142.759ZM1976.61 150.053C1977.28 150.358 1977.73 151.015 1978.27 152.445C1981.35 160.748 1981.89 161.92 1983.48 164.289C1985.85 167.783 1987.06 169.965 1987.18 170.973C1987.31 172.31 1986.43 174.397 1985.47 175.007C1984.43 175.664 1980.52 176.602 1978.82 176.602C1975.53 176.602 1975.11 176.016 1974.74 170.973C1974.61 168.98 1974.2 164.969 1973.86 162.084C1973.53 159.176 1973.28 155.4 1973.28 153.688C1973.28 150.874 1973.36 150.522 1974.11 150.1C1975.15 149.514 1975.44 149.514 1976.61 150.053ZM522.993 152.914C523.825 152.938 524.283 154.251 524.782 158.262C525.115 160.677 525.573 163.234 525.823 163.937C526.031 164.641 526.489 166.165 526.822 167.338C527.155 168.487 527.821 170.457 528.32 171.677C528.819 173.037 529.277 175.265 529.402 177.423C529.652 180.847 529.652 180.964 528.695 181.738C527.862 182.418 527.03 182.676 523.118 183.427C518.373 184.365 516.501 184.529 516.001 184.083C515.543 183.661 515.835 154.063 516.292 153.571C516.917 152.914 518.249 152.68 520.621 152.797C521.786 152.844 522.826 152.891 522.993 152.914ZM114.975 163.609C115.682 163.89 115.89 164.195 115.89 164.969C115.89 166.071 117.097 169.965 118.387 173.131C120.468 178.197 121.967 183.755 121.758 185.866C121.634 187.109 120.51 187.648 116.515 188.352C112.561 189.055 109.731 189.22 108.94 188.774C108.316 188.422 108.691 164.735 109.315 164.101C110.106 163.257 113.352 162.952 114.975 163.609ZM1163.4 176.039C1163.65 176.367 1163.82 177.188 1163.82 177.892C1163.82 179.276 1165.11 184.482 1166.11 187.038C1166.77 188.727 1167.65 191.026 1168.65 193.723C1168.94 194.567 1169.19 195.927 1169.23 196.795C1169.23 198.226 1169.15 198.366 1167.86 199.07C1166.32 199.914 1161.24 200.993 1158.78 200.993C1155.79 200.993 1156 202.002 1155.91 186.569C1155.87 174.421 1155.45 175.429 1160.16 175.429C1162.82 175.429 1163.03 175.476 1163.4 176.039ZM978.58 185.842C978.83 185.936 979.038 186.499 979.038 187.109C979.079 189.267 980.619 195.575 982.284 200.407C984.448 206.622 984.864 208.31 984.864 210.445C984.864 212.016 984.781 212.204 983.74 212.767C982.45 213.423 976.957 214.76 974.543 214.971C972.004 215.182 971.38 214.737 971.297 212.696C970.922 205.168 970.714 188.422 970.964 187.32C971.172 186.241 971.422 185.889 972.129 185.725C973.086 185.491 977.831 185.584 978.58 185.842Z" fill="#7F69AD"/>
<path d="M469.057 0.422225C471.304 1.59488 478.171 4.15127 481.5 5.04249C485.121 6.02752 488.367 6.56694 488.367 6.21514C488.367 6.00406 486.952 4.94867 485.454 3.9871C484.954 3.65875 483.373 2.62682 482 1.68869L479.461 7.00951e-05H473.843C468.432 7.00951e-05 468.266 0.0235229 469.057 0.422225Z" fill="#7F69AD"/>
<path d="M1148.42 0.117289C1148.42 0.164196 1148.92 0.609804 1149.5 1.10232C1151.46 2.72058 1152.67 4.29194 1155.12 8.32587C1156.41 10.507 1157.99 12.9461 1158.62 13.7201C1159.24 14.494 1159.87 15.3383 1160.07 15.5963C1161.74 17.7306 1162.65 18.7156 1164.73 20.5449C1166.52 22.1163 1166.9 22.2336 1169.1 22.1163C1170.19 22.0694 1171.48 21.9287 1171.93 21.8114C1172.39 21.6941 1174.06 21.272 1175.6 20.8967C1177.18 20.498 1178.64 20.2166 1178.84 20.3104C1179.05 20.3808 1179.51 20.2635 1179.88 20.0759C1180.22 19.8648 1181.13 19.7006 1181.84 19.6772C1182.59 19.6772 1183.55 19.6303 1184 19.5599C1184.46 19.513 1185.88 19.4192 1187.13 19.3254C1189.71 19.1612 1192.95 18.5749 1192.95 18.27C1192.95 18.1527 1193.33 18.0589 1193.78 18.0589C1194.66 18.0589 1194.91 17.7071 1194.2 17.4726C1193.95 17.3788 1193.91 17.1911 1194.08 17.0504C1194.66 16.5345 1194.57 16.0654 1193.74 15.2914C1193.33 14.8693 1192.95 14.3064 1192.95 14.0484C1192.95 13.8139 1192.79 13.6028 1192.58 13.6028C1192.37 13.6028 1192.08 13.251 1191.95 12.8054C1191.79 12.3598 1191.41 11.8907 1191.08 11.7266C1190.75 11.5624 1190.45 11.1872 1190.45 10.8588C1190.45 10.5539 1190.16 10.249 1189.83 10.1787C1189.5 10.0849 1189.21 9.92068 1189.21 9.80342C1189.21 9.6627 1188.83 9.12328 1188.42 8.58386C1185.59 5.20661 1185.38 2.1108 1187.92 0.398726C1188.46 0.0234756 1187.5 2.28882e-05 1168.48 2.28882e-05C1157.45 2.28882e-05 1148.42 0.0469303 1148.42 0.117289Z" fill="#7F69AD"/>
<path d="M1206.52 0.211079C1206.73 0.328345 1207.89 0.656688 1209.1 0.914672C1211.89 1.54791 1215.38 1.54791 1218.46 0.961578C1223 0.0703609 1222.75 0.0234547 1214.22 1.54972e-06C1209.22 1.54972e-06 1206.27 0.093814 1206.52 0.211079Z" fill="#7F69AD"/>
<path d="M1229.08 0.633308C1230.24 1.61834 1231.45 3.65876 1233.53 8.32592C1234.57 10.6478 1235.98 13.5091 1236.65 14.6583C1238.15 17.2146 1242.85 22.6792 1245.6 25.0714C1249.38 28.3549 1255.17 31.263 1260.54 32.6233L1262.45 33.0924L1264.66 32.037C1265.82 31.4507 1266.95 30.9582 1267.11 30.9582C1267.49 30.9582 1267.61 31.2865 1268.49 33.8663C1268.82 34.8748 1269.36 35.8833 1269.69 36.0944C1270.65 36.6807 1272.19 36.6573 1273.27 36.0006C1274.11 35.4846 1274.15 35.3439 1273.77 34.1947C1273.56 33.5145 1273.07 32.3653 1272.73 31.6618C1272.4 30.9582 1271.53 27.5106 1270.82 24.0395C1268.65 13.3918 1267.95 11.1872 1265.74 7.76305C1264.37 5.72263 1261.41 2.11086 1260.04 0.820934L1259.25 0.11734L1254.63 0.0469818L1249.97 -0.0233765L1250.22 0.750576C1250.38 1.17273 1250.72 1.82942 1251.01 2.22812C1251.34 2.60337 1251.51 3.28351 1251.47 3.68221C1251.38 4.17473 1251.55 4.45617 1251.84 4.45617C1252.63 4.45617 1252.96 6.40277 1252.26 6.70766C1251.72 6.94219 1251.76 7.15327 1252.42 8.34938C1253.71 10.6243 1254.63 13.3449 1254.38 13.9547C1253.63 15.6198 1251.72 13.6498 1247.85 7.22363C1246.01 4.22163 1244.22 1.36036 1243.85 0.86784L1243.18 7.62939e-05H1235.73H1228.28L1229.08 0.633308ZM1253.3 7.27053C1253.3 7.3878 1253.21 7.50507 1253.13 7.50507C1253.01 7.50507 1252.8 7.3878 1252.67 7.27053C1252.55 7.12982 1252.63 7.03601 1252.84 7.03601C1253.09 7.03601 1253.3 7.12982 1253.3 7.27053Z" fill="#7F69AD"/>
<path d="M1262.95 0.164246C1263.04 0.281513 1264.03 1.45417 1265.2 2.81445C1266.36 4.17472 1267.95 6.05097 1268.74 7.01255C1269.94 8.49009 1270.4 8.81844 1272.02 9.31095C1277.48 10.9761 1278.93 11.4921 1281.14 12.5475C1282.43 13.2042 1284.34 14.0954 1285.38 14.541C1288.26 15.8309 1291.79 17.9651 1294 19.7945C1296.54 21.8584 1300.87 26.3848 1302.03 28.1438C1302.95 29.5979 1305.78 31.4272 1307.02 31.4272C1307.48 31.4272 1308.27 31.5914 1308.77 31.779C1310.44 32.3888 1316.97 32.9986 1321.42 32.9751C1325.13 32.9517 1325.75 32.8813 1328.17 32.1777C1329.66 31.779 1331 31.4272 1331.16 31.4272C1331.37 31.4272 1332.2 31.1692 1333.04 30.8409C1333.99 30.4891 1335.16 30.2546 1336.07 30.2546C1338.03 30.2546 1339.2 31.0051 1341.86 34.1243C1343.81 36.3758 1344.61 37.3843 1344.65 37.6423C1344.69 37.7596 1345.1 38.3459 1345.6 38.9322C1346.15 39.5185 1346.64 40.3863 1346.81 40.8554C1346.94 41.4182 1347.27 41.7466 1347.64 41.7466C1347.98 41.7466 1348.1 41.8638 1347.98 41.9811C1347.81 42.1218 1348.18 42.5909 1348.77 43.0365C1349.35 43.4587 1349.85 44.0919 1349.85 44.4202C1349.85 44.7955 1350.1 45.03 1350.43 45.03C1350.76 45.03 1351.22 45.3818 1351.47 45.804C1351.93 46.6014 1353.22 47.3753 1354.09 47.3753C1354.34 47.3753 1355.18 47.4926 1355.93 47.6568C1357.47 47.9616 1361.59 47.5629 1362.79 46.9766C1363.13 46.8124 1363.58 46.6717 1363.71 46.6717C1363.87 46.6717 1366.2 45.9681 1368.87 45.1004C1371.57 44.2561 1375.65 42.9896 1377.94 42.3329C1381.89 41.1602 1392.38 37.3374 1395.71 35.8129C1399.33 34.1712 1403.45 30.3953 1405.2 27.1353C1406.49 24.6962 1407.7 23.0779 1411.15 18.9971C1412.86 17.0036 1414.48 14.9397 1414.73 14.4237C1415.27 13.2745 1415.6 9.85037 1415.19 9.85037C1415.02 9.85037 1414.56 9.42822 1414.11 8.91225C1413.32 7.97412 1411.86 7.4347 1410.11 7.48161C1407.95 7.50506 1405.45 7.76305 1404.91 7.99758C1404.62 8.1383 1404.37 8.1852 1404.37 8.09139C1404.37 7.97412 1404.04 8.06794 1403.66 8.25556C1402.75 8.67772 1399.17 9.61584 1398.38 9.61584C1398.08 9.61584 1397.58 9.78001 1397.29 9.96764C1397 10.1553 1396.54 10.3194 1396.25 10.3194C1395.96 10.3194 1395.5 10.4836 1395.21 10.6712C1394.92 10.8589 1394.34 11.023 1393.92 11.023C1393.46 11.023 1393.13 11.1637 1393.13 11.3514C1393.13 11.539 1392.72 11.7266 1392.17 11.8204C1391.63 11.8908 1389.89 12.5944 1388.3 13.3918C1384.35 15.3619 1383.06 15.6902 1378.11 15.9482C1373.53 16.2062 1371.95 16.0654 1367.66 15.1508C1361 13.7436 1357.42 12.5006 1349.22 8.81844C1343.61 6.30896 1341.78 5.62881 1336.37 4.12782C1328.67 1.97013 1323.59 0.985104 1315.97 0.234604C1313.1 -0.046833 1262.7 -0.0937386 1262.95 0.164246Z" fill="#7F69AD"/>
<path d="M1351.97 0.680247C1353.01 1.0555 1355.22 1.75909 1356.88 2.2516L1359.92 3.14282L1362.67 2.74412C1366.08 2.22815 1366.5 2.04053 1366.5 0.914778V0.000107527H1358.3H1350.06L1351.97 0.680247Z" fill="#7F69AD"/>
</g>
<defs>
<clipPath id="clip0_36_355">
<rect width="2187" height="470" fill="white" transform="translate(-118)"/>
</clipPath>
</defs>
</svg>
